<?xml version="1.0" encoding="utf-8"?>
<!-- Generator: Adobe Illustrator 18.1.1, SVG Export Plug-In . SVG Version: 6.00 Build 0)  -->
<svg version="1.1" id="Layer_1" xmlns="http://www.w3.org/2000/svg" xmlns:xlink="http://www.w3.org/1999/xlink" x="0px" y="0px"
	 viewBox="0 0 144 144" enable-background="new 0 0 144 144" xml:space="preserve">
<g>
	<path fill="#00BCE4" d="M71.9,0C32.3,0,0,32.3,0,71.9c0,39.6,32.3,71.9,71.9,71.9c39.6,0,71.9-32.3,71.9-71.9
		C143.8,32.3,111.5,0,71.9,0z M71.9,140.7c-37.9,0-68.8-30.9-68.8-68.8C3.1,34,34,3.1,71.9,3.1c37.9,0,68.8,30.9,68.8,68.8
		C140.7,109.8,109.8,140.7,71.9,140.7z"/>
	<path fill="#00BCE4" d="M86.1,44.3L74.3,64.8c-0.3-0.1-0.6-0.2-0.9-0.2V24.9h-3.1v39.8c-3.3,0.8-5.8,3.8-5.8,7.3
		c0,4.1,3.4,7.5,7.5,7.5s7.5-3.4,7.5-7.5c0-2.2-1-4.2-2.5-5.6l11.7-20.5L86.1,44.3z M72,76.4c-2.4,0-4.4-2-4.4-4.4
		c0-2.4,2-4.4,4.4-4.4c2.4,0,4.4,2,4.4,4.4C76.4,74.4,74.4,76.4,72,76.4z"/>
	<rect x="70.3" y="11" fill="#00BCE4" width="3.1" height="6.5"/>
	<rect x="39.8" y="20.5" transform="matrix(0.5 0.866 -0.866 0.5 40.6257 -26.2313)" fill="#00BCE4" width="6.5" height="3.1"/>
	<rect x="18.7" y="41.7" transform="matrix(0.866 0.5 -0.5 0.866 24.5617 -5.1829)" fill="#00BCE4" width="6.5" height="3.1"/>
	<rect x="11" y="70.6" fill="#00BCE4" width="6.5" height="3.1"/>
	
		<rect x="20.5" y="97.7" transform="matrix(-0.5003 -0.8658 0.8658 -0.5003 -54.277 170.591)" fill="#00BCE4" width="3.1" height="6.5"/>
	
		<rect x="41.7" y="118.8" transform="matrix(-0.8661 -0.4999 0.4999 -0.8661 19.7215 249.3512)" fill="#00BCE4" width="3.1" height="6.5"/>
	<rect x="70.6" y="126.5" fill="#00BCE4" width="3.1" height="6.5"/>
	
		<rect x="97.7" y="120.4" transform="matrix(-0.5001 -0.866 0.866 -0.5001 45.9121 270.3046)" fill="#00BCE4" width="6.5" height="3.1"/>
	<rect x="118.8" y="99.2" transform="matrix(-0.866 -0.5 0.5 -0.866 177.4024 248.9822)" fill="#00BCE4" width="6.5" height="3.1"/>
	<rect x="126.5" y="70.3" fill="#00BCE4" width="6.5" height="3.1"/>
	
		<rect x="120.4" y="39.8" transform="matrix(0.5006 0.8657 -0.8657 0.5006 98.1255 -84.0677)" fill="#00BCE4" width="3.1" height="6.5"/>
	
		<rect x="99.2" y="18.7" transform="matrix(0.8658 0.5003 -0.5003 0.8658 24.488 -47.4619)" fill="#00BCE4" width="3.1" height="6.5"/>
</g>
</svg>
