<?xml version="1.0" encoding="utf-8"?>
<!-- Generator: Adobe Illustrator 18.1.1, SVG Export Plug-In . SVG Version: 6.00 Build 0)  -->
<svg version="1.1" id="Layer_1" xmlns="http://www.w3.org/2000/svg" xmlns:xlink="http://www.w3.org/1999/xlink" x="0px" y="0px"
	 viewBox="121.1 210.4 369.7 369.7" enable-background="new 121.1 210.4 369.7 369.7" xml:space="preserve">
<g>
	<path d="M221.2,442.4v-94.3h14.1v94.3H221.2z"/>
	<path d="M290.9,443.1c-9.9,0-18.3-3.5-24.6-9.9c-9.2-9.2-9.2-19.7-9.2-38c0-18.3,0-28.9,9.2-38c6.3-6.3,14.8-9.9,24.6-9.9
		c17.6,0,30.3,10.6,33.8,28.9h-14.8c-2.1-9.9-8.4-16.2-19-16.2c-5.6,0-10.6,2.1-14.1,5.6c-4.9,4.9-5.6,10.6-5.6,29.6
		s1.4,24.6,5.6,29.6c3.5,3.5,8.4,5.6,14.1,5.6c10.6,0,16.9-6.3,19-16.2h14.8C321.9,432.6,308.5,443.1,290.9,443.1z"/>
	<path d="M343.7,442.4v-94.3h60.5v12.7h-45.8v27.5h39.4v12.7h-39.4v28.2h45.8v12.7h-60.5V442.4z"/>
</g>
<path fill="#00BCE4" d="M306,211.2c-101.5,0-184,82.6-184,184s82.6,184,184,184c101.5,0,184-82.6,184-184S407.5,211.2,306,211.2z
	 M306,565.6c-93.9,0-170.4-76.4-170.4-170.4S212.1,224.9,306,224.9c93.9,0,170.4,76.4,170.4,170.4S399.9,565.6,306,565.6z"/>
</svg>
