<?xml version="1.0" encoding="utf-8"?>
<!-- Generator: Adobe Illustrator 18.1.1, SVG Export Plug-In . SVG Version: 6.00 Build 0)  -->
<svg version="1.1" id="Layer_1" xmlns="http://www.w3.org/2000/svg" xmlns:xlink="http://www.w3.org/1999/xlink" x="0px" y="0px"
	 viewBox="0 0 100 100" enable-background="new 0 0 100 100" xml:space="preserve">
<path fill="#00BCE4" d="M50.2,62.7C33.6,62.7,20,49.2,20,32.5C20,15.8,33.6,2.3,50.2,2.3c16.7,0,30.2,13.6,30.2,30.2
	C80.5,49.2,66.9,62.7,50.2,62.7z M50.2,4.3C34.7,4.3,22.1,17,22.1,32.5s12.6,28.2,28.2,28.2c15.5,0,28.2-12.6,28.2-28.2
	S65.8,4.3,50.2,4.3z"/>
<g>
	<path d="M17.9,82.2h-3.4v-8.7h3.3c1.5,0,2.6,0.9,2.6,2.3c0,0.9-0.6,1.6-1.3,1.9c0.8,0.3,1.4,1,1.4,2.1
		C20.5,81.3,19.4,82.2,17.9,82.2z M17.7,74.3h-2.3v3h2.3c1,0,1.7-0.5,1.7-1.5C19.4,74.7,18.7,74.3,17.7,74.3z M17.8,78.1h-2.4v3.2
		h2.4c1.1,0,1.8-0.6,1.8-1.6S18.9,78.1,17.8,78.1z"/>
	<path d="M22.8,79.4c0,1.3,0.6,2.1,1.8,2.1c0.7,0,1.1-0.2,1.6-0.7l0.6,0.5c-0.6,0.6-1.2,0.9-2.2,0.9c-1.6,0-2.6-1-2.6-3.1
		c0-2,0.9-3.1,2.5-3.1c1.6,0,2.5,1.1,2.5,2.9v0.4H22.8z M25.8,77.7c-0.2-0.6-0.8-0.9-1.4-0.9c-0.6,0-1.2,0.4-1.4,0.9
		c-0.1,0.3-0.2,0.5-0.2,1H26C26,78.2,26,78,25.8,77.7z"/>
	<path d="M32,82.2v-0.6c-0.5,0.5-0.9,0.7-1.7,0.7c-0.8,0-1.3-0.2-1.7-0.6c-0.3-0.3-0.5-0.7-0.5-1.2c0-1.1,0.7-1.7,2.1-1.7H32v-0.6
		c0-0.9-0.4-1.3-1.5-1.3c-0.8,0-1.2,0.2-1.5,0.7l-0.6-0.6c0.5-0.7,1.2-0.9,2.1-0.9c1.6,0,2.4,0.7,2.4,2v4.1H32z M32,79.4h-1.7
		c-0.9,0-1.4,0.4-1.4,1.1c0,0.7,0.4,1,1.4,1c0.5,0,1,0,1.4-0.4c0.2-0.2,0.3-0.5,0.3-1V79.4z"/>
	<path d="M37.1,82.2c-1.5,0-2.7-1-2.7-3.1c0-2.1,1.2-3.1,2.7-3.1c0.8,0,1.4,0.2,2,0.9l-0.6,0.6c-0.5-0.5-0.8-0.7-1.4-0.7
		c-0.6,0-1.1,0.2-1.4,0.7c-0.3,0.4-0.4,0.9-0.4,1.6s0.1,1.2,0.4,1.6c0.3,0.5,0.8,0.7,1.4,0.7c0.6,0,0.9-0.2,1.4-0.7l0.6,0.6
		C38.4,82,37.9,82.2,37.1,82.2z"/>
	<path d="M44.3,81.5c-0.4,0.4-1,0.7-1.7,0.7c-0.7,0-1.3-0.3-1.7-0.7c-0.6-0.6-0.7-1.5-0.7-2.4c0-0.9,0.1-1.8,0.7-2.4
		c0.4-0.4,1-0.7,1.7-0.7c0.7,0,1.3,0.3,1.7,0.7c0.6,0.6,0.7,1.5,0.7,2.4C45,80.1,44.9,80.9,44.3,81.5z M43.7,77.3
		c-0.3-0.3-0.7-0.4-1.1-0.4c-0.4,0-0.8,0.2-1.1,0.4C41,77.7,41,78.5,41,79.1c0,0.7,0,1.4,0.5,1.9c0.3,0.3,0.7,0.4,1.1,0.4
		c0.4,0,0.8-0.2,1.1-0.4c0.4-0.4,0.5-1.2,0.5-1.9C44.1,78.5,44.1,77.7,43.7,77.3z"/>
	<path d="M50.5,82.2v-3.7c0-1.1-0.6-1.6-1.5-1.6c-0.9,0-1.5,0.6-1.5,1.6v3.7h-0.9v-6h0.9v0.7c0.4-0.5,1-0.7,1.7-0.7
		c0.7,0,1.2,0.2,1.5,0.6c0.4,0.4,0.6,1,0.6,1.7v3.9H50.5z"/>
	<path d="M55.2,82.2c-1,0-1.8-0.2-2.5-0.9l0.6-0.6c0.5,0.5,1.1,0.7,1.9,0.7c1,0,1.6-0.4,1.6-1.1c0-0.5-0.3-0.8-1-0.9l-1-0.1
		c-1.2-0.1-1.8-0.6-1.8-1.6c0-1.1,0.9-1.8,2.2-1.8c0.9,0,1.6,0.2,2.2,0.7l-0.6,0.6c-0.4-0.3-1-0.5-1.6-0.5c-0.9,0-1.4,0.4-1.4,1
		c0,0.5,0.3,0.8,1.1,0.9l1,0.1c1.1,0.1,1.8,0.5,1.8,1.6C57.7,81.6,56.7,82.2,55.2,82.2z"/>
	<path d="M59.1,83.1h-0.9l3.5-10.6h0.9L59.1,83.1z"/>
	<path d="M71.2,82.2h-0.9l-1.9-7l-1.9,7h-0.9l-2.2-8.7h1l1.7,7l1.9-7h0.8l1.9,7l1.7-7h1L71.2,82.2z"/>
	<path d="M74.7,74.4v-1h1v1H74.7z M74.7,82.2v-6h0.9v6H74.7z"/>
	<path d="M78.5,74.3v3.2h3.8v0.8h-3.8v3.9h-0.9v-8.7H83v0.8H78.5z"/>
	<path d="M84.4,74.4v-1h1v1H84.4z M84.4,82.2v-6h0.9v6H84.4z"/>
</g>
<g>
	<path d="M50.5,48.4c-2.3,0-4.2-1.9-4.2-4.2c0-2.3,1.9-4.2,4.2-4.2c2.3,0,4.2,1.9,4.2,4.2C54.7,46.6,52.8,48.4,50.5,48.4z
		 M50.5,41.3c-1.6,0-2.9,1.3-2.9,2.9c0,1.6,1.3,2.9,2.9,2.9c1.6,0,2.9-1.3,2.9-2.9C53.5,42.6,52.1,41.3,50.5,41.3z"/>
	<path d="M44.9,37.4c-0.2,0-0.3-0.1-0.5-0.2c-0.2-0.3-0.2-0.6,0.1-0.9c1.7-1.5,3.8-2.3,6.1-2.3c2.1,0,4.2,0.7,5.9,2.1
		c0.3,0.2,0.3,0.6,0.1,0.9c-0.2,0.3-0.6,0.3-0.9,0.1c-1.4-1.2-3.2-1.8-5.1-1.8c-1.9,0-3.8,0.7-5.3,2C45.2,37.3,45,37.4,44.9,37.4z"
		/>
	<path d="M40.1,31.9c-0.2,0-0.3-0.1-0.4-0.2c-0.2-0.2-0.2-0.6,0-0.9c3-2.8,6.8-4.3,10.9-4.3c3.9,0,7.6,1.4,10.5,4
		c0.3,0.2,0.3,0.6,0.1,0.9c-0.2,0.3-0.6,0.3-0.9,0.1c-2.7-2.4-6.1-3.7-9.7-3.7c-3.7,0-7.3,1.4-10,4C40.4,31.8,40.2,31.9,40.1,31.9z"
		/>
	<path d="M34.5,25.5c-0.2,0-0.3-0.1-0.4-0.2c-0.2-0.2-0.2-0.6,0-0.9c4.5-4.2,10.3-6.5,16.4-6.5c5.8,0,11.5,2.1,15.8,6
		c0.3,0.2,0.3,0.6,0.1,0.9c-0.2,0.3-0.6,0.3-0.9,0.1c-4.2-3.7-9.5-5.7-15-5.7c-5.8,0-11.3,2.2-15.6,6.2
		C34.8,25.5,34.7,25.5,34.5,25.5z"/>
</g>
</svg>
