<?xml version="1.0" encoding="utf-8"?>
<!-- Generator: Adobe Illustrator 18.1.1, SVG Export Plug-In . SVG Version: 6.00 Build 0)  -->
<svg version="1.1" id="Layer_1" xmlns="http://www.w3.org/2000/svg" xmlns:xlink="http://www.w3.org/1999/xlink" x="0px" y="0px"
	 viewBox="0 0 100 100" enable-background="new 0 0 100 100" xml:space="preserve">
<g>
	<path fill="#00BCE4" d="M50.6,62.8c-16.7,0-30.2-13.6-30.2-30.2c0-16.7,13.6-30.2,30.2-30.2c16.7,0,30.2,13.6,30.2,30.2
		C80.9,49.2,67.3,62.8,50.6,62.8z M50.6,4.3C35.1,4.3,22.4,17,22.4,32.5s12.6,28.2,28.2,28.2s28.2-12.6,28.2-28.2S66.2,4.3,50.6,4.3
		z"/>
</g>
<g>
	<path d="M28.6,82.3v-6.6l-2.4,5.3h-0.8L23,75.6v6.6h-0.9v-8.7H23l2.8,6.2l2.8-6.2h0.9v8.7H28.6z"/>
	<path d="M35.5,81.7c-0.4,0.4-1,0.7-1.7,0.7s-1.3-0.3-1.7-0.7c-0.6-0.6-0.7-1.5-0.7-2.4c0-0.9,0.1-1.8,0.7-2.4
		c0.4-0.4,1-0.7,1.7-0.7s1.3,0.3,1.7,0.7c0.6,0.6,0.7,1.5,0.7,2.4C36.3,80.2,36.1,81,35.5,81.7z M34.9,77.4
		c-0.3-0.3-0.7-0.4-1.1-0.4s-0.8,0.2-1.1,0.4c-0.4,0.4-0.5,1.2-0.5,1.9c0,0.7,0,1.4,0.5,1.9c0.3,0.3,0.7,0.4,1.1,0.4
		s0.8-0.2,1.1-0.4c0.4-0.4,0.5-1.2,0.5-1.9C35.4,78.6,35.3,77.8,34.9,77.4z"/>
	<path d="M42,81.8c-0.3,0.3-0.9,0.5-1.5,0.5c-0.7,0-1.2-0.2-1.7-0.8v0.7h-0.9v-8.7h0.9v3.4c0.5-0.6,1-0.8,1.7-0.8
		c0.6,0,1.2,0.2,1.5,0.5c0.6,0.6,0.7,1.6,0.7,2.6C42.7,80.2,42.6,81.2,42,81.8z M40.3,76.9c-1.3,0-1.5,1.1-1.5,2.3
		c0,1.2,0.2,2.3,1.5,2.3c1.3,0,1.5-1.1,1.5-2.3C41.8,78.1,41.6,76.9,40.3,76.9z"/>
	<path d="M44.3,74.5v-1h1v1H44.3z M44.3,82.3v-6h0.9v6H44.3z"/>
	<path d="M48.6,82.3c-1.1,0-1.5-0.7-1.5-1.6v-7.1h0.9v7.1c0,0.6,0.2,0.9,0.8,0.9h0.5v0.8H48.6z"/>
	<path d="M51,79.5c0,1.3,0.6,2.1,1.8,2.1c0.7,0,1.1-0.2,1.6-0.7l0.6,0.5c-0.6,0.6-1.2,0.9-2.2,0.9c-1.6,0-2.6-1-2.6-3.1
		c0-2,0.9-3.1,2.5-3.1c1.6,0,2.5,1.1,2.5,2.9v0.4H51z M54,77.8c-0.2-0.6-0.8-0.9-1.4-0.9c-0.6,0-1.2,0.4-1.4,0.9
		c-0.1,0.3-0.2,0.5-0.2,1h3.2C54.2,78.3,54.1,78.1,54,77.8z"/>
	<path d="M65.3,82.3l-0.7-2h-3.8l-0.7,2h-1l3.2-8.7h0.8l3.2,8.7H65.3z M62.7,74.9L61,79.5h3.3L62.7,74.9z"/>
	<path d="M71.6,81.8c-0.3,0.3-0.9,0.5-1.5,0.5c-0.7,0-1.2-0.2-1.7-0.8V85h-0.9v-8.7h0.9v0.7c0.5-0.6,1-0.8,1.7-0.8
		c0.6,0,1.2,0.2,1.5,0.5c0.6,0.6,0.7,1.6,0.7,2.6C72.3,80.2,72.2,81.2,71.6,81.8z M69.9,76.9c-1.3,0-1.5,1.1-1.5,2.3
		c0,1.2,0.2,2.3,1.5,2.3c1.3,0,1.5-1.1,1.5-2.3C71.5,78.1,71.3,76.9,69.9,76.9z"/>
	<path d="M78,81.8c-0.3,0.3-0.9,0.5-1.5,0.5c-0.7,0-1.2-0.2-1.7-0.8V85H74v-8.7h0.9v0.7c0.5-0.6,1-0.8,1.7-0.8
		c0.6,0,1.2,0.2,1.5,0.5c0.6,0.6,0.7,1.6,0.7,2.6C78.8,80.2,78.7,81.2,78,81.8z M76.4,76.9c-1.3,0-1.5,1.1-1.5,2.3
		c0,1.2,0.2,2.3,1.5,2.3s1.5-1.1,1.5-2.3C77.9,78.1,77.7,76.9,76.4,76.9z"/>
</g>
<g>
	<path d="M48.9,48.5h3.4v-2.4h-3.4V48.5z M49.7,47h1.8v0.8h-1.8V47z"/>
	<path d="M58.2,15.8H43c-1.3,0-2.4,1.3-2.4,2.9v30.3c0,1.6,1.1,2.9,2.4,2.9h15.2c1.3,0,2.4-1.3,2.4-2.9V18.6
		C60.7,17,59.6,15.8,58.2,15.8z M41.8,22.7h17.6v21.4H41.8V22.7z M43,17h15.2c0.7,0,1.2,0.7,1.2,1.6v3.6H41.8v-3.6
		C41.8,17.7,42.3,17,43,17z M58.2,50.6H43c-0.7,0-1.2-0.7-1.2-1.6v-4.5h17.6v4.5C59.4,49.8,58.9,50.6,58.2,50.6z"/>
	<path d="M47.8,20.4h5.7c0.2,0,0.3-0.1,0.3-0.3c0-0.2-0.1-0.3-0.3-0.3h-5.7c-0.2,0-0.3,0.1-0.3,0.3C47.5,20.2,47.6,20.4,47.8,20.4z"
		/>
</g>
</svg>
