<?xml version="1.0" encoding="utf-8"?>
<!-- Generator: Adobe Illustrator 18.1.1, SVG Export Plug-In . SVG Version: 6.00 Build 0)  -->
<svg version="1.1" id="Layer_1" xmlns="http://www.w3.org/2000/svg" xmlns:xlink="http://www.w3.org/1999/xlink" x="0px" y="0px"
	 viewBox="0 0 100 100" enable-background="new 0 0 100 100" xml:space="preserve">
<path fill="#00BCE4" d="M50.7,62.4c-16.6,0-30.1-13.5-30.1-30.1c0-16.6,13.5-30.1,30.1-30.1c16.6,0,30.1,13.5,30.1,30.1
	C80.8,48.9,67.3,62.4,50.7,62.4z M50.7,4.3c-15.5,0-28.1,12.6-28.1,28.1s12.6,28.1,28.1,28.1s28.1-12.6,28.1-28.1S66.2,4.3,50.7,4.3
	z"/>
<g>
	<path d="M19.8,79.5c0,1.3,0.6,2.1,1.8,2.1c0.7,0,1.1-0.2,1.6-0.7l0.6,0.5c-0.6,0.6-1.2,0.9-2.2,0.9c-1.6,0-2.6-1-2.6-3.1
		c0-1.9,0.9-3.1,2.5-3.1c1.6,0,2.5,1.1,2.5,2.9v0.4H19.8z M22.8,77.8c-0.2-0.6-0.8-0.9-1.4-0.9s-1.2,0.4-1.4,0.9
		c-0.1,0.3-0.2,0.5-0.2,1H23C23,78.3,23,78.1,22.8,77.8z"/>
	<path d="M28.4,82.3c-0.9,0-1.6-0.3-2.2-0.9c-0.8-0.8-0.8-1.7-0.8-3.5s0-2.7,0.8-3.5c0.6-0.6,1.4-0.9,2.2-0.9c1.6,0,2.7,1,3,2.6h-1
		c-0.2-1.1-1-1.8-2.1-1.8c-0.6,0-1.1,0.2-1.5,0.6c-0.5,0.6-0.6,1.2-0.6,3c0,1.8,0.1,2.4,0.6,3c0.4,0.4,0.9,0.6,1.5,0.6
		c1.1,0,1.9-0.7,2.1-1.8h0.9C31.1,81.4,30,82.3,28.4,82.3z"/>
	<path d="M37,81.6c-0.4,0.4-1,0.7-1.7,0.7c-0.7,0-1.3-0.3-1.7-0.7c-0.6-0.6-0.7-1.5-0.7-2.4c0-0.9,0.1-1.8,0.7-2.4
		c0.4-0.4,1-0.7,1.7-0.7c0.7,0,1.3,0.3,1.7,0.7c0.6,0.6,0.7,1.5,0.7,2.4C37.8,80.2,37.6,81,37,81.6z M36.4,77.4
		c-0.3-0.3-0.7-0.4-1.1-0.4c-0.4,0-0.8,0.2-1.1,0.4c-0.4,0.4-0.5,1.2-0.5,1.9s0,1.4,0.5,1.9c0.3,0.3,0.7,0.4,1.1,0.4
		c0.4,0,0.8-0.2,1.1-0.4c0.4-0.4,0.5-1.2,0.5-1.9S36.8,77.8,36.4,77.4z"/>
	<path d="M47.1,82.2v-3.7c0-1.1-0.6-1.6-1.5-1.6c-0.9,0-1.5,0.6-1.5,1.5v3.8h-0.9v-3.7c0-1.1-0.6-1.6-1.5-1.6
		c-0.9,0-1.5,0.6-1.5,1.6v3.7h-0.9v-6h0.9v0.7c0.4-0.5,1-0.7,1.7-0.7c0.8,0,1.5,0.3,1.8,1c0.5-0.7,1.1-1,2-1c0.6,0,1.2,0.2,1.6,0.6
		c0.4,0.4,0.6,1,0.6,1.7v3.9H47.1z"/>
	<path d="M57.5,82.2v-3.7c0-1.1-0.6-1.6-1.5-1.6c-0.9,0-1.5,0.6-1.5,1.5v3.8h-0.9v-3.7c0-1.1-0.6-1.6-1.5-1.6
		c-0.9,0-1.5,0.6-1.5,1.6v3.7h-0.9v-6h0.9v0.7c0.4-0.5,1-0.7,1.7-0.7c0.8,0,1.5,0.3,1.8,1c0.5-0.7,1.1-1,2-1c0.6,0,1.2,0.2,1.6,0.6
		c0.4,0.4,0.6,1,0.6,1.7v3.9H57.5z"/>
	<path d="M60.9,79.5c0,1.3,0.6,2.1,1.8,2.1c0.7,0,1.1-0.2,1.6-0.7l0.6,0.5c-0.6,0.6-1.2,0.9-2.2,0.9c-1.6,0-2.6-1-2.6-3.1
		c0-1.9,0.9-3.1,2.5-3.1c1.6,0,2.5,1.1,2.5,2.9v0.4H60.9z M63.9,77.8c-0.2-0.6-0.8-0.9-1.4-0.9s-1.2,0.4-1.4,0.9
		c-0.1,0.3-0.2,0.5-0.2,1H64C64,78.3,64,78.1,63.9,77.8z"/>
	<path d="M69.9,77.4c-0.3-0.3-0.6-0.4-1-0.4c-0.9,0-1.4,0.7-1.4,1.6v3.7h-0.9v-6h0.9V77c0.3-0.5,1-0.8,1.7-0.8c0.6,0,1,0.1,1.4,0.6
		L69.9,77.4z"/>
	<path d="M73.8,82.3c-1.5,0-2.7-1-2.7-3.1c0-2.1,1.1-3.1,2.7-3.1c0.8,0,1.4,0.2,2,0.9l-0.6,0.6c-0.5-0.5-0.8-0.7-1.4-0.7
		c-0.6,0-1.1,0.2-1.4,0.7C72.1,78,72,78.5,72,79.2s0.1,1.2,0.4,1.6c0.3,0.5,0.8,0.7,1.4,0.7c0.6,0,0.9-0.2,1.4-0.7l0.6,0.6
		C75.1,82.1,74.6,82.3,73.8,82.3z"/>
	<path d="M77.6,79.5c0,1.3,0.6,2.1,1.8,2.1c0.7,0,1.1-0.2,1.6-0.7l0.6,0.5c-0.6,0.6-1.2,0.9-2.2,0.9c-1.6,0-2.6-1-2.6-3.1
		c0-1.9,0.9-3.1,2.5-3.1c1.6,0,2.5,1.1,2.5,2.9v0.4H77.6z M80.6,77.8c-0.2-0.6-0.8-0.9-1.4-0.9c-0.6,0-1.2,0.4-1.4,0.9
		c-0.1,0.3-0.2,0.5-0.2,1h3.2C80.8,78.3,80.7,78.1,80.6,77.8z"/>
	<path d="M31.5,96.1c-1.3,0-2.2-0.3-3-1.1l0.6-0.6c0.7,0.7,1.4,1,2.4,1c1.3,0,2.1-0.6,2.1-1.6c0-0.5-0.1-0.8-0.4-1.1
		c-0.3-0.2-0.5-0.3-1.1-0.4L31,92c-0.7-0.1-1.2-0.3-1.6-0.7c-0.4-0.4-0.7-0.9-0.7-1.6c0-1.5,1.1-2.5,2.8-2.5c1.1,0,1.8,0.3,2.6,1
		l-0.6,0.6c-0.5-0.5-1.1-0.7-2-0.7c-1.2,0-1.8,0.6-1.8,1.6c0,0.4,0.1,0.8,0.4,1c0.3,0.2,0.7,0.4,1.2,0.5l1,0.1
		c0.8,0.1,1.2,0.3,1.6,0.6c0.5,0.4,0.7,1,0.7,1.7C34.5,95.2,33.3,96.1,31.5,96.1z"/>
	<path d="M37.5,97.5c-0.1,0.3-0.3,0.6-0.4,0.7c-0.3,0.3-0.7,0.4-1.2,0.4h-0.4v-0.8h0.3c0.6,0,0.8-0.2,1-0.7l0.4-1.2L35,90h1l1.7,4.8
		l1.6-4.8h1L37.5,97.5z"/>
	<path d="M43.2,96.1c-1,0-1.8-0.2-2.5-0.9l0.6-0.6c0.5,0.5,1.1,0.7,1.9,0.7c1,0,1.6-0.4,1.6-1.1c0-0.5-0.3-0.8-1-0.9l-1-0.1
		c-1.2-0.1-1.8-0.6-1.8-1.6c0-1.1,0.9-1.8,2.2-1.8c0.9,0,1.6,0.2,2.2,0.6l-0.6,0.6c-0.4-0.3-1-0.5-1.6-0.5c-0.9,0-1.3,0.4-1.3,1
		c0,0.5,0.3,0.8,1.1,0.9l1,0.1c1.1,0.1,1.8,0.5,1.8,1.6C45.7,95.5,44.7,96.1,43.2,96.1z"/>
	<path d="M49,96.1c-1,0-1.5-0.7-1.5-1.6v-3.7h-0.8v-0.7h0.8v-1.9h0.9v1.9h1.3v0.7h-1.3v3.7c0,0.6,0.3,0.9,0.8,0.9h0.5v0.8H49z"/>
	<path d="M51.5,93.3c0,1.3,0.6,2.1,1.8,2.1c0.7,0,1.1-0.2,1.6-0.7l0.6,0.5c-0.6,0.6-1.2,0.9-2.2,0.9c-1.6,0-2.6-1-2.6-3.1
		c0-1.9,0.9-3.1,2.5-3.1c1.6,0,2.5,1.1,2.5,2.9v0.4H51.5z M54.5,91.6c-0.2-0.6-0.8-0.9-1.4-0.9s-1.2,0.4-1.4,0.9
		c-0.1,0.3-0.2,0.5-0.2,1h3.2C54.6,92.1,54.6,92,54.5,91.6z"/>
	<path d="M64.8,96.1v-3.7c0-1.1-0.6-1.6-1.5-1.6c-0.9,0-1.5,0.6-1.5,1.5v3.8H61v-3.7c0-1.1-0.6-1.6-1.5-1.6c-0.9,0-1.5,0.6-1.5,1.6
		v3.7h-0.9v-6H58v0.7c0.4-0.5,1-0.7,1.7-0.7c0.8,0,1.5,0.3,1.8,1c0.5-0.7,1.1-1,2-1c0.6,0,1.2,0.2,1.6,0.6c0.4,0.4,0.6,1,0.6,1.7
		v3.9H64.8z"/>
	<path d="M69.5,96.1c-1,0-1.8-0.2-2.5-0.9l0.6-0.6c0.5,0.5,1.1,0.7,1.9,0.7c1,0,1.6-0.4,1.6-1.1c0-0.5-0.3-0.8-1-0.9l-1-0.1
		c-1.2-0.1-1.8-0.6-1.8-1.6c0-1.1,0.9-1.8,2.2-1.8c0.9,0,1.6,0.2,2.2,0.6l-0.6,0.6c-0.4-0.3-1-0.5-1.6-0.5c-0.9,0-1.3,0.4-1.3,1
		c0,0.5,0.3,0.8,1.1,0.9l1,0.1c1.1,0.1,1.8,0.5,1.8,1.6C72,95.5,71,96.1,69.5,96.1z"/>
</g>
<g>
	<path d="M48.7,41h-9.2l-1.7-9.9h21.8L59,33.6c-0.1,0.3,0.1,0.7,0.4,0.7c0.3,0.1,0.7-0.1,0.7-0.4l0.7-2.8h0.6c0.3,0,0.6-0.3,0.6-0.6
		v-3.3c0-0.3-0.3-0.6-0.6-0.6H35.9c-0.3,0-0.6,0.3-0.6,0.6v3.3c0,0.3,0.3,0.6,0.6,0.6h0.7l1.8,10.6c0.1,0.3,0.3,0.5,0.6,0.5h9.7
		c0.3,0,0.6-0.3,0.6-0.6C49.4,41.3,49.1,41,48.7,41z M36.5,27.8h24.4v2.1h-0.5H37.1h-0.6V27.8z"/>
	<path d="M38.9,25c0.2,0,0.3-0.1,0.4-0.2l6.5-6.5c0.2-0.2,0.2-0.6,0-0.9s-0.6-0.2-0.9,0L38.4,24c-0.2,0.2-0.2,0.6,0,0.9
		C38.6,25,38.7,25,38.9,25z"/>
	<path d="M58.1,24.9c0.1,0.1,0.3,0.2,0.4,0.2c0.2,0,0.3-0.1,0.4-0.2c0.2-0.2,0.2-0.6,0-0.9l-6.5-6.5c-0.2-0.2-0.6-0.2-0.9,0
		c-0.2,0.2-0.2,0.6,0,0.9L58.1,24.9z"/>
	<path d="M61.7,42.4h-3.4V39c0-0.2-0.1-0.3-0.3-0.3c-0.2,0-0.3,0.1-0.3,0.3v3.4h-3.4c-0.2,0-0.3,0.1-0.3,0.3c0,0.2,0.1,0.3,0.3,0.3
		h3.4v3.4c0,0.2,0.1,0.3,0.3,0.3c0.2,0,0.3-0.1,0.3-0.3V43h3.4c0.2,0,0.3-0.1,0.3-0.3C62,42.5,61.9,42.4,61.7,42.4z"/>
	<path d="M58.2,35.8c-3.8,0-6.9,3.1-6.9,6.9c0,3.8,3.1,6.9,6.9,6.9c0,0,0,0,0,0c3.8,0,6.9-3.1,6.9-6.9C65,38.9,61.9,35.8,58.2,35.8z
		 M58.2,48.3c-3.1,0-5.6-2.5-5.6-5.6c0-3.1,2.5-5.6,5.6-5.6c3.1,0,5.6,2.5,5.6,5.6C63.8,45.8,61.3,48.3,58.2,48.3z"/>
</g>
</svg>
