<?xml version="1.0" encoding="utf-8"?>
<!-- Generator: Adobe Illustrator 18.1.1, SVG Export Plug-In . SVG Version: 6.00 Build 0)  -->
<svg version="1.1" id="Layer_1" xmlns="http://www.w3.org/2000/svg" xmlns:xlink="http://www.w3.org/1999/xlink" x="0px" y="0px"
	 viewBox="0 0 100 100" enable-background="new 0 0 100 100" xml:space="preserve">
<path fill="#00BCE4" d="M50.9,62.9c-16.7,0-30.3-13.6-30.3-30.3c0-16.7,13.6-30.3,30.3-30.3s30.3,13.6,30.3,30.3
	C81.2,49.3,67.6,62.9,50.9,62.9z M50.9,4.3C35.3,4.3,22.6,17,22.6,32.6s12.7,28.3,28.3,28.3s28.3-12.7,28.3-28.3S66.5,4.3,50.9,4.3z
	"/>
<g>
	<path d="M21.7,78.3h-2.3v3.6h-0.9v-8.8h3.3c1.6,0,2.7,1,2.7,2.6S23.3,78.3,21.7,78.3z M21.6,73.9h-2.2v3.5h2.2
		c1.1,0,1.9-0.6,1.9-1.7S22.7,73.9,21.6,73.9z"/>
	<path d="M29.6,81.3c-0.4,0.4-1,0.7-1.7,0.7c-0.7,0-1.3-0.3-1.7-0.7c-0.6-0.6-0.7-1.5-0.7-2.4c0-0.9,0.1-1.8,0.7-2.4
		c0.4-0.4,1-0.7,1.7-0.7c0.7,0,1.3,0.3,1.7,0.7c0.6,0.6,0.7,1.5,0.7,2.4C30.4,79.8,30.3,80.6,29.6,81.3z M29,77
		c-0.3-0.3-0.7-0.4-1.1-0.4c-0.4,0-0.8,0.2-1.1,0.4c-0.4,0.4-0.5,1.2-0.5,1.9c0,0.7,0,1.4,0.5,1.9c0.3,0.3,0.7,0.4,1.1,0.4
		c0.4,0,0.8-0.2,1.1-0.4c0.4-0.4,0.5-1.2,0.5-1.9C29.5,78.2,29.5,77.4,29,77z"/>
	<path d="M31.9,74.1v-1h1v1H31.9z M32,81.9v-6.1h0.9v6.1H32z"/>
	<path d="M38.6,81.9v-3.7c0-1.1-0.6-1.6-1.5-1.6c-0.9,0-1.5,0.6-1.5,1.6v3.7h-0.9v-6.1h0.9v0.7c0.4-0.5,1-0.7,1.7-0.7
		c0.7,0,1.2,0.2,1.6,0.6c0.4,0.4,0.6,1,0.6,1.7v3.9H38.6z"/>
	<path d="M43,81.9c-1,0-1.6-0.7-1.6-1.6v-3.7h-0.8v-0.7h0.8V74h0.9v1.9h1.3v0.7h-1.3v3.7c0,0.6,0.3,0.9,0.8,0.9h0.5v0.8H43z"/>
	<path d="M52.4,81.3c-0.4,0.4-1,0.7-1.7,0.7c-0.7,0-1.3-0.3-1.7-0.7c-0.6-0.6-0.7-1.5-0.7-2.4c0-0.9,0.1-1.8,0.7-2.4
		c0.4-0.4,1-0.7,1.7-0.7c0.7,0,1.3,0.3,1.7,0.7c0.6,0.6,0.7,1.5,0.7,2.4C53.1,79.8,53,80.6,52.4,81.3z M51.7,77
		c-0.3-0.3-0.7-0.4-1.1-0.4c-0.4,0-0.8,0.2-1.1,0.4c-0.4,0.4-0.5,1.2-0.5,1.9c0,0.7,0,1.4,0.5,1.9c0.3,0.3,0.7,0.4,1.1,0.4
		c0.4,0,0.8-0.2,1.1-0.4c0.4-0.4,0.5-1.2,0.5-1.9C52.2,78.2,52.2,77.4,51.7,77z"/>
	<path d="M55.7,76.5v5.3h-0.9v-5.3h-0.8v-0.7h0.8v-1.1c0-0.9,0.5-1.6,1.5-1.6H57v0.8h-0.5c-0.6,0-0.8,0.3-0.8,0.9v1.1H57v0.7H55.7z"
		/>
	<path d="M64,81.9c-1.3,0-2.2-0.3-3-1.2l0.6-0.6c0.7,0.7,1.4,1,2.4,1c1.3,0,2.1-0.6,2.1-1.6c0-0.5-0.1-0.8-0.4-1.1s-0.5-0.3-1.1-0.4
		l-1-0.2c-0.7-0.1-1.2-0.3-1.6-0.7c-0.4-0.4-0.7-0.9-0.7-1.6c0-1.5,1.1-2.5,2.8-2.5c1.1,0,1.9,0.3,2.6,1L66,74.6
		c-0.5-0.5-1.1-0.8-2-0.8c-1.2,0-1.8,0.7-1.8,1.6c0,0.4,0.1,0.8,0.4,1c0.3,0.2,0.7,0.4,1.2,0.5l1,0.1c0.8,0.1,1.2,0.3,1.6,0.6
		c0.5,0.4,0.7,1,0.7,1.7C67,81,65.8,81.9,64,81.9z"/>
	<path d="M72.2,81.9v-0.6c-0.5,0.5-0.9,0.7-1.7,0.7c-0.8,0-1.3-0.2-1.7-0.6c-0.3-0.3-0.5-0.8-0.5-1.2c0-1.1,0.7-1.7,2.1-1.7h1.8
		v-0.6c0-0.9-0.4-1.3-1.6-1.3c-0.8,0-1.2,0.2-1.5,0.7l-0.6-0.6c0.5-0.7,1.2-0.9,2.1-0.9c1.6,0,2.4,0.7,2.4,2v4.1H72.2z M72.2,79.1
		h-1.7c-0.9,0-1.4,0.4-1.4,1.1c0,0.7,0.4,1,1.4,1c0.5,0,1,0,1.4-0.4c0.2-0.2,0.3-0.5,0.3-1V79.1z"/>
	<path d="M76.5,81.9c-1.1,0-1.5-0.7-1.5-1.6v-7.2h0.9v7.1c0,0.6,0.2,0.9,0.8,0.9h0.5v0.8H76.5z"/>
	<path d="M78.9,79.1c0,1.3,0.6,2.1,1.8,2.1c0.7,0,1.1-0.2,1.6-0.7l0.6,0.5c-0.6,0.6-1.2,0.9-2.2,0.9c-1.6,0-2.6-1-2.6-3.1
		c0-2,0.9-3.1,2.5-3.1c1.6,0,2.5,1.1,2.5,2.9v0.4H78.9z M81.9,77.4c-0.2-0.6-0.8-0.9-1.4-0.9s-1.2,0.4-1.4,0.9
		c-0.1,0.3-0.2,0.5-0.2,1h3.2C82.1,77.9,82,77.7,81.9,77.4z"/>
</g>
<g>
	<path d="M59.8,18.6c-0.2-0.1-0.5-0.1-0.7,0.1l-1.8,1.7l-1.7-1.7c-0.2-0.2-0.6-0.2-0.8,0l-2.2,1.8l-1.7-1.7
		c-0.1-0.1-0.3-0.2-0.4-0.2c0,0,0,0,0,0c-0.2,0-0.3,0.1-0.4,0.2l-1.7,1.7l-1.8-1.7c-0.2-0.2-0.6-0.2-0.8,0l-1.9,1.7l-2-1.7
		c-0.2-0.2-0.4-0.2-0.7-0.1c-0.2,0.1-0.4,0.3-0.4,0.6v26.7c0,0.2,0.2,0.5,0.4,0.6c0.1,0,0.2,0,0.2,0c0.2,0,0.3-0.1,0.4-0.2l1.7-1.7
		l1.8,1.7c0.2,0.2,0.6,0.2,0.8,0l1.9-1.7l1.9,1.7c0.2,0.2,0.6,0.2,0.8,0l1.9-1.7l2,1.7c0.2,0.2,0.6,0.2,0.8,0l1.7-1.7l2,1.7
		c0.2,0.2,0.4,0.2,0.7,0.1c0.2-0.1,0.4-0.3,0.4-0.6V19.2C60.2,18.9,60,18.7,59.8,18.6z M58.9,44.6l-1.4-1.2c-0.2-0.2-0.6-0.2-0.8,0
		L55,45.1l-2-1.7c-0.2-0.2-0.6-0.2-0.8,0l-1.9,1.7l-1.9-1.7c-0.2-0.2-0.6-0.2-0.8,0l-1.9,1.7l-1.9-1.7c-0.1-0.1-0.3-0.2-0.4-0.2
		c-0.2,0-0.3,0.1-0.4,0.2L42,44.4V20.5l1.4,1.2c0.2,0.2,0.6,0.2,0.8,0l1.9-1.7l1.9,1.7c0.2,0.2,0.6,0.2,0.9,0l1.7-1.7l1.7,1.7
		c0.2,0.2,0.6,0.2,0.8,0l2.2-1.8l1.7,1.7c0.2,0.2,0.6,0.2,0.9,0l1.2-1.1V44.6z"/>
	<path d="M43.7,29.3h4.7c0.2,0,0.3-0.1,0.3-0.3c0-0.2-0.1-0.3-0.3-0.3h-4.7c-0.2,0-0.3,0.1-0.3,0.3C43.3,29.1,43.5,29.3,43.7,29.3z"
		/>
	<path d="M50.3,33.3h-6.7c-0.2,0-0.3,0.1-0.3,0.3s0.1,0.3,0.3,0.3h6.7c0.2,0,0.3-0.1,0.3-0.3S50.5,33.3,50.3,33.3z"/>
	<path d="M48.4,38h-4.7c-0.2,0-0.3,0.1-0.3,0.3s0.1,0.3,0.3,0.3h4.7c0.2,0,0.3-0.1,0.3-0.3S48.5,38,48.4,38z"/>
	<path d="M53.3,31.8c0-0.5,0.4-0.9,1.3-0.9c0.7,0,1.3,0.3,1.6,0.6c0.2,0.2,0.3,0.3,0.5,0.3c0.3,0,0.6-0.3,0.6-0.6
		c0-0.1,0-0.3-0.1-0.4c-0.4-0.6-1.2-0.9-2.1-1V29c0-0.3-0.2-0.5-0.5-0.5c-0.3,0-0.5,0.2-0.5,0.5v0.7c-1.5,0.2-2.1,1.1-2.1,2.1
		c0,2.8,4.2,2,4.2,3.7c0,0.7-0.5,1.1-1.6,1.1c-0.8,0-1.4-0.4-1.9-0.9c-0.1-0.1-0.3-0.3-0.5-0.3c-0.3,0-0.6,0.3-0.6,0.6
		c0,0.1,0,0.2,0.1,0.3c0.4,0.6,1.3,1.2,2.4,1.4v0.6c0,0.3,0.2,0.5,0.5,0.5c0.3,0,0.5-0.2,0.5-0.5v-0.6c1.6-0.2,2.4-1,2.4-2.3
		C57.5,32.6,53.3,33.3,53.3,31.8z"/>
</g>
</svg>
