<?xml version="1.0" encoding="utf-8"?>
<!-- Generator: Adobe Illustrator 18.1.1, SVG Export Plug-In . SVG Version: 6.00 Build 0)  -->
<svg version="1.1" id="Layer_1" xmlns="http://www.w3.org/2000/svg" xmlns:xlink="http://www.w3.org/1999/xlink" x="0px" y="0px"
	 viewBox="0 0 100 100" enable-background="new 0 0 100 100" xml:space="preserve">
<g>
	<path fill="#00BCE4" d="M49.9,62.5c-16.6,0-30.1-13.5-30.1-30.1c0-16.6,13.5-30.1,30.1-30.1S80,15.8,80,32.4
		C80,49,66.5,62.5,49.9,62.5z M49.9,4.3c-15.5,0-28.1,12.6-28.1,28.1s12.6,28.1,28.1,28.1S78,47.9,78,32.4S65.4,4.3,49.9,4.3z"/>
</g>
<g>
	<path d="M40.9,82.3c-0.9,0-1.6-0.3-2.2-0.9c-0.8-0.8-0.8-1.7-0.8-3.5s0-2.7,0.8-3.5c0.6-0.6,1.4-0.9,2.2-0.9c1.6,0,2.7,1,3,2.6h-1
		c-0.2-1.1-1-1.8-2.1-1.8c-0.6,0-1.1,0.2-1.5,0.6c-0.6,0.6-0.6,1.2-0.6,3c0,1.8,0.1,2.4,0.6,3c0.4,0.4,0.9,0.6,1.5,0.6
		c1.1,0,1.9-0.7,2.1-1.8h0.9C43.6,81.4,42.4,82.3,40.9,82.3z"/>
	<path d="M50.6,82.2l-2-3.9h-2.1v3.9h-0.9v-8.7h3.3c1.5,0,2.6,0.9,2.6,2.4c0,1.3-0.8,2.1-1.9,2.3l2.1,4H50.6z M48.8,74.4h-2.3v3.2
		h2.3c1,0,1.7-0.5,1.7-1.6S49.9,74.4,48.8,74.4z"/>
	<path d="M59.9,82.2v-6.6l-2.4,5.2h-0.8l-2.4-5.2v6.6h-0.9v-8.7h0.9l2.8,6.2l2.8-6.2h0.9v8.7H59.9z"/>
</g>
<g>
	<path d="M63.7,42c-0.1-0.1-0.3-0.1-0.4,0l-3.8,3.8L57.6,44c-0.1-0.1-0.3-0.1-0.4,0c-0.1,0.1-0.1,0.3,0,0.4l2,2
		c0.1,0.1,0.1,0.1,0.2,0.1c0,0,0,0,0.1,0c0,0,0,0,0,0c0.1,0,0.2,0,0.2-0.1l4-4C63.8,42.3,63.8,42.1,63.7,42z"/>
	<path d="M42.7,33.9c1.6,1.6,3.5,2.4,5.5,2.4c2,0,3.9-0.8,5.5-2.4c1.2,0.9,2.3,2.1,3.2,3.5c0.2,0.3,0.6,0.4,0.8,0.2
		c0.3-0.2,0.4-0.6,0.2-0.8c-1.1-1.7-2.4-3.2-4-4.2c-0.2-0.2-0.6-0.1-0.8,0.1c-1.5,1.6-3.2,2.4-5,2.4c-1.8,0-3.5-0.8-5-2.4
		c-0.2-0.2-0.5-0.3-0.8-0.1c-3.9,2.6-6.4,7.7-6.4,13.2c0,0.2,0.1,0.3,0.2,0.4c0.1,0.1,0.3,0.2,0.4,0.2h16.6c0.3,0,0.6-0.3,0.6-0.6
		s-0.3-0.6-0.6-0.6h-16C37.5,40.5,39.5,36.2,42.7,33.9z"/>
	<path d="M42.2,28c1.1,3.4,3.4,5.4,6.1,5.4c2.8,0,5.1-2,6.2-5.5c0.1-0.2,0.2-0.4,0.3-0.6c0.3-0.5,0.8-1.1,0.8-2.8
		c0-6.1-3.8-8.9-7.3-8.9c-3.7,0-7.4,2.7-7.4,8.9c0,1.6,0.5,2.3,0.9,2.8C42,27.6,42.1,27.7,42.2,28z M54.4,24.5
		c0,1.3-0.3,1.7-0.6,2.1c-0.2,0.2-0.4,0.5-0.5,0.9c-0.7,2.3-2.1,3.8-3.7,4.4c-0.4,0.1-0.9,0.2-1.3,0.2c-0.4,0-0.9-0.1-1.3-0.2
		c-1.6-0.5-2.9-2.1-3.7-4.3c-0.1-0.2-0.1-0.4-0.2-0.5c-0.1-0.2-0.2-0.3-0.3-0.4c0,0,0,0,0,0c-0.3-0.4-0.6-0.9-0.6-2.1
		c0-0.4,0-0.9,0.1-1.3c0.2,0,0.3,0.1,0.5,0.2c0.4,0.1,0.7,0.2,0.9,0.2c0,0,0,0,0,0c0.3,0,0.4-0.2,0.4-0.2c0.1-0.3,0.1-0.6,0.1-0.9
		c0-0.6,0-0.8,0.5-1c0.3-0.1,0.5-0.1,0.7-0.1c0.5,0,0.9,0.2,1.3,0.5c0.5,0.3,1,0.6,1.7,0.6c0.8,0,1.3-0.3,1.8-0.5
		c0.5-0.2,0.8-0.4,1.4-0.4c0.2,0,0.4,0,0.5,0.1c0.4,0.1,0.4,0.3,0.4,1c0,0.3,0,0.6,0.1,0.9c0,0.1,0.1,0.2,0.4,0.2
		c0.2,0,0.5-0.1,0.8-0.2c0.1-0.1,0.3-0.1,0.4-0.2C54.3,23.6,54.4,24,54.4,24.5z M48.3,16.9c2.6,0,5.2,1.8,5.9,5.7
		c-0.2,0-0.4,0.1-0.6,0.2c-0.2,0.1-0.4,0.1-0.5,0.2c0-0.2,0-0.3,0-0.5c0-0.6-0.1-1.3-0.9-1.5c-0.2-0.1-0.5-0.1-0.7-0.1
		c-0.7,0-1.2,0.3-1.7,0.5c-0.5,0.2-0.9,0.5-1.5,0.5c-0.6,0-1-0.2-1.4-0.5c-0.5-0.3-0.9-0.6-1.6-0.6c-0.3,0-0.6,0.1-0.9,0.2
		c-0.8,0.3-0.9,1-0.9,1.6c0,0.2,0,0.4,0,0.6c-0.1,0-0.4-0.1-0.6-0.2c-0.2-0.1-0.4-0.1-0.6-0.2C42.9,19.5,44.8,16.9,48.3,16.9z"/>
	<path d="M64.5,40.1c-1-1-2.4-1.6-3.8-1.6s-2.8,0.6-3.8,1.6c-1,1-1.6,2.4-1.6,3.8s0.6,2.8,1.6,3.8c1,1,2.4,1.6,3.9,1.6
		s2.8-0.6,3.8-1.6c1-1,1.6-2.4,1.6-3.8C66.1,42.5,65.5,41.1,64.5,40.1z M63.6,46.9c-0.8,0.8-1.9,1.2-3,1.2s-2.2-0.4-3-1.2
		c-0.8-0.8-1.2-1.9-1.2-3c0-1.1,0.4-2.2,1.2-3c0.8-0.8,1.9-1.2,3-1.2c1.1,0,2.2,0.4,3,1.2c0.8,0.8,1.2,1.9,1.2,3
		C64.9,45.1,64.4,46.1,63.6,46.9z"/>
</g>
</svg>
