<?xml version="1.0" encoding="utf-8"?>
<!-- Generator: Adobe Illustrator 18.1.1, SVG Export Plug-In . SVG Version: 6.00 Build 0)  -->
<svg version="1.1" id="Layer_1" xmlns="http://www.w3.org/2000/svg" xmlns:xlink="http://www.w3.org/1999/xlink" x="0px" y="0px"
	 viewBox="0 0 100 100" enable-background="new 0 0 100 100" xml:space="preserve">
<g>
	<path d="M77.1,72.8H22.9c-3,0-5.4-2.4-5.4-5.4V30.8c0-3,2.4-5.4,5.4-5.4h54.2c3,0,5.4,2.4,5.4,5.4v36.5
		C82.5,70.3,80.1,72.8,77.1,72.8z M22.9,26.7c-2.3,0-4.1,1.8-4.1,4.1v36.5c0,2.3,1.8,4.1,4.1,4.1h54.2c2.3,0,4.1-1.8,4.1-4.1V30.8
		c0-2.3-1.8-4.1-4.1-4.1H22.9z"/>
	<path d="M74.7,68.6H27.6V29.6h47.1V68.6z M28.9,67.3h44.5V30.9H28.9V67.3z"/>
	<path d="M23.5,51.3c-1.2,0-2.2-1-2.2-2.2s1-2.2,2.2-2.2s2.2,1,2.2,2.2S24.7,51.3,23.5,51.3z M23.5,48.2c-0.5,0-0.9,0.4-0.9,0.9
		c0,0.5,0.4,0.9,0.9,0.9c0.5,0,0.9-0.4,0.9-0.9C24.4,48.6,24,48.2,23.5,48.2z"/>
</g>
<g>
	<path d="M38.1,55.6V42.2h2v13.4H38.1z"/>
	<path d="M48,55.7c-1.4,0-2.6-0.5-3.5-1.4c-1.3-1.3-1.3-2.8-1.3-5.4c0-2.6,0-4.1,1.3-5.4c0.9-0.9,2.1-1.4,3.5-1.4
		c2.5,0,4.3,1.5,4.8,4.1h-2.1c-0.3-1.4-1.2-2.3-2.7-2.3c-0.8,0-1.5,0.3-2,0.8c-0.7,0.7-0.8,1.5-0.8,4.2c0,2.7,0.2,3.5,0.8,4.2
		c0.5,0.5,1.2,0.8,2,0.8c1.5,0,2.4-0.9,2.7-2.3h2.1C52.4,54.2,50.5,55.7,48,55.7z"/>
	<path d="M55.5,55.6V42.2h8.6V44h-6.5v3.9h5.6v1.8h-5.6v4h6.5v1.8H55.5z"/>
</g>
<path fill="#00BCE4" d="M50,99.8C22.5,99.8,0.2,77.5,0.2,50S22.5,0.2,50,0.2S99.8,22.5,99.8,50S77.5,99.8,50,99.8z M50,3.9
	C24.6,3.9,3.9,24.6,3.9,50c0,25.4,20.7,46.1,46.1,46.1c25.4,0,46.1-20.7,46.1-46.1C96.1,24.6,75.4,3.9,50,3.9z"/>
</svg>
