<?xml version="1.0" encoding="utf-8"?>
<!-- Generator: Adobe Illustrator 18.1.1, SVG Export Plug-In . SVG Version: 6.00 Build 0)  -->
<svg version="1.1" id="Layer_1" xmlns="http://www.w3.org/2000/svg" xmlns:xlink="http://www.w3.org/1999/xlink" x="0px" y="0px"
	 viewBox="0 0 144 144" enable-background="new 0 0 144 144" xml:space="preserve">
<path fill="#00BCE4" d="M71.9,142c-38.3,0-69.4-31.1-69.4-69.4c0-38.3,31.1-69.4,69.4-69.4c38.3,0,69.4,31.1,69.4,69.4
	C141.2,110.9,110.1,142,71.9,142z M71.9,6.2C35.3,6.2,5.5,36,5.5,72.6c0,36.6,29.8,66.4,66.4,66.4c36.6,0,66.4-29.8,66.4-66.4
	C138.2,36,108.5,6.2,71.9,6.2z"/>
<g>
	<path fill="#00BCE4" d="M99.7,122.9H44.3c-4.8,0-8.7-3.9-8.7-8.7V31.8c0-4.8,3.9-8.7,8.7-8.7h55.5c4.8,0,8.7,3.9,8.7,8.7v82.3
		C108.5,119,104.5,122.9,99.7,122.9z M44.3,26.1c-3.2,0-5.7,2.6-5.7,5.7v82.3c0,3.2,2.6,5.7,5.7,5.7h55.5c3.2,0,5.7-2.6,5.7-5.7
		V31.8c0-3.2-2.6-5.7-5.7-5.7H44.3z"/>
	<path fill="#00BCE4" d="M102.2,107.5H41.8V35h60.3V107.5z M44.8,104.5h54.3V38H44.8V104.5z"/>
	<path fill="#00BCE4" d="M72,117.1c-2.1,0-3.9-1.7-3.9-3.9c0-2.1,1.7-3.9,3.9-3.9s3.9,1.7,3.9,3.9C75.9,115.4,74.1,117.1,72,117.1z
		 M72,112.4c-0.5,0-0.9,0.4-0.9,0.9c0,0.5,0.4,0.9,0.9,0.9s0.9-0.4,0.9-0.9C72.9,112.8,72.5,112.4,72,112.4z"/>
</g>
</svg>
