<?xml version="1.0" standalone="no"?>
<!DOCTYPE svg PUBLIC "-//W3C//DTD SVG 1.1//EN" "http://www.w3.org/Graphics/SVG/1.1/DTD/svg11.dtd">
<svg xmlns="http://www.w3.org/2000/svg">
<metadata>Copyright (C) 2014 by original authors @ fontello.com</metadata>
<defs>
<font id="icons" horiz-adv-x="1000" >
<font-face font-family="icons" font-weight="400" font-stretch="normal" units-per-em="1000" ascent="850" descent="-150" />
<missing-glyph horiz-adv-x="1000" />
<glyph glyph-name="icons_--copy" unicode="&#xe800;" d="m566 551c-19 8-36 16-52 24-40 20-77 30-112 30-70 0-119-40-150-71l-25-25-17-17-25-25-38-39-43-42c-79-80-92-161-41-263 8-15 16-33 25-51 46-99 94-202 172-202 3 0 5 0 7 0 81 7 104 111 124 203 4 14 7 28 10 41 5 22 16 35 45 64l4 5 3 2 3 3 3 4c30 29 43 40 65 45 12 3 26 6 41 10 92 20 196 43 202 124 7 82-99 132-201 180z m154-176c-4-57-132-74-209-93-33-9-54-26-85-57-2-3-4-5-6-7-2-2-5-4-7-6-31-31-48-52-57-86-19-76-36-204-93-209-1 0-2 0-3 0-61 0-112 138-157 228-45 91-26 151 33 209 11 12 25 26 42 43 18 17 39 38 63 63 17 17 31 31 43 42 36 37 73 58 117 58 27 0 57-8 92-25 91-46 232-98 227-160z m-344-22h46v46h-46v-46z m0 69h46v46h-46v-46z m69 0h46v46h-46v-46z m0-69h46v46h-46v-46z m-176-138l18 18c9 8 9 22 0 31-9 8-23 8-31 0l-18-18-17 18c-9 8-23 8-31 0-9-9-9-23 0-31l17-18-17-17c-9-9-9-23 0-31 8-9 22-9 31 0l17 17 18-18c9-9 23-9 31 0 9 9 9 23 0 31l-18 18z" horiz-adv-x="1000" />
<glyph glyph-name="icons-01" unicode="&#xe801;" d="m974 107l-474 435-474-435-26 28 500 459 500-459-26-28z" horiz-adv-x="1000" />
<glyph glyph-name="icons-02" unicode="&#xe802;" d="m285 850l459-500-459-500-29 26 435 474-435 474 29 26z" horiz-adv-x="1000" />
<glyph glyph-name="icons-03" unicode="&#xe803;" d="m834 34l-334 299-334-299-166 185 500 447 500-447-166-185z" horiz-adv-x="1000" />
<glyph glyph-name="icons-04" unicode="&#xe804;" d="m184 16l299 334-299 334 184 166 448-500-448-500-184 166z" horiz-adv-x="1000" />
<glyph glyph-name="icons-05" unicode="&#xe805;" d="m445 81v237h-80v92h80v68c0 79 48 122 119 122 33 0 62-3 71-4v-82h-49c-38 0-46-18-46-45v-59h92l-12-92h-80v-237h-95z m555 269c0 276-224 500-500 500-276 0-500-224-500-500 0-276 224-500 500-500 276 0 500 224 500 500z m-66 0c0-239-195-434-434-434-239 0-434 195-434 434 0 239 195 434 434 434 239 0 434-195 434-434z" horiz-adv-x="1000" />
<glyph glyph-name="icons-06" unicode="&#xe806;" d="m365 152h-99v319h99v-319z m8 421c0 32-26 57-57 57-32 0-58-25-58-57 0-32 26-58 58-58 31 0 57 26 57 58z m365-246c0 86-19 152-120 152-48 0-80-26-94-51h-1v43h-95v-319h99v158c0 41 8 82 60 82 51 0 51-48 51-85v-155h100v175z m254 23c0 276-224 500-500 500-276 0-500-224-500-500s224-500 500-500c276 0 500 224 500 500z m-66 0c0-239-195-434-434-434-239 0-434 195-434 434 0 239 195 434 434 434 239 0 434-195 434-434z" horiz-adv-x="1000" />
<glyph glyph-name="icons-07" unicode="&#xe807;" d="m730 445c1-25-4-48-13-70-15-39-37-74-61-108-33-46-68-91-112-128-22-19-45-34-73-40-20-4-37 2-51 15-20 20-31 45-39 71-14 49-27 99-41 148-4 17-10 33-18 48-1 3-3 6-5 9-12 17-20 19-38 8-6-4-12-8-18-12-4-3-6-3-8 1-6 7-12 14-17 21-3 3-3 5 0 8 35 30 67 63 105 90 14 9 28 17 46 16 18 0 32-8 42-22 12-16 17-35 21-55 7-45 13-90 24-135 4-14 9-29 16-43 9-16 19-18 32-4 28 29 48 63 62 101 3 9 3 18 3 26-1 17-11 28-28 29-12 1-23-1-34-5-6-2-8-1-6 5 11 32 26 62 53 83 32 25 69 31 108 22 30-7 42-30 48-58 1-7 1-14 2-21z m270-95c0 276-224 500-500 500s-500-224-500-500 224-500 500-500 500 224 500 500z m-66 0c0-239-195-434-434-434s-434 195-434 434c0 239 195 434 434 434s434-195 434-434z" horiz-adv-x="1000" />
<glyph glyph-name="icons-08" unicode="&#xe808;" d="m666 383h-37c3-11 4-22 4-33 0-72-58-131-131-131-72 0-131 59-131 131 0 11 2 22 4 33h-37v-180c0-9 8-17 17-17h295c9 0 16 8 16 17v180z m0 114c0 10-7 17-16 17h-50c-9 0-16-7-16-17v-49c0-9 7-16 16-16h50c9 0 16 7 16 16v49z m-164-65c-45 0-82-37-82-82 0-45 37-82 82-82 45 0 82 37 82 82 0 45-37 82-82 82m164-295h-328c-27 0-49 22-49 49v328c0 27 22 49 49 49h328c27 0 49-22 49-49v-328c0-27-22-49-49-49m-166-287c-276 0-500 224-500 500s224 500 500 500c276 0 500-224 500-500s-224-500-500-500z m0 934c-239 0-434-195-434-434 0-239 195-434 434-434 239 0 434 195 434 434 0 239-195 434-434 434z" horiz-adv-x="1000" />
<glyph glyph-name="icons-09" unicode="&#xe809;" d="m647 575c43 0 78-35 78-77v-295c0-42-35-77-78-77h-294c-43 0-77 35-77 77v295c0 42 34 77 77 77h294m0 21h-294c-54 0-98-44-98-98v-295c0-54 44-97 98-97h294c54 0 98 43 98 97v295c0 54-44 98-98 98l0 0z m-16-47h-261c-38 0-69-30-69-68v-261c0-38 31-68 69-68h261c37 0 68 30 68 68v261c0 38-31 68-68 68z m-215-261c-34 0-63 28-63 63 0 34 29 62 63 62 35 0 63-28 63-62 0-35-28-63-63-63z m168 0c-35 0-63 28-63 63 0 34 28 62 63 62 34 0 63-28 63-62 0-35-29-63-63-63z m-84-438c-276 0-500 224-500 500 0 276 224 500 500 500 276 0 500-224 500-500 0-276-224-500-500-500z m0 934c-239 0-434-195-434-434 0-239 195-434 434-434 239 0 434 195 434 434 0 239-195 434-434 434z" horiz-adv-x="1000" />
<glyph glyph-name="icons-10" unicode="&#xe80a;" d="m718 413c0-119-66-208-164-208-33 0-64 17-74 38 0 0-18-71-22-84-13-48-52-96-55-100-2-3-6-2-7 2-1 6-10 66 1 116 6 24 39 166 39 166s-9 19-9 48c0 45 26 79 58 79 28 0 41-21 41-46 0-28-17-70-27-108-7-33 17-59 48-59 58 0 97 74 97 162 0 67-45 117-127 117-92 0-150-69-150-146 0-27 8-45 21-60 5-6 6-9 4-17-2-5-5-19-6-24-2-8-9-11-16-8-42 18-62 64-62 116 0 87 73 191 218 191 116 0 192-84 192-175z m282-63c0 276-224 500-500 500-276 0-500-224-500-500 0-276 224-500 500-500 276 0 500 224 500 500z m-66 0c0-239-195-434-434-434-239 0-434 195-434 434 0 239 195 434 434 434 239 0 434-195 434-434z" horiz-adv-x="1000" />
<glyph glyph-name="icons-11" unicode="&#xe80b;" d="m26 594l474-435 474 435 26-29-500-459-500 459 26 29z" horiz-adv-x="1000" />
<glyph glyph-name="icons-12" unicode="&#xe80c;" d="m715-150l-459 500 459 500 29-26-435-474 435-474-29-26z" horiz-adv-x="1000" />
<glyph glyph-name="icons-13" unicode="&#xe80d;" d="m166 666l334-299 334 299 166-184-500-448-500 448 166 184z" horiz-adv-x="1000" />
<glyph glyph-name="icons-14" unicode="&#xe80e;" d="m816 684l-299-334 299-334-184-166-448 500 448 500 184-166z" horiz-adv-x="1000" />
<glyph glyph-name="icons-15" unicode="&#xe80f;" d="m128 456c0 192 0 227-3 268-2 43-13 63-54 72-10 2-32 4-50 4-13 0-21 2-21 11 0 9 9 11 28 11 67 0 146-4 173-4 43 0 139 4 178 4 79 0 164-7 232-54 35-24 86-88 86-173 0-93-39-179-167-283 113-141 200-254 274-332 71-73 123-82 142-86 14-2 25-4 35-4 10 0 15-3 15-10 0-10-9-12-24-12h-120c-70 0-102 6-135 24-54 29-102 88-173 185-50 70-108 156-125 175-6 7-14 8-23 8l-109 3c-7 0-10-3-10-10v-18c0-117 0-217 6-270 4-37 11-65 49-70 19-2 47-5 62-5 10 0 15-4 15-10 0-9-9-12-25-12-73 0-167 3-186 3-24 0-103-3-154-3-16 0-25 3-25 12 0 6 5 10 20 10 19 0 34 3 46 5 25 5 31 33 36 70 7 53 7 153 7 269v222z m149-100c0-13 2-19 11-22 26-9 64-13 96-13 50 0 67 5 89 21 38 28 75 86 75 190 0 179-119 231-193 231-32 0-54-1-67-5-9-3-12-8-12-18v-384z m645-11c0 216 143 495 522 495 314 0 510-183 510-472s-202-518-523-518c-362 0-509 272-509 495z m855-24c0 283-163 458-370 458-145 0-311-80-311-395 0-262 146-471 388-471 88 0 293 43 293 408z m327-438c-20 9-24 15-24 43 0 69 5 145 6 165 2 19 6 33 16 33 11 0 12-11 12-21 0-17 5-43 12-65 27-93 102-127 180-127 114 0 169 77 169 144 0 61-18 120-123 202l-58 45c-139 109-187 197-187 299 0 139 116 239 291 239 82 0 135-13 168-22 12-2 18-6 18-15 0-16-5-53-5-151 0-28-4-38-14-38-9 0-13 7-13 23 0 11-6 50-32 83-19 24-56 62-138 62-93 0-150-54-150-130 0-58 29-102 134-182l35-27c153-114 207-202 207-321 0-74-28-161-119-220-63-41-134-52-200-52-74 0-130 9-185 33z m767 573c0 192 0 227-3 268-2 43-12 63-54 72-10 2-32 4-49 4-14 0-22 2-22 11 0 9 9 11 28 11 34 0 71-1 102-1 33-1 62-3 80-3 40 0 291 0 315 2 24 2 45 5 55 7 6 2 14 5 20 5s7-5 7-11c0-9-6-24-10-82-1-13-3-68-6-83-1-7-4-14-13-14s-11 6-11 17c0 9-1 31-7 46-9 23-22 38-85 45-22 3-154 5-179 5-7 0-9-3-9-12v-320c0-9 1-14 9-14 27 0 173 0 202 3 30 2 49 6 60 19 9 10 14 16 20 16 6 0 9-2 9-10 0-7-5-28-10-92-1-25-5-76-5-85 0-10 0-24-11-24-9 0-12 5-12 12-1 12-1 29-5 45-6 25-24 44-70 49-24 3-149 4-180 4-6 0-7-5-7-12v-100c0-43-1-159 0-196 2-87 23-106 151-106 33 0 86 0 119 15 33 15 48 42 57 94 2 14 5 19 14 19 10 0 10-10 10-23 0-29-10-115-17-140-8-33-20-33-68-33-94 0-164 2-218 4-54 2-94 3-131 3-14 0-42 0-73-1-29 0-61-2-87-2-16 0-25 3-25 12 0 6 5 10 20 10 19 0 34 3 46 5 25 5 31 33 36 70 7 53 7 153 7 269v222z m966 296l-188-6c-74-2-104-8-123-36-13-19-19-34-21-44-3-10-7-15-14-15-9 0-12 6-12 20 0 20 24 135 27 145 4 16 7 24 15 24 10 0 23-13 54-15 37-4 85-7 127-7h500c40 0 68 4 87 7 19 4 29 6 34 6 9 0 10-7 10-26 0-27-4-114-4-147-1-12-4-20-11-20-10 0-13 6-14 25l-1 14c-3 33-37 68-149 71l-159 4v-518c0-116 0-216 6-270 4-36 11-64 49-69 18-2 46-5 65-5 13 0 20-3 20-10 0-9-10-12-24-12-84 0-163 3-198 3-30 0-109-3-159-3-17 0-26 3-26 12 0 7 5 10 20 10 19 0 34 3 46 5 25 5 33 33 36 70 7 53 7 153 7 269v518z m945 0l-189-6c-73-2-103-8-122-36-13-19-19-34-21-44-3-10-7-15-14-15-9 0-12 6-12 20 0 20 24 135 27 145 4 16 7 24 15 24 10 0 23-13 54-15 37-4 85-7 127-7h500c40 0 68 4 87 7 19 4 29 6 34 6 9 0 10-7 10-26 0-27-4-114-4-147-1-12-4-20-11-20-10 0-13 6-14 25l-1 14c-3 33-37 68-149 71l-159 4v-518c0-116 0-216 6-270 4-36 11-64 49-69 18-2 46-5 64-5 14 0 21-3 21-10 0-9-10-12-24-12-84 0-163 3-199 3-29 0-108-3-159-3-16 0-25 3-25 12 0 7 5 10 20 10 19 0 34 3 46 5 25 5 33 33 36 70 7 53 7 153 7 269v518z m724-555c-6 0-9-2-11-10l-69-180c-12-32-18-62-18-78 0-22 11-39 50-39h19c15 0 19-2 19-10 0-10-8-12-22-12-40 0-94 3-133 3-14 0-84-3-149-3-17 0-24 2-24 12 0 8 5 10 15 10 11 0 29 2 39 3 58 7 82 50 107 114l317 793c15 36 23 50 35 50 12 0 19-11 32-40 30-70 232-585 313-777 48-114 85-131 111-138 19-3 38-5 53-5 10 0 17-1 17-10 0-10-12-12-58-12-46 0-138 0-239 2-23 1-38 1-38 10 0 8 5 10 18 12 9 2 17 13 11 29l-101 267c-2 7-6 9-12 9h-282z m258 63c6 0 7 4 6 8l-114 312c-1 5-2 11-6 11-4 0-6-6-8-11l-116-311c-1-5 0-9 5-9h233z" horiz-adv-x="6200" />
<glyph glyph-name="icons-16" unicode="&#xe810;" d="m376 111c-56-27-125-25-181 12-84 56-107 171-51 255 56 84 170 108 255 52 46-32 74-81 80-133 12-1 24-4 36-9-4 67-38 131-97 170-101 67-236 39-303-61-51-77-47-175 4-246 7-30 5-39-4-54l-82-124c-3-4-4-9-3-13 1-5 4-9 7-11l59-39c3-2 6-3 10-3 5 0 11 3 14 8l82 124c12 17 19 23 46 25 53-12 108-4 155 22-11 7-19 15-27 25z m-202-53l-73-110-30 20 73 111c7 11 11 20 13 30 6-5 12-10 19-14 7-5 14-9 20-12-8-6-15-14-22-25z m340 192c-38 25-89 14-114-23-25-38-14-89 23-114 38-25 89-14 114 23 25 38 14 89-23 114z m-6-95c-14-22-44-27-66-13-21 14-27 44-13 66 15 21 44 27 66 13 22-15 28-44 13-66z" horiz-adv-x="1000" />
<glyph glyph-name="icons-17" unicode="&#xe811;" d="m84 139h462v-41h-143v-55h126v-41h-293v41h126v55h-278c-23 0-41 18-41 41v376c0 23 18 41 41 41h597c22 0 41-18 41-41v-56h-41v56h-597v-376z m736 184h-146v-41h146v41z m0-75h-146v-42h146v42z m93 140v-471c0-22-18-41-41-41h-250c-23 0-41 19-41 41v471c0 23 18 41 41 41h250c23 0 41-18 41-41z m-41 0h-250v-471h250v471z" horiz-adv-x="1000" />
<glyph glyph-name="icons-18" unicode="&#xe812;" d="m487 211c8 0 18-1 25-1 4 0 8 0 10 2 8 9 0 102 0 109-1 60 0 118-25 175-17 41-46 81-82 106-43 30-89 40-136 40-7 0-14 0-21 0-40-3-80-16-115-38-79-52-98-154-106-241-5-50-5-99-3-149 2-41 5-82 10-123 1-14 1-46 12-57 5-5 197-137 233-137 2 0 4 0 5 1 4 4-2 126 6 134 1 1 3 1 6 1 21 0 91-24 123-24 7 0 12 1 15 4 16 16 24 188 31 195 3 3 7 3 12 3z m-59-68c-3-26-8-70-12-94-15 2-35 7-51 11-28 7-46 11-59 11-14 0-25-4-33-12-15-15-15-34-15-109-54 29-145 89-173 109-1 7-2 19-3 24 0 4 0 8-1 12-5 44-7 88-9 121-2 49-2 97 3 144 7 76 23 169 89 212 29 19 63 30 96 32 7 0 13 0 19 0 45 0 81-10 114-33 28-20 53-52 70-90 20-49 21-102 21-158v-3c0-2 0-5 0-14 2-26 3-44 4-57-1 0-1 0-1 0-16 0-29-5-39-14-12-13-13-25-20-92z m-229 342c-20-20-32-46-33-74h28l-42-70-43 70h27c2 76 65 137 142 137 25 0 49-7 71-19l7-4-15-26-7 4c-17 9-37 15-56 15-30 0-58-12-79-33z m204-17l43-69h-26c-2-35-17-68-42-94-27-26-62-41-100-41-25 0-49 6-71 18l-7 5 15 26 7-4c17-10 36-15 56-15 59 0 108 47 111 105h-28l42 69z m535-246c0-22-18-40-40-40 0 0-1 0-2 0l-75-138c4-6 6-13 6-21 0-21-18-39-40-39-22-1-39 17-39 39 0 1 0 1 0 1l-104 50c-7-8-18-14-30-15l-71-126c4-6 7-14 7-23 0-22-18-40-40-40-22 0-40 18-40 40 0 22 18 40 40 40 0 0 1 0 1 0l70 124c-5 7-8 16-8 25 0 22 18 40 39 40 18 0 33-12 38-28l115-55c6 4 14 7 22 7 1 0 2 0 3 0l75 137c-4 6-6 14-6 22 0 22 17 40 39 40 22 0 40-18 40-40z" horiz-adv-x="1000" />
<glyph glyph-name="icons-19" unicode="&#xe813;" d="m250-26c-70 0-118 0-189 0 0 144 0 286 0 431 37 0 83 1 110 1 4-15 0-53 21-53 20 0 20 34 20 52 28 0 78 0 110 0 0-21 1-53 22-53 19 0 21 30 21 52 27 0 68 0 107 0 0-112 0-196 0-310 3 4 5 6 10 10 13 11 19 12 29 11 0 101 0 181 0 282 0 34-18 47-51 46-32-1-65 0-96 0-8 83-19 93-92 94-82 0-92-9-101-94-36 0-68 0-101 0-31 0-47-15-47-46 0-138 0-276 0-414 0-31 16-47 46-47 67 0 114 0 181 0 0 11 0 24 0 38z m27 528c39 0 48-18 48-56-36 0-76 0-113 0 0 55 6 56 65 56z m341-633c-103 1-206 1-308 0-30 0-43 9-40 44 3 25 1 116-3 138-1 9 12 28 17 22 49-61 153-60 198 4 14 20 27 19 45 13 106-34 440-151 439-186 0-20-1-34-40-34-92-1-183-1-275-1-11 0-22 0-33 0z m91 127c-9 4-31-36-41-33-10 4 8 45-15 52-17 5-29-43-39-40-9 3 6 47-14 54-24 8-37-40-50-37-12 4 11 47-9 55-18 8-30 9-49-11-11-10-52-28-93-33-40-5-79 4-94 4 0-32 1-69 1-103 207 0 532-3 621-3 2 18-200 89-218 95z" horiz-adv-x="1000" />
<glyph glyph-name="icons-20" unicode="&#xe814;" d="m806-76v422c0 20-17 36-37 36h-613c-20 0-36-16-36-36v-422h-87v-48h845v48h-72z m-650 422h613v-422h-613v422z m288-347c0-16-13-29-29-29-16 0-29 13-29 29 0 16 13 29 29 29 16 0 29-13 29-29z m103 0c0-16-13-29-29-29-16 0-29 13-29 29 0 16 13 29 29 29 16 0 29-13 29-29z m43 210c-4 5-9 8-15 8h-185l-16 61c-2 8-9 14-18 14h-57v-37h43l16-60c0-1 0-1 0-1l34-130c2-8 10-13 18-13h124c8 0 15 5 18 13l40 129c2 5 1 11-2 16z m-69-122h-97l-24 93h150l-29-93z" horiz-adv-x="1000" />
<glyph glyph-name="icons-21" unicode="&#xe815;" d="m631 28c18 0 33-14 33-33 0-18-15-32-33-32s-33 14-33 32c0 19 15 33 33 33z m205 473h-409c-20 0-36-16-36-36v-80c11 7 23 12 36 14v66h409v-551h-409v34c-11-8-23-14-36-19v-15c0-20 16-36 36-36h409c19 0 35 16 35 36v551c0 20-16 36-35 36z m-445-533c0 0-1 0-1-1-4-1-7-3-11-4-1-1-3-1-4-1-3-2-7-3-10-3-1-1-2-1-2-1-5-1-9-2-13-2-2 0-3 0-4-1-4 0-9 0-14 0-1 0-2 0-3 0-81 1-134 58-143 150-44 1-150 27-150 103 0 48 1 191 1 193 0 0 0 1 1 1 1 19 13 50 41 66 0 20 17 36 36 36 21 0 37-16 37-36 0-21-16-37-37-37-7 0-13 2-19 6-18-11-22-32-23-38 0-12-1-145-1-191 0-47 86-68 119-68s119 21 119 68c0 46-1 179-1 191-1 6-6 34-32 41-6-5-15-9-24-9-20 0-36 16-36 37 0 20 16 36 36 36 18 0 33-13 36-30 38-12 53-50 55-72 0 0 0-1 0-1 0-2 2-145 2-193 0-63-74-92-124-100 4-47 24-116 108-118 6 0 11 1 16 1 1 0 1 1 2 1 5 0 10 1 14 3 1 0 1 0 2 0 5 2 9 4 13 6 1 1 1 1 1 1 5 2 9 5 13 8 2 2 4 4 5 5 4 4 7 8 10 12 1 1 2 3 3 4 2 3 4 6 6 10 0 1 1 2 1 3 5 9 8 19 11 27 2 9 3 18 3 24v97 36c-14 4-27 12-36 23-3 4-6 8-8 13-1 1-1 1-1 1-1 3-2 6-3 9-1 1-1 2-1 3-1 3-2 5-2 7-1 4-1 8-1 12 0 3 0 7 1 10 0 1 0 1 0 2 0 3 1 6 2 9 0 1 0 1 0 1 1 3 3 6 4 9 0 0 0 0 0 1 2 3 4 6 6 9 0 0 0 0 0 0 13 17 33 29 57 29 39 0 70-31 70-70 0-18-6-34-17-46-9-11-21-18-36-22v-36-97c0-22-8-66-38-99-2-2-4-4-6-6-4-4-8-8-13-11-1-1-1-2-2-2-5-3-10-6-15-9v0z m57 293c16 0 29 11 33 25 1 3 2 7 2 10 0 19-16 34-35 34-19 0-35-15-35-34 0-3 1-7 2-10 4-14 17-25 33-25z m230 171h-94v-35h94v35z" horiz-adv-x="1000" />
<glyph glyph-name="icons-23" unicode="&#xe816;" d="m1000 350c0 276-224 500-500 500-276 0-500-224-500-500 0-276 224-500 500-500 276 0 500 224 500 500z m-66 0c0-239-195-434-434-434-239 0-434 195-434 434 0 239 195 434 434 434 239 0 434-195 434-434z m-215 83c0-4 0-9 0-13 0-139-105-298-298-298-59 0-115 17-161 47 8-1 17-2 25-2 49 0 94 17 130 45-46 1-84 31-98 73 7-1 13-2 20-2 10 0 19 1 28 4-48 9-84 52-84 102 0 1 0 1 0 2 14-8 30-13 47-13-28 18-47 51-47 87 0 19 6 37 15 53 51-64 129-105 216-110-2 8-3 16-3 24 0 58 47 105 105 105 30 0 57-13 76-33 24 4 47 13 67 25-8-24-24-45-46-58 21 3 41 8 60 17-14-21-32-40-52-55z" horiz-adv-x="1000" />
<glyph glyph-name="icons-24" unicode="&#xe817;" d="m1000 350c0 276-224 500-500 500-276 0-500-224-500-500 0-276 224-500 500-500 276 0 500 224 500 500z m-66 0c0-239-195-434-434-434-239 0-434 195-434 434 0 239 195 434 434 434 239 0 434-195 434-434z m-408-73l66 55 127-105h-430l127 105 65-55c7-5 15-8 23-8 8 0 16 3 22 8z m194 242h-1 0-430-1c0 0-1-1-2-1-1 0-2 0-3 0-17-3-30-17-30-34v-257c0-18 13-32 30-35 1 0 2 0 3 0 1 0 2-1 2-1h1 430 1c0 0 1 1 2 1 1 0 2 0 3 0 17 3 30 17 30 35v257c0 19-16 35-35 35z m-1-35l-127-106-27-23-61-51-61 51-27 23-127 106h430z m-431-212v166l100-83-100-83z m432 0l-101 83 101 83v-166z" horiz-adv-x="1000" />
<glyph glyph-name="icons-25" unicode="&#xe818;" d="m919 393l-138-138v0l-37-37c-3-3-6-5-8-7-17-16-35-29-55-39-50-27-108-37-163-29-14 2-28 5-41 9-12 4-24 8-36 14-27 13-51 30-73 52-23 22-40 47-52 74l68 68c5 5 10 9 16 12 6-28 20-56 43-79 22-22 50-37 79-43 13-2 25-4 38-3 14 0 27 2 40 6 25 7 49 20 69 40l41 42 31 30 29 30 74 74c62 62 62 163 0 225-62 63-163 63-226 0l-74-74c-46 14-93 18-139 12l138 138c104 104 272 104 376 0 104-104 104-273 0-377z m-460-309l-75-75c-62-62-163-62-225 0-63 62-63 164 0 226l74 74 29 29 31 31 41 41c20 20 43 34 68 40 13 4 27 6 40 7 13 0 26-1 39-3 29-6 56-21 79-44 23-22 37-50 43-79 5 3 11 8 15 12l69 69c-12 27-30 52-52 74-22 22-47 39-74 51-11 6-23 11-35 15-14 4-27 7-42 8-55 9-112-1-163-28-19-10-38-23-54-39-3-2-5-5-8-7l-37-38-139-138c-104-104-104-272 0-376 104-104 273-104 377 0l138 138c-47-6-94-2-139 12z" horiz-adv-x="1000" />
<glyph glyph-name="icons-26" unicode="&#xe819;" d="m428 86v237h-79v92h79v68c0 79 49 122 119 122 34 0 63-2 72-4v-82h-49c-39 0-46-18-46-45v-59h91l-12-92h-79v-237h-96z m72 724c254 0 460-206 460-460s-206-460-460-460-460 206-460 460 206 460 460 460m0 40c-276 0-500-224-500-500s224-500 500-500 500 224 500 500-224 500-500 500l0 0z" horiz-adv-x="1000" />
<glyph glyph-name="icons-27" unicode="&#xe81a;" d="m365 152h-99v319h99v-319z m8 421c0 32-26 57-57 57-32 0-58-25-58-57 0-32 26-58 58-58 31 0 57 26 57 58z m365-246c0 86-19 152-120 152-48 0-80-26-94-51h-1v43h-95v-319h99v158c0 41 8 82 60 82 51 0 51-48 51-85v-155h100v175z m-238 483c254 0 460-206 460-460s-206-460-460-460-460 206-460 460 206 460 460 460m0 40c-276 0-500-224-500-500s224-500 500-500 500 224 500 500-224 500-500 500l0 0z" horiz-adv-x="1000" />
<glyph glyph-name="icons-28" unicode="&#xe81b;" d="m730 445c1-25-4-48-13-70-15-39-37-74-61-108-33-46-68-91-112-128-22-19-45-34-73-40-20-4-37 2-51 15-20 20-31 45-39 71-14 49-27 99-41 148-4 17-10 33-18 48-1 3-3 6-5 9-12 17-20 19-38 8-6-4-12-8-18-12-4-3-6-3-8 1-6 7-12 14-17 21-3 3-3 5 0 8 35 30 67 63 105 90 14 9 28 17 46 16 18 0 32-8 42-22 12-16 17-35 21-55 7-45 13-90 24-135 4-14 9-29 16-43 9-16 19-18 32-4 28 29 48 63 62 101 3 9 3 18 3 26-1 17-11 28-28 29-12 1-23-1-34-5-6-2-8-1-6 5 11 32 26 62 53 83 32 25 69 31 108 22 30-7 42-30 48-58 1-7 1-14 2-21z m-230 365c254 0 460-206 460-460s-206-460-460-460-460 206-460 460 206 460 460 460m0 40c-276 0-500-224-500-500s224-500 500-500 500 224 500 500-224 500-500 500l0 0z" horiz-adv-x="1000" />
<glyph glyph-name="icons-29" unicode="&#xe81c;" d="m666 383h-37c3-11 4-22 4-33 0-72-58-131-131-131-72 0-131 59-131 131 0 11 2 22 4 33h-37v-180c0-9 8-17 17-17h295c9 0 16 8 16 17v180z m0 114c0 10-7 17-16 17h-50c-9 0-16-7-16-17v-49c0-9 7-16 16-16h50c9 0 16 7 16 16v49z m-164-65c-45 0-82-37-82-82 0-45 37-82 82-82 45 0 82 37 82 82 0 45-37 82-82 82m164-295h-328c-27 0-49 22-49 49v328c0 27 22 49 49 49h328c27 0 49-22 49-49v-328c0-27-22-49-49-49m-164 673c254 0 460-206 460-460s-206-460-460-460-460 206-460 460 207 460 460 460m0 40c-276 0-500-224-500-500s224-500 500-500 500 224 500 500-224 500-500 500l0 0z" horiz-adv-x="1000" />
<glyph glyph-name="icons-30" unicode="&#xe81d;" d="m647 575c43 0 78-35 78-77v-295c0-42-35-77-78-77h-294c-43 0-77 35-77 77v295c0 42 34 77 77 77h294m0 21h-294c-54 0-98-44-98-98v-295c0-54 44-97 98-97h294c54 0 98 43 98 97v295c0 54-44 98-98 98l0 0z m-16-47h-261c-38 0-69-30-69-68v-261c0-38 31-68 69-68h261c37 0 68 30 68 68v261c0 38-31 68-68 68z m-215-261c-34 0-63 28-63 63 0 34 29 62 63 62 35 0 63-28 63-62 0-35-28-63-63-63z m168 0c-35 0-63 28-63 63 0 34 28 62 63 62 34 0 63-28 63-62 0-35-29-63-63-63z m-84 522c254 0 460-206 460-460s-206-460-460-460-460 206-460 460 206 460 460 460m0 40c-276 0-500-224-500-500s224-500 500-500 500 224 500 500-224 500-500 500l0 0z" horiz-adv-x="1000" />
<glyph glyph-name="icons-31" unicode="&#xe81e;" d="m718 413c0-119-66-208-164-208-33 0-64 17-74 38 0 0-18-71-22-84-13-48-52-96-55-100-2-3-6-2-7 2-1 6-10 66 1 116 6 24 39 166 39 166s-9 19-9 48c0 45 26 79 58 79 28 0 41-21 41-46 0-28-17-70-27-108-7-33 17-59 48-59 58 0 97 74 97 162 0 67-45 117-127 117-92 0-150-69-150-146 0-27 8-45 21-60 5-6 6-9 4-17-2-5-5-19-6-24-2-8-9-11-16-8-42 18-62 64-62 116 0 87 73 191 218 191 116 0 192-84 192-175z m-218 397c254 0 460-206 460-460s-206-460-460-460-460 206-460 460 206 460 460 460m0 40c-276 0-500-224-500-500s224-500 500-500 500 224 500 500-224 500-500 500l0 0z" horiz-adv-x="1000" />
<glyph glyph-name="icons-32" unicode="&#xe81f;" d="m500 810c254 0 460-206 460-460s-206-460-460-460-460 206-460 460 206 460 460 460m0 40c-276 0-500-224-500-500s224-500 500-500 500 224 500 500-224 500-500 500l0 0z m199-407c0-4 0-9 0-13 0-139-105-298-298-298-59 0-115 17-161 47 8-1 17-2 25-2 49 0 94 17 130 45-46 1-84 31-98 73 7-1 13-2 20-2 10 0 19 1 28 4-48 9-84 52-84 102 0 1 0 1 0 2 14-8 30-13 47-13-28 18-47 51-47 87 0 19 6 37 15 53 51-64 129-105 216-110-2 8-3 16-3 24 0 58 47 105 105 105 30 0 57-13 76-33 24 4 47 13 67 25-8-24-24-45-46-58 21 3 41 8 60 17-14-21-32-40-52-55z" horiz-adv-x="1000" />
<glyph glyph-name="icons-33" unicode="&#xe820;" d="m720 519h-1 0-430-1c0 0-1-1-2-1-1 0-2 0-3 0-17-3-30-17-30-34v-257c0-18 13-32 30-35 1 0 2 0 3 0 1 0 2-1 2-1h1 430 1c0 0 1 1 2 1 1 0 2 0 3 0 17 3 30 17 30 35v257c0 19-16 35-35 35z m-1-35l-127-106-27-23-61-51-61 51-27 23-127 106h430z m-431-212v166l100-83-100-83z m1-45l127 105 65-55c7-5 15-8 23-8 8 0 16 3 22 8l66 55 127-105h-430z m431 45l-101 83 101 83v-166z m-220 538c254 0 460-206 460-460s-206-460-460-460-460 206-460 460 206 460 460 460m0 40c-276 0-500-224-500-500s224-500 500-500 500 224 500 500-224 500-500 500l0 0z" horiz-adv-x="1000" />
<glyph glyph-name="icons-34" unicode="&#xe821;" d="m1000 350c0 276-224 500-500 500-276 0-500-224-500-500 0-276 224-500 500-500 276 0 500 224 500 500z m-66 0c0-239-195-434-434-434-239 0-434 195-434 434 0 239 195 434 434 434 239 0 434-195 434-434z m-129-5h-75v-72h-41v72h-72v42h72v74h41v-74h75v-42z m-216 258h-138c-18 0-38-3-58-7-21-5-42-15-61-32-29-27-43-58-43-92 0-28 10-53 30-74 19-22 47-34 84-34 7 0 14 0 22 1-1-4-3-8-4-12-2-4-3-9-3-15 0-10 2-19 7-26 4-8 8-15 13-21-16-1-36-3-60-6-25-5-48-13-71-26-19-12-33-26-41-41-7-16-11-30-11-43 0-26 12-49 36-68 23-20 59-30 108-31 57 1 101 15 132 42 29 26 44 55 44 89 0 24-6 43-16 57-11 15-24 28-38 40l-24 19c-3 3-7 7-10 12-4 4-6 10-6 17 0 8 2 14 6 20 3 5 7 10 11 15 7 6 14 12 20 18 6 6 12 13 17 20 10 15 16 35 16 59 0 14-1 26-5 36-3 10-7 19-12 26-5 8-10 14-15 20-6 5-11 9-15 12h42l43 25z m-75-377c11-13 17-29 17-46 0-22-9-39-25-53-17-14-42-21-75-22-36 1-64 9-85 25-22 15-33 35-33 60 0 12 3 23 8 31 4 9 9 16 16 21 6 6 13 10 19 13 6 2 11 4 15 6 15 4 29 8 44 10 14 1 23 1 27 1 5 0 11 0 15-1 26-18 44-33 57-45z m-23 203c-2-9-5-18-11-27-12-12-27-19-45-20-15 0-27 5-39 14-11 8-20 19-27 32-14 27-22 53-22 78 0 19 5 36 15 51 13 15 28 22 47 23 14-1 26-5 37-13 11-8 19-19 26-32 14-28 21-55 21-83 0-6-1-14-2-23z" horiz-adv-x="1000" />
<glyph glyph-name="icons-35" unicode="&#xe822;" d="m805 338h-75v-72h-41v72h-72v42h72v73h41v-73h75v-42z m-259 232h-42c4-2 9-6 15-11 5-6 10-12 15-20 5-8 9-16 12-27 4-10 5-21 5-35 0-25-6-44-16-59-5-7-11-14-17-20-6-6-13-12-20-19-4-4-8-9-11-14-4-6-6-12-6-20 0-7 2-13 6-18 3-4 7-8 10-11l24-20c14-12 27-25 38-39 10-15 15-34 16-57 0-34-15-63-44-89-31-27-75-41-132-42-49 1-85 11-108 31-24 19-36 42-36 68 0 13 3 27 11 43 8 15 22 29 41 41 23 13 46 21 71 25 24 4 44 6 60 7-5 6-9 13-13 21-5 7-7 15-7 26 0 6 1 11 3 15 1 4 3 8 4 12-8-1-15-2-22-2-37 1-65 12-84 35-20 21-30 46-30 74 0 34 14 65 43 92 19 16 40 27 61 32 20 4 40 6 58 6h138l-43-25z m-89-306c-4 0-10 1-15 1-4 0-13 0-27-2-15-2-29-5-44-9-4-2-9-4-15-7-6-2-13-7-19-12-7-6-12-13-16-21-5-9-8-19-8-32 0-24 11-44 33-60 21-15 49-23 85-24 33 1 58 8 75 22 16 13 25 31 25 53 0 17-6 32-17 45-13 13-31 28-57 46z m36 181c0 27-7 55-21 82-7 14-15 25-26 33-11 8-23 12-37 12-19 0-34-8-47-22-10-16-15-33-15-52 0-25 8-51 22-78 7-12 16-23 27-32 12-8 24-13 39-13 18 1 33 7 45 20 6 9 10 18 11 27 1 9 2 17 2 23z m7 365c-254 0-460-206-460-460s206-460 460-460 460 206 460 460-206 460-460 460m0 40c276 0 500-224 500-500s-224-500-500-500-500 224-500 500 224 500 500 500l0 0z" horiz-adv-x="1000" />
<glyph glyph-name="icons-36" unicode="&#xe823;" d="m500 850c-276 0-500-224-500-500s224-500 500-500 500 224 500 500-224 500-500 500z m0-940c-243 0-440 197-440 440s197 440 440 440 440-197 440-440-197-440-440-440z m0 765c-179 0-325-146-325-325s146-325 325-325 325 146 325 325-146 325-325 325z m0-590c-146 0-265 119-265 265s119 265 265 265 265-119 265-265-119-265-265-265z m30 295h118v-60h-118v-118h-60v118h-118v60h118v118h60v-118z" horiz-adv-x="1000" />
<glyph glyph-name="icons-37" unicode="&#xe824;" d="m566 468c0-64-22-100-46-117-14-10-24-14-55-14-19 0-43 3-59 8-6 3-7 6-7 14v238c0 6 1 9 7 10 8 3 22 3 41 3 46 0 119-31 119-142z m416 364v-959h-959v959h959z m-139-766c0 3-3 6-9 6-7 0-14 0-22 2-12 3-44 8-87 53-46 48-100 118-169 205 78 64 102 117 102 175 0 52-31 92-52 106-43 29-95 34-144 34-24 0-84-2-110-2-16 0-65 2-107 2-12 0-17-2-17-7 0-5 5-7 13-7 11 0 24-1 31-2 25-6 32-18 33-45 2-25 2-47 2-165v-137c0-72 0-134-4-166-3-23-7-40-23-43-7-2-16-3-28-3-9 0-12-3-12-6 0-6 5-8 15-8 32 0 81 2 95 2 12 0 70-2 115-2 10 0 16 2 16 8 0 3-3 6-10 6-9 0-26 1-38 3-23 3-28 20-30 43-4 32-4 94-4 167v11c0 4 2 6 6 6l68-2c5 0 10-1 14-5 10-12 46-65 77-108 44-60 73-97 107-115 20-10 40-14 83-14h74c10 0 15 1 15 8z" horiz-adv-x="1000" />
<glyph glyph-name="icons-38" unicode="&#xe825;" d="m502 843c-186 0-336-150-336-335 0-4 0-8 1-12 1-36 7-69 19-101 71-235 316-542 316-542s244 307 316 542c11 32 17 65 19 101 0 4 0 8 0 12 0 185-150 335-335 335z m0-473c-76 0-138 62-138 138 0 76 62 138 138 138 76 0 138-62 138-138 0-76-62-138-138-138z m0-107c-136 0-246 109-246 245 0 135 110 245 246 245 135 0 245-110 245-245 0-136-110-245-245-245z" horiz-adv-x="1000" />
<glyph glyph-name="icons-39" unicode="&#xe826;" d="m919 670h-1 0-828-1c-1 0-3-1-4-1-2 0-4 0-6 0-33-5-58-33-58-67v-494c0-34 25-62 58-67 2 0 4 0 6 0 1 0 3-1 4-1h1 828 1c1 0 2 1 4 1 2 0 4 0 6 0 32 5 57 33 57 67v494c0 38-30 68-67 68z m-1-68l-244-203-53-44-117-97-117 97-53 44-244 203h828z m-829-407v321l193-161-193-160z m1-87l244 203 127-105c12-11 28-16 43-16 15 0 31 5 43 16l127 105 244-203h-828z m829 87l-193 160 193 161v-321z" horiz-adv-x="1000" />
<glyph glyph-name="icons-40" unicode="&#xe827;" d="m710 231c-1 0-1 0-2 0h-120c-28 0-51-22-51-50 0-11 3-21 9-29-21-6-37-26-37-48 0-24 16-44 38-49-5-8-8-18-8-29 0-24 16-44 38-49-6-8-9-18-9-29 0-28 23-51 51-51h120c2 0 4 0 5 0h5c102 0 145 17 177 30 19 7 32 12 51 12 6 0 11 6 11 12 0 6-5 12-11 12-24 0-40-7-59-14-27-11-62-25-136-28 5 8 7 17 7 27 0 23-16 43-38 49 6 8 9 18 9 29 0 19-11 36-28 44 8 14 12 32 13 57h23c10-55 87-78 90-79 6-1 12 2 14 8 2 6-1 13-7 15-1 0-74 22-74 68 0 7-6 12-12 12h-46c-3 0-6-1-8-3-3-2-4-5-3-9 0-33-5-53-17-66-1 0-1-1-1-1-8-8-21-13-39-14v7c0 0 0 0 0 1 0 0 0 0 0 1v97c0 8 4 16 11 21l1 0c12 10 46 35 71 35 97 0 139-17 169-28 19-8 36-14 59-14 6 0 12 5 12 11 0 6-6 12-12 12-19 0-32 5-51 12-32 13-75 30-177 30-12-1-26-6-38-12z m-150-154c-14 0-27 13-27 27s13 28 27 28h28 55v-55h-53-30z m179-101c15 0 28-13 28-27 0-14-11-26-25-27h-3c0 0-1 0-2 0h-118c-15 0-27 13-27 27s12 28 27 28h91 29v-1z m-2 51c0-15-12-28-27-28h-91-30c-15 0-27 13-27 28 0 14 12 27 27 27h53v-8l0 0c0-3 2-6 3-9 3-2 6-3 9-3 28 0 49 7 64 18 11-3 19-14 19-25z m-94 135v-8h-55c-14 0-27 13-27 27 0 15 13 28 27 28h84c-4-3-7-5-8-7-13-9-21-24-21-40z m-386 81c-102 0-145-17-177-30-19-7-32-12-51-12-6 0-12-6-12-12 0-6 6-11 12-11 24 0 40 6 59 14 31 11 72 28 169 28 25 0 59-25 71-35l1 0c8-5 11-13 11-21v-97c0-1 0-1 0-1 0-1 0-1 0-1v-7c-17 1-31 6-39 14 0 0 0 1-1 1-12 13-16 33-16 66 0 4-1 7-3 9-3 1-6 3-9 3h-46c-6 0-12-5-12-12 0-46-73-68-74-68-6-2-9-9-7-15 2-6 8-9 14-8 4 1 81 24 90 79h23c1-25 5-43 13-57-17-8-27-25-27-44 0-11 3-21 8-29-22-6-38-26-38-49 0-10 2-19 7-27-74 3-109 17-135 28-20 7-36 14-60 14-6 0-11-6-11-12 0-6 5-12 11-12 19 0 32-5 51-12 32-13 75-30 177-30h5c2 0 3 0 5 0h120c28 0 51 23 51 51 0 11-3 21-9 29 22 5 39 25 39 49 0 11-4 21-9 29 22 5 38 25 38 49 0 22-16 42-37 48 6 8 9 18 9 29 0 28-22 50-50 50h-121c-1 0-1 0-2 0-12 6-26 11-38 12z m158-166h-53v55h55 28c15 0 27-13 27-28s-12-27-27-27h-30z m-149-100h29 91c15 0 28-13 28-28s-13-27-28-27h-118c-1 0-1 0-2 0h-3c-14 1-24 13-24 27 0 14 12 27 27 27v1z m22 75c14-11 35-18 63-18 3 0 7 1 9 3 2 3 3 6 3 9l0 0v8h53c15 0 27-13 27-27 0-15-12-28-27-28h-30-91c-14 0-27 13-27 28 0 11 8 22 20 25z m53 150c-1 2-4 4-8 7h84c15 0 27-13 27-28 0-14-12-27-27-27h-55v8c0 16-8 31-21 40z" horiz-adv-x="1000" />
<glyph glyph-name="icons-41" unicode="&#xe828;" d="m788 277c-35 97-143 148-241 113-76-27-127-100-125-181l-39-20-36 16 40 14c22 8 29 34 22 53-6 18-28 33-48 27l0 0c-7-2-45-16-318-113l0 0c0 0 0 0 0-1-19-7-23-34-17-50 6-16 26-35 45-29 0 0 1 0 1 0l137 49 62-17c-19-10-28-14-32-17l0 1c-15-11-22-30-15-48 6-17 22-28 40-27 2 0 3 0 4 1l31 7-36-53-137-49c-19-8-23-35-17-51 5-15 26-34 45-28 0 0 1 0 1 0 316 113 316 113 316 113 21 8 28 34 21 52-7 19-29 35-50 27l-42-15 20 36 43 9c50-62 135-87 211-60 98 35 149 143 114 241z m-125-210c-66-24-140-1-180 56-4 6-10 8-16 7l-61-12c-1 0-2-1-3-1-3-1-6-4-8-7l-43-80c-4-6-3-14 2-19 4-5 11-7 17-4l82 29c2 0 7-3 9-7 1-5-1-10-3-12-15-5-283-101-313-112-2 2-6 6-7 8-1 2 0 8 1 11l138 49c4 1 6 3 8 6l65 93c3 5 3 13 0 18-4 6-11 8-18 7l-71-17c-3 0-7 2-8 5-1 3 0 7 3 9 6 4 43 21 67 33 6 3 10 10 9 16-1 7-5 13-12 14l-108 31c-3 1-7 1-10 0l-139-50c-3 1-6 5-7 8-1 2-1 8 0 10 106 38 302 108 313 112 2 0 7-3 8-7 2-4 0-10-2-11l-80-29c0 0 0 0 0 0-7-2-11-8-11-15s4-13 10-15l83-35c4-2 9-1 14 1l54 28c6 3 9 10 9 16-6 70 37 135 103 159 81 29 170-13 199-94 29-81-13-170-94-199z" horiz-adv-x="1000" />
<glyph glyph-name="icons-42" unicode="&#xe829;" d="m104 265c-2 0-5 1-8 1-39 5-50 41-50 59-1 7 5 13 12 13 7 0 13-5 13-13 0-3 2-30 29-33 33-5 49 38 53 52 10 34 26 57 41 77 10 16 21 30 27 47 8 22 8 57-9 84-14 21-35 34-65 36-82 7-92-55-92-57-1-7-8-12-15-11-7 1-12 7-11 14 1 1 14 89 121 80 46-4 71-28 83-48 23-35 22-79 12-106-7-21-19-37-30-53-14-20-28-40-38-71-13-45-40-71-73-71z m18 87c13 8 20 22 21 24 3 4 1 10-4 12-4 2-10 1-12-4-2-3-8-12-14-17-3-1-8-2-11-1-3 1-5 3-7 7-3 7 0 12 6 21 5 6 10 14 11 24 3 22-8 32-17 38-5 4-8 7-10 11-4 14-3 44 12 62 10 13 25 18 44 16 17-2 29-8 36-18 12-18 3-45 3-46-1-4 1-10 6-11 5-2 10 1 12 6 0 1 11 35-6 61-10 15-26 24-49 26-32 4-51-10-61-22-18-23-21-58-14-80 3-9 10-15 16-19 7-6 12-10 10-22-1-5-4-11-8-16-6-9-14-21-8-38 4-11 12-16 18-17 3-2 6-2 9-2 7 0 13 2 17 5z m435-468c0-8-6-14-14-14h-280c-7 0-14 6-14 14 0 46 38 84 84 84h56v43c-75 7-135 71-135 148v75c0 8 7 14 14 14h15c8 0 14-6 14-14s-6-14-14-14h-1v-61c0-67 55-121 121-121 67 0 121 54 121 121l0 61c-8 0-14 6-14 14s6 14 14 14h14c8 0 14-6 14-14v-75c0-77-59-141-135-148v-43h56c47 0 84-38 84-84z m-30 14c-6 24-28 42-54 42h-70-70c-26 0-48-18-54-42h248z m-40 441v-175c0-46-37-84-84-84-46 0-84 38-84 84v175c0 46 38 84 84 84 47 0 84-38 84-84z m-28 0c0 31-25 56-56 56-31 0-56-25-56-56v-175c0-31 25-56 56-56 31 0 56 25 56 56v175z" horiz-adv-x="1000" />
<glyph glyph-name="icons-43" unicode="&#xe82a;" d="m660 48l-79 206v67c0 107-87 194-194 194h-81c-107 0-194-87-194-194v-67l-79-206-2-6v-5c0-50 70-90 100-105 37-18 115-49 215-49s179 31 216 49c30 15 100 55 100 105v5l-2 6z m-313-133c-158 0-285 81-285 122l81 211v73c0 90 73 163 163 163h81c90 0 163-73 163-163v-73l81-211c0-41-127-122-284-122z m-136 286c0 11 6 28 13 37 1 1 20 24 58 24 20 0 33-9 34-9 10-7 18-21 18-34v-27c0-9-10-16-24-16h-74c-14 0-25 11-25 25z m55-162l20 20v-60h-20v40z m40 40h30v-80h-30v80z m71 20h-61v30c0 17 14 30 31 30 16 0 30-13 30-30v-30z m-20-20h30v-80h-30v80z m50-20l20-20v-40h-20v60z m77-60c0-9-8-17-17-17-10 0-18 8-18 17 0 10 8 17 18 17 9 0 17-7 17-17z m-240 0c0-9-8-17-17-17-9 0-17 8-17 17 0 10 8 17 17 17 9 0 17-7 17-17z m139 177c-14 0-24 7-24 16v27c0 13 8 27 18 34 1 0 14 9 34 9 38 0 57-23 58-24 7-9 13-26 13-37 0-14-11-25-25-25h-74z m147 64l72-189c3-8-1-17-9-20-8-3-17 1-20 9l-72 188c-1 4-24 52-64 63-23 6-49-1-77-22l-9-7-10 7c-27 21-53 28-77 23-42-10-67-57-70-63l-73-194c-2-7-8-10-14-10-2 0-4 0-6 1-8 3-12 11-9 20l73 196c2 3 33 66 92 80 30 7 62 0 94-21 32 21 64 28 94 20 56-16 84-78 85-81l0 0z" horiz-adv-x="1000" />
<glyph glyph-name="icons-44" unicode="&#xe82b;" d="m70 193h11v-106c0-7 5-12 12-12h491c7 0 12 5 12 12v24h38v13l305 59-3 18-302-43v14h-38v21h11c6 0 12 5 12 12v63c0 7-6 12-12 12h-144c14 14 22 30 20 45-1 9-8 29-41 33-40 5-76-16-104-59-27 43-63 64-103 59-33-4-40-24-41-33-2-15 5-31 20-45h-144c-7 0-12-5-12-12v-63c0-7 5-12 12-12z m34 0h223v-94h-223v94z m468-94h-222v94h222v-94z m23 117h-245v40h245v-40z m-156 118c7-1 19-3 21-12 1-11-11-28-34-38l-9-4h-63c18 30 46 59 85 54z m-188-50c-23 10-35 27-34 38 1 9 13 11 20 12 40 5 68-24 85-54h-63l-8 4z m-169-28h245v-40h-245v40z m502-214h-469c-42 0-75-35-75-79 0-43 33-79 75-79h469c41 0 75 36 75 79 0 44-33 79-75 79z m0-134h-469c-29 0-52 25-52 55 0 31 23 56 52 56h469c29 0 52-25 52-56 0-30-23-55-52-55z m-433 98c-22 0-40-19-40-41s18-40 40-40c23 0 41 18 41 40s-18 41-41 41z m0-57c-9 0-16 7-16 16 0 9 7 17 16 17s17-8 17-17c0-9-7-16-17-16z m132 57c-22 0-40-19-40-41s18-40 40-40c23 0 41 18 41 40s-18 41-41 41z m0-57c-9 0-16 7-16 16 0 9 7 17 16 17 10 0 17-8 17-17 0-9-7-16-17-16z m132 57c-22 0-40-19-40-41s18-40 40-40c23 0 41 18 41 40s-18 41-41 41z m0-57c-9 0-16 7-16 16 0 9 7 17 16 17 10 0 17-8 17-17 0-9-7-16-17-16z m132 57c-22 0-40-19-40-41s18-40 40-40c23 0 41 18 41 40s-18 41-41 41z m0-57c-9 0-16 7-16 16 0 9 7 17 16 17s17-8 17-17c0-9-7-16-17-16z" horiz-adv-x="1000" />
<glyph glyph-name="icons-45" unicode="&#xe82c;" d="m637 707c0 3 0 6 2 9l34 83c5 12 18 17 29 12 11-4 16-17 11-28l-34-84c-5-11-18-16-29-11-8 3-13 11-13 19z m-314-8c5-11 18-16 29-11 11 5 16 18 11 29l-36 83c-5 10-18 15-29 11-8-4-13-12-13-20 0-3 1-6 2-9l36-83z m178 10c12 0 21 10 21 21v1l-1 90c0 12-10 21-22 21-12 0-22-10-21-22 0 0 0 0 0 0l1-90c0-12 10-22 22-21z m192-125c-53 50-123 77-197 75-152-4-273-130-269-281 2-62 25-123 65-170 25-35 57-97 51-118-3-10 3-21 13-24 10-2 20 3 23 13 13 47-44 134-56 151l-1 2c-36 41-56 93-57 147-3 129 98 236 227 242 2 0 3 0 5 0 64 2 124-21 170-65 46-43 72-102 74-165 1-59-19-107-66-156l-1-1c-2-4-57-71-67-137-13-2-31-1-39 7-9 9-4 31 0 43 1 4 28 89 31 126l0 2-1 9c8 6 13 15 12 24l0 20c-1 16-16 28-33 27-10 0-19-5-24-12-6 6-16 11-26 10-10 0-19-6-25-13-6 7-15 11-26 11-12-1-23-8-28-19-5 10-16 17-29 16-17 0-30-14-30-30l1-19c1-10 6-19 15-24l2-13 1-1c2-10 23-96 35-121 13-29 2-52-13-77-9-13-17-26-9-40 8-13 24-13 30-13l142 4c4 0 7-3 7-7 1-4-2-7-6-7h-1l-220-6c-12 0-23-5-31-14-8-8-13-20-12-31 0-12 5-23 13-32 9-8 20-12 32-12l213 5 9 1c3 0 6-3 6-6 0-3-2-5-5-5h0l-132-4-31-1c0 0 0 0 0 0-11 0-19-9-19-19 1-10 10-19 20-18l162 4c1 0 1 0 1 0 24 1 42 21 42 44-1 24-21 43-45 42l-222-5c-2 0-4 1-5 2 0 0-2 2-2 5 0 2 1 4 2 4 1 1 2 3 5 3l220 5c25 1 45 21 44 46 0 25-21 44-46 44l-127-4c14 23 34 62 12 108-9 18-26 88-33 113l-2 10c4 3 7 7 8 11 6-10 17-17 30-16 10 0 19 5 25 13 5-7 15-12 26-11 10 0 19 5 24 13 2-2 3-4 6-5l0-9c-3-28-22-93-30-117-10-35-7-63 10-81 17-17 41-20 60-19 15 1 26 4 28 4l14 4 1 14c2 55 54 122 59 129 53 56 77 114 76 183-2 73-33 141-86 192z" horiz-adv-x="1000" />
<glyph glyph-name="icons-46" unicode="&#xe82d;" d="m663 378c30 0 59 12 80 33 44 44 44 117 0 161-21 21-50 33-80 33-31 0-59-12-81-33-44-44-44-117 0-161 22-21 50-33 81-33z m0 185c19 0 37-8 50-21 28-28 28-73 0-101-13-13-31-21-50-21-19 0-37 8-51 21-28 28-28 73 0 101 14 13 32 21 51 21z m241 171c-5 4-11 7-17 6l-202-25c-66-8-129-39-176-86l-124-125-260-82c-7-2-13-8-15-15-1-8 1-15 6-20l91-91c1-1 2-2 3-2l36-37c-27-32-47-69-56-108l-31-134c-2-7 0-15 6-20 5-5 13-7 19-6l134 32c38 9 76 28 108 56l39-38c0-2 1-3 3-4l94-94c4-4 9-7 15-7 2 0 3 1 5 1 7 2 13 7 15 15l80 264 122 122c47 48 78 111 86 177l25 203c1 7-1 13-6 18z m-291-583l-46-155-55 54 101 101z m-71 197c4 4 6 9 6 15 0 6-2 11-6 15-8 8-22 8-30 0l-163-163-58 57 0 1c-1 0-1 0-2 1l-37 37 160 160c0 1 1 2 1 2l126 126c40 40 94 67 151 74l175 21-22-176c-7-57-33-111-74-152l-287-285-103 104 163 163z m-310-208c7 31 22 61 44 87l54-54c1-1 2-3 3-4 1-1 3-2 3-2l60-60c-26-22-57-38-88-45l-100-23 24 101z m-11 201l-50 51 148 47-98-98z" horiz-adv-x="1000" />
<glyph glyph-name="icons-47" unicode="&#xe82e;" d="m824 215c-1 140-89 260-213 306v78c0 12-10 22-22 22h-68v168c0 12-9 22-22 22s-21-10-21-22v-168h-71c-12 0-22-10-22-22v-78c-124-46-213-166-213-306-1-1-1-3-1-5 0-2 0-4 1-6 6-175 150-315 326-315 176 0 319 140 325 315 1 2 1 4 1 6 0 2 0 4 0 5z m-83-142h-72c11 35 17 74 19 115h91c-4-42-18-81-38-115z m-524 115h91c1-41 8-80 18-115h-72c-20 34-33 73-37 115z m32 159h76c-10-35-16-74-17-115h-92c3 41 14 81 33 115z m271 44v87c33-9 64-41 86-87h-86z m104-44c11-34 18-73 20-115h-124v115h104z m-148 131v-87h-87c22 46 53 78 87 87z m0-131v-115h-125c2 42 9 81 20 115h105z m-125-159h125v-115h-104c-11 34-19 74-21 115z m125-159v-84c-33 9-63 40-86 84h86z m44-84v84h85c-22-44-52-75-85-84z m0 128v115h124c-2-41-9-81-21-115h-103z m168 159c-2 41-8 80-18 115h75c0 0 1 1 2 1 18-35 30-74 32-116h-91z m30 159h-63c-15 35-33 64-55 87 46-18 87-48 118-87z m-289 186h138v-44c-22 5-45 8-69 8-24 0-47-3-69-7v43z m-33-99c-22-23-41-52-56-87h-63c31 39 72 69 119 87z m-110-449h56c12-28 27-53 44-73-39 17-73 42-100 73z m324-73c17 20 32 45 44 73h56c-28-31-62-56-100-73z m-456 391c-3-8-11-13-20-13-3 0-6 0-8 2l-84 36c-11 4-17 17-12 28 5 11 18 17 29 12l84-36c11-5 16-18 11-29z m-11-293c5-11 0-24-11-29l-84-36c-3-1-6-1-9-1-8 0-16 4-20 13-5 11 0 24 11 29l84 36c11 4 24-1 29-12z m-111 125c-12 0-22 9-22 21 0 12 10 22 22 22l91 1h0c12 0 22-10 22-22 0-12-10-22-22-22l-91 0c0 0 0 0 0 0z m818 168c-5 11 0 24 12 29l83 36c12 5 24-1 29-12 5-11 0-24-11-28l-84-36c-3-2-6-2-9-2-8 0-16 5-20 13z m106-346c-3-9-11-13-20-13-3 0-6 0-8 1l-84 36c-11 5-17 18-12 29 5 11 18 16 29 12l84-36c11-5 16-18 11-29z m39 199c-1-12-10-21-22-21 0 0 0 0 0 0l-92 0c-12 0-21 10-21 22 0 12 9 21 21 21 0 0 0 0 0 0l92 0c12 0 22-10 22-22z" horiz-adv-x="1000" />
<glyph glyph-name="icons-48" unicode="&#xe82f;" d="m498 611l498-456-78-86-420 384-414-383-79 85 493 456z" horiz-adv-x="1000" />
<glyph glyph-name="icons-49" unicode="&#xe830;" d="m768 354l-456-499-86 79 384 420-384 414 85 79 457-493z" horiz-adv-x="1000" />
<glyph glyph-name="icons-50" unicode="&#xe831;" d="m5 526l79 85 414-384 420 384 78-85-498-457-493 457z" horiz-adv-x="1000" />
<glyph glyph-name="icons-51" unicode="&#xe832;" d="m683 847l85-79-384-414 384-420-86-79-456 499 457 493z" horiz-adv-x="1000" />
</font>
</defs>
</svg>
