<?xml version="1.0" standalone="no"?>
<!DOCTYPE svg PUBLIC "-//W3C//DTD SVG 1.1//EN" "http://www.w3.org/Graphics/SVG/1.1/DTD/svg11.dtd" >
<svg xmlns="http://www.w3.org/2000/svg">
<metadata>
This is a custom SVG webfont generated by Font Squirrel.
Copyright   : Copyright c The Font Bureau Inc 2003 All rights reserved
Designer    : Petr van Blokland
Foundry     : The Font Bureau Inc
Foundry URL : httpwwwfontbureaucom
</metadata>
<defs>
<font id="ProformaUltraLight" horiz-adv-x="1024" >
<font-face units-per-em="2048" ascent="1536" descent="-512" />
<missing-glyph horiz-adv-x="409" />
<glyph unicode=" "  horiz-adv-x="409" />
<glyph unicode="&#x09;" horiz-adv-x="409" />
<glyph unicode="&#xa0;" horiz-adv-x="409" />
<glyph unicode="!" horiz-adv-x="409" d="M109 80q0 37 26.5 66.5t69.5 29.5q37 0 65.5 -27.5t28.5 -68.5q0 -37 -25.5 -65.5t-68.5 -28.5q-39 0 -67.5 24.5t-28.5 69.5zM152 1057v370h108v-370l-33 -686h-43z" />
<glyph unicode="&#x22;" horiz-adv-x="614" d="M123 1339h119l-27 -348h-65zM373 1339h119l-27 -348h-66z" />
<glyph unicode="#" d="M88 201v78h215v358h-215v74h215v290h78v-290h262v290h78v-290h215v-74h-215v-358h215v-78h-215v-289h-78v289h-262v-289h-78v289h-215zM381 279h262v358h-262v-358z" />
<glyph unicode="$" d="M236 717q0 98 63 173t180 93v277h68v-271q111 0 241 -39l17 -221h-68l-26 164q-88 35 -183 35q-100 0 -153 -48.5t-53 -136.5q0 -86 52 -125.5t179 -85.5q135 -47 201.5 -108.5t66.5 -177.5q0 -109 -72.5 -182.5t-201.5 -90.5v-266h-68v262q-115 4 -221 41l-16 219h67 l27 -151q86 -43 174 -43q98 0 161.5 50t63.5 136q0 88 -65.5 140.5t-186.5 93.5q-115 39 -181 99.5t-66 162.5z" />
<glyph unicode="%" horiz-adv-x="1843" d="M98 999q0 168 89 274.5t235 106.5q147 0 238.5 -101t91.5 -278q0 -172 -87 -280.5t-237 -108.5q-143 0 -236.5 106.5t-93.5 280.5zM180 993q0 -131 73 -224t177 -93q109 0 174.5 85t65.5 232.5t-69 236.5t-187 89q-104 0 -169 -90.5t-65 -235.5zM635 12l508 1372l65 -24 l-506 -1372zM1092 350q0 168 89 274.5t234 106.5q147 0 238.5 -101.5t91.5 -277.5q0 -172 -87 -280.5t-237 -108.5q-143 0 -236 106.5t-93 280.5zM1174 344q0 -131 72.5 -224t176.5 -93q109 0 174.5 85t65.5 232.5t-68.5 236.5t-187.5 89q-104 0 -168.5 -90.5t-64.5 -235.5z " />
<glyph unicode="&#x26;" horiz-adv-x="1536" d="M129 358q0 238 270 404q-113 100 -161 183t-48 179q0 129 104.5 218.5t256.5 89.5q106 0 179 -75t73 -194q0 -203 -293 -391l446 -455l218 379l59 154l-191 22v43h414v-43l-102 -22l-105 -154l-250 -420l213 -200l191 -33v-43h-285l-168 195q-154 -238 -409 -238 q-172 0 -292 115.5t-120 285.5zM217 393q0 -145 105.5 -252.5t248.5 -107.5q96 0 187.5 52t152.5 153l-473 485q-221 -152 -221 -330zM289 1137q0 -88 41 -161t141 -165q137 96 188.5 168t51.5 166t-56.5 156.5t-150.5 62.5q-90 0 -152.5 -62.5t-62.5 -164.5z" />
<glyph unicode="'" horiz-adv-x="364" d="M123 1339h119l-27 -348h-65z" />
<glyph unicode="(" horiz-adv-x="624" d="M90 522q0 154 37 293q100 369 426 617l33 -37q-145 -139 -228.5 -267.5t-126.5 -312.5q-33 -143 -32 -293q0 -152 32 -295q41 -168 116 -290.5t239 -284.5l-33 -39q-178 143 -273.5 276.5t-152.5 339.5q-37 141 -37 293z" />
<glyph unicode=")" horiz-adv-x="624" d="M39 -350q145 139 228 267t126 312q33 143 33 293q0 152 -33 295q-41 168 -115.5 291t-238.5 285l33 39q178 -143 273 -276.5t153 -340.5q37 -141 37 -293q0 -154 -37 -293q-100 -369 -426 -616z" />
<glyph unicode="*" d="M92 281l365 176l-365 178l58 98l335 -227l-30 403h114l-30 -403l335 227l58 -98l-365 -178l365 -176l-58 -99l-335 226l30 -402h-114l30 402l-335 -226z" />
<glyph unicode="+" d="M76 430v68h401v420h70v-420h401v-68h-401v-430h-70v430h-401z" />
<glyph unicode="," horiz-adv-x="368" d="M76 -211q72 18 105.5 67.5t21.5 116.5q-51 -6 -80 19.5t-29 70.5q0 37 23.5 64t66.5 27q49 0 79 -43t30 -117q0 -86 -47 -161t-150 -99z" />
<glyph unicode="-" horiz-adv-x="512" d="M45 451v67h422v-67h-422z" />
<glyph unicode="." horiz-adv-x="368" d="M88 80q0 37 26.5 66.5t69.5 29.5q37 0 66 -27.5t29 -68.5q0 -37 -26 -65.5t-69 -28.5q-39 0 -67.5 24.5t-28.5 69.5z" />
<glyph unicode="/" horiz-adv-x="600" d="M41 4l446 1374l72 -24l-446 -1372z" />
<glyph unicode="0" d="M86 463q0 217 122 356t310 139q197 0 308.5 -133t111.5 -362q0 -225 -116.5 -365.5t-307.5 -140.5q-188 0 -308 140.5t-120 365.5zM174 451q0 -178 99.5 -304.5t247 -128.5t238.5 118t91 318.5t-88 320.5t-246 122t-250 -130t-92 -316z" />
<glyph unicode="1" d="M213 0v43l229 33l23 141v479l-23 144l-229 32v43h590v-43l-230 -32l-22 -144v-479l22 -141l230 -33v-43h-590z" />
<glyph unicode="2" d="M195 817q135 141 321 141q125 0 200 -71.5t75 -198.5q0 -131 -116 -274.5t-356 -325.5h322l201 33l-21 -121h-622v66q258 221 340 311q150 166 149 297q0 94 -51 150.5t-148 56.5q-127 0 -262 -103z" />
<glyph unicode="3" d="M184 821q154 137 310 137q129 0 210.5 -76.5t81.5 -203.5q0 -109 -74.5 -198t-215.5 -136q141 -16 227 -108.5t86 -231.5q0 -176 -148.5 -294t-375.5 -118h-97v80q74 -12 127 -12q166 0 282 93t116 239q0 293 -443 299v59q176 12 297 94t121 234q0 92 -62.5 150.5 t-156.5 58.5q-113 0 -246 -107z" />
<glyph unicode="4" d="M96 72v80l545 806h49v-806l250 32l-22 -112h-228v-383l-88 -21v404h-506zM178 152h424v649z" />
<glyph unicode="5" d="M203 371l43 544h565l-23 -108l-184 20h-297l-33 -364q260 0 411 -116t151 -318q0 -188 -144.5 -312.5t-398.5 -124.5h-82v76q61 -12 125 -12q176 0 290.5 101.5t114.5 260.5q0 154 -123.5 253.5t-414.5 99.5z" />
<glyph unicode="6" d="M147 461q0 367 171 599t489 269l8 -61q-219 -33 -364.5 -181.5t-188.5 -408.5q53 59 132 94t159 37q147 2 240.5 -111.5t93.5 -296.5q0 -186 -110.5 -316t-270.5 -130t-259.5 126t-99.5 380zM250 479q0 -195 71.5 -322.5t213.5 -127.5q111 0 183.5 92t72.5 233 q0 160 -74 261.5t-195 101.5q-139 0 -264 -109q-8 -102 -8 -129z" />
<glyph unicode="7" d="M162 807l20 108h666v-43l-551 -1204l-90 37l545 1122h-396z" />
<glyph unicode="8" d="M137 279q0 127 88 230t230 171q-152 102 -211.5 172t-59.5 174q0 131 105.5 222t257.5 91q131 0 218 -79.5t87 -208.5q0 -111 -66.5 -203t-189.5 -150q170 -121 228.5 -203.5t58.5 -172.5q0 -150 -115 -257.5t-281 -107.5q-156 0 -253 87.5t-97 234.5zM246 297 q0 -117 77.5 -198t194.5 -81q106 0 184 72t78 174q0 113 -59 186.5t-219 188.5q-111 -53 -183.5 -146.5t-72.5 -195.5zM283 1059q0 -92 52 -153.5t206 -172.5q209 102 209 295q0 106 -61.5 179t-158.5 73q-104 0 -175.5 -61.5t-71.5 -159.5z" />
<glyph unicode="9" d="M135 512q0 190 109.5 318t275.5 128t262.5 -130t96.5 -373q0 -344 -169 -588t-493 -281l-10 60q55 14 86 22t89 32t95 49.5t88 71.5t84 102.5t64.5 138t48.5 180.5q-72 -78 -139.5 -107t-151.5 -29q-147 0 -241.5 110t-94.5 296zM231 561q0 -158 74 -261t195 -103 q156 0 266 110q10 106 10 135q0 186 -74.5 315.5t-214.5 129.5q-111 0 -183.5 -91.5t-72.5 -234.5z" />
<glyph unicode=":" horiz-adv-x="368" d="M86 80q0 37 26.5 66.5t69.5 29.5q37 0 65.5 -27.5t28.5 -68.5q0 -37 -25.5 -65.5t-68.5 -28.5q-39 0 -67.5 24.5t-28.5 69.5zM86 711q0 37 26.5 66.5t69.5 27.5q37 2 65.5 -25.5t28.5 -68.5q0 -39 -25.5 -68t-68.5 -27q-39 -2 -67.5 24t-28.5 71z" />
<glyph unicode=";" horiz-adv-x="368" d="M70 -209q72 18 105.5 67.5t21.5 116.5q-51 -6 -80 19.5t-29 71.5q0 37 23.5 63.5t66.5 26.5q49 0 79 -43t30 -117q0 -86 -47 -161t-150 -99zM78 717q0 37 26.5 66.5t69.5 29.5q37 0 65.5 -27.5t28.5 -68.5q0 -37 -25.5 -65.5t-68.5 -28.5q-39 0 -67.5 24.5t-28.5 69.5z " />
<glyph unicode="&#x3c;" d="M244 463l489 489l49 -49l-442 -440l442 -440l-49 -52z" />
<glyph unicode="=" d="M92 291v69h840v-69h-840zM92 545v67h840v-67h-840z" />
<glyph unicode="&#x3e;" d="M244 23l442 440l-442 440l49 49l489 -489l-489 -492z" />
<glyph unicode="?" horiz-adv-x="819" d="M66 1264q66 76 158.5 119.5t183.5 43.5q141 0 235 -86t94 -223q0 -215 -174 -373q-150 -137 -149 -374h-68q0 258 156 413q158 158 157 299q0 119 -75.5 191t-204.5 72q-154 0 -275 -121zM287 80q0 37 26.5 66.5t69.5 29.5q37 0 65.5 -27.5t28.5 -68.5q0 -37 -25.5 -65.5 t-68.5 -28.5q-39 0 -67.5 24.5t-28.5 69.5z" />
<glyph unicode="@" horiz-adv-x="2048" d="M152 420q0 375 266 633t647 258q340 0 585.5 -221.5t245.5 -530.5q0 -250 -157.5 -399.5t-413.5 -179.5l-102 -13l20 223q-125 -231 -313 -231q-100 0 -167 68.5t-67 177.5q0 131 111 217q109 80 416 84v141q0 123 -60.5 179.5t-152.5 56.5q-127 0 -236 -103l-33 37 q133 141 316 141q113 0 182.5 -71.5t69.5 -198.5v-471l22 -151q229 0 355 116.5t126 331.5q0 301 -228 518t-548 217q-338 0 -571.5 -228t-233.5 -572q0 -340 244 -583t592 -243q238 0 504 131l26 -49q-260 -145 -559 -145q-369 0 -627.5 251t-258.5 609zM791 217 q0 -74 45 -125t112.5 -51t143 50t131.5 138v224q-219 0 -328 -62q-104 -59 -104 -174z" />
<glyph unicode="A" horiz-adv-x="1370" d="M16 0v43l174 33l91 207l397 1095h37l387 -1095l88 -207l164 -33v-43h-469v43l164 33l-56 207l-94 272h-446l-103 -272l-53 -207l174 -33v-43h-455zM475 621h402l-199 569z" />
<glyph unicode="B" horiz-adv-x="1046" d="M63 0v43l168 33l23 207v774l-23 207l-168 32v43h490q178 0 259 -84t81 -211q0 -106 -67.5 -194t-190.5 -131q168 0 249 -89t81 -231q0 -186 -120 -292.5t-358 -106.5h-424zM352 283l21 -185q86 -35 174 -35q145 0 227 82t82 228q0 303 -348 303h-156v-393zM352 741h92 q180 0 258 72t78 215q0 111 -67.5 178.5t-204.5 67.5h-156v-533z" />
<glyph unicode="C" horiz-adv-x="1288" d="M104 688q0 307 171 495.5t507 188.5q182 0 379 -43l23 -295h-76l-45 238q-139 43 -303 43q-260 0 -402.5 -157t-142.5 -449q0 -305 153.5 -494.5t409.5 -189.5q178 0 307 59l43 221h76l-20 -295q-258 -43 -420 -43q-317 0 -488.5 192.5t-171.5 528.5z" />
<glyph unicode="D" horiz-adv-x="1411" d="M63 0v43l177 33l20 207v774l-20 207l-177 32v43h668q283 0 429.5 -162.5t146.5 -439.5q0 -336 -181.5 -536.5t-539.5 -200.5h-523zM358 283l17 -179q137 -35 272 -34q264 0 411.5 177t147.5 443q0 584 -616 584h-232v-991z" />
<glyph unicode="E" horiz-adv-x="1089" d="M63 0v43l177 33l20 207v774l-20 207l-177 32v43h900l22 -338h-65l-43 240l-197 33h-322v-555h185l176 22l20 174h56v-458h-56l-20 176l-176 20h-185v-370l23 -185l174 -32h174l184 32l45 207h66l-23 -305h-938z" />
<glyph unicode="F" horiz-adv-x="978" d="M63 0v43l177 33l20 207v774l-20 207l-177 32v43h879l21 -305h-66l-43 207l-197 33h-299v-555h174l175 22l22 174h55v-458h-55l-22 176l-175 20h-174v-370l23 -207l207 -33v-43h-525z" />
<glyph unicode="G" horiz-adv-x="1378" d="M104 671.5q0 323.5 172.5 512t528.5 188.5q180 0 371 -43l22 -295h-76l-39 238q-154 43 -311 43q-256 0 -406 -161q-153 -163 -153 -459q0 -308 158 -493q160 -187 428 -188q158 0 284 60v209l-20 206l-176 33v45h469v-45l-142 -33l-22 -206v-283q-242 -43 -420 -43 q-315 0 -491.5 195.5t-176.5 519z" />
<glyph unicode="H" horiz-adv-x="1445" d="M63 0v43l177 33l20 207v774l-20 207l-177 32v43h492v-43l-174 -32l-23 -207v-338h729v338l-20 207l-174 32v43h489v-43l-174 -32l-22 -207v-774l22 -207l174 -33v-43h-489v43l174 33l20 207v370h-729v-370l23 -207l174 -33v-43h-492z" />
<glyph unicode="I" horiz-adv-x="618" d="M63 0v43l177 33l20 207v774l-20 207l-177 32v43h492v-43l-174 -32l-23 -207v-774l23 -207l174 -33v-43h-492z" />
<glyph unicode="J" horiz-adv-x="600" d="M55 1296v43h490v-43l-174 -32l-23 -207v-983q0 -190 -49 -312t-178 -241l-33 39q162 176 162 471v1026l-21 207z" />
<glyph unicode="K" horiz-adv-x="1288" d="M63 0v43l177 33l20 207v774l-20 207l-177 32v43h480v-43l-162 -32l-23 -207v-774l23 -207l162 -33v-43h-480zM362 676l197 207l152 174l157 207l-151 32v43h485v-43l-174 -32l-225 -207l-309 -355l397 -419l223 -207l158 -33v-43h-506v43l158 33l-174 207l-170 186z" />
<glyph unicode="L" horiz-adv-x="1028" d="M63 0v43l177 33l20 207v774l-20 207l-177 32v43h492v-43l-174 -32l-23 -207v-774l23 -185l174 -32h164l184 32l43 207h66l-21 -305h-928z" />
<glyph unicode="M" horiz-adv-x="1740" d="M63 0v43l177 33l20 207v774l-20 207l-177 32v43h355l94 -282l348 -910l371 916l92 276h354v-43l-174 -32l-22 -207v-774l22 -207l174 -33v-43h-491v43l174 33l22 207v981l-397 -981l-104 -283h-76l-98 283l-381 981v-981l22 -207l174 -33v-43h-459z" />
<glyph unicode="N" horiz-adv-x="1439" d="M63 0v43l177 33l20 207v774l-20 207l-177 32v43h291l170 -282l592 -883v883l-22 207l-174 32v43h456v-43l-174 -32l-20 -207v-1096h-56l-194 322l-606 905v-905l22 -207l174 -33v-43h-459z" />
<glyph unicode="O" horiz-adv-x="1400" d="M104 674q0 330 160 520t461 190q270 0 420.5 -188t150.5 -514q0 -332 -157.5 -528.5t-460.5 -196.5q-291 0 -432.5 188.5t-141.5 528.5zM213 684q0 -309 121 -491.5t375 -182.5q207 0 342 174t135 473q0 309 -121 490.5t-348 181.5q-233 0 -368.5 -171t-135.5 -474z" />
<glyph unicode="P" horiz-adv-x="964" d="M63 0v43l177 33l20 207v774l-20 207l-177 32v43h527q160 0 247 -86t87 -227q0 -166 -118 -278.5t-374 -112.5h-74v-352l23 -207l194 -33v-43h-512zM358 713q76 -14 134 -15h7q146 0 232 81q90 85 90 235q0 117 -78 187q-80 73 -245 73h-140v-561z" />
<glyph unicode="Q" horiz-adv-x="1400" d="M104 674q0 332 165 521t454 189q283 0 428 -194.5t145 -507.5q0 -334 -164.5 -529.5t-424.5 -199.5l432 -215l-66 -98l-440 284l22 33h-11q-250 0 -393 183q-147 188 -147 534zM213 684q0 -326 123 -500t373 -174q207 0 342 170t135 477q0 193 -50.5 341.5t-158 239.5 t-260.5 91q-231 0 -367.5 -171t-136.5 -474z" />
<glyph unicode="R" horiz-adv-x="1126" d="M63 0v43l177 33l20 207v774l-20 207l-177 32v43h517q168 0 256 -85t88 -228q0 -131 -79 -228.5t-220 -133.5l219 -381l131 -207l135 -33v-43h-246l-135 283l-199 360h-172v-360l23 -207l151 -33v-43h-469zM358 719q76 -14 134 -14q147 0 238 82.5t91 224.5 q0 262 -317 262h-146v-555z" />
<glyph unicode="S" horiz-adv-x="980" d="M86 1008q0 150 111.5 263t322.5 113q139 0 328 -59l22 -291h-75l-39 219q-102 55 -238 56q-160 0 -246 -76t-86 -191q0 -66 22.5 -113.5t70 -82.5t89.5 -54.5t113 -46.5q84 -33 125 -49t107.5 -54t98.5 -75t57.5 -96t25.5 -133q0 -172 -127 -276.5t-336 -104.5 q-147 0 -313 59l-23 289h76l39 -211q135 -55 221 -55q154 0 258.5 71.5t104.5 194.5q0 74 -25 127t-74 89t-95 58.5t-120 49.5q-18 6 -28 10q-72 27 -116 46.5t-97.5 53t-83 68.5t-50 86.5t-20.5 114.5z" />
<glyph unicode="T" horiz-adv-x="1169" d="M29 1034l22 305h1067l23 -305h-66l-43 219l-207 21h-190v-991l20 -207l174 -33v-43h-489v43l174 33l23 207v991h-191l-209 -21l-43 -219h-65z" />
<glyph unicode="U" horiz-adv-x="1437" d="M41 1296v43h489v-43l-174 -32l-22 -207v-664q0 -176 98 -277.5t283 -101.5q186 0 298.5 105.5t112.5 349.5v588l-20 207l-176 32v43h467v-43l-174 -32l-23 -207v-572q0 -532 -500 -532q-465 0 -464 457v647l-21 207z" />
<glyph unicode="V" horiz-adv-x="1349" d="M16 1296v43h463v-43l-157 -32l53 -207l321 -922l297 922l49 207l-174 32v43h465v-43l-174 -32l-92 -213l-250 -768l-98 -326h-66l-104 326l-273 774l-92 207z" />
<glyph unicode="W" horiz-adv-x="2052" d="M16 1296v43h463v-43l-157 -32l53 -207l315 -922l301 922l-94 207l-168 32v43h463v-43l-158 -32l56 -207l319 -922l289 922l49 207l-174 32v43h463v-43l-174 -32l-93 -213l-239 -768l-98 -326h-66l-102 326l-236 665l-217 -665l-98 -326h-66l-102 326l-269 774l-92 207z " />
<glyph unicode="X" horiz-adv-x="1196" d="M16 0v43l140 33l149 207q14 25 40 64.5t79 124.5t88 142l35 56l-228 387l-139 207l-145 32v43h442v-43l-153 -32l110 -207l172 -291l178 291l115 207l-151 32v43h417v-43l-153 -32l-148 -207l-221 -357l246 -413l131 -211l160 -33v-43h-457v43l145 33l-94 207 q-188 322 -190 321l-52 -80l-98 -159l-49 -82l-106 -207l141 -33v-43h-404z" />
<glyph unicode="Y" horiz-adv-x="1175" d="M16 1296v43h435v-43l-158 -32l104 -207l217 -377l203 377l92 207l-153 32v43h403v-43l-135 -32l-137 -207l-234 -430v-344l21 -207l176 -33v-43h-492v43l174 33l23 207v305l-272 469l-142 207z" />
<glyph unicode="Z" horiz-adv-x="1081" d="M88 0v49l148 234l456 774l115 217h-391l-197 -33l-43 -184h-65l20 282h823v-43l-147 -239l-457 -774l-114 -217h462l185 32l45 185h65l-22 -283h-883z" />
<glyph unicode="[" horiz-adv-x="454" d="M137 -377v1821h289v-43l-174 -33l-23 -209v-1251l23 -207l174 -33v-45h-289z" />
<glyph unicode="\" horiz-adv-x="600" d="M41 1354l72 24l446 -1374l-72 -22z" />
<glyph unicode="]" horiz-adv-x="454" d="M41 -332l174 33l23 207v1251l-23 209l-174 33v43h289v-1821h-289v45z" />
<glyph unicode="^" horiz-adv-x="544" d="M16 1145l263 260l260 -260l-33 -33l-227 184l-230 -184z" />
<glyph unicode="_" d="M-10 -403h1044v-76h-1044v76z" />
<glyph unicode="`" horiz-adv-x="0" d="M-369 1419l64 64l338 -338l-33 -33z" />
<glyph unicode="a" horiz-adv-x="919" d="M94 203q0 125 111 215q113 88 416 88v162q0 102 -56.5 158.5t-154.5 56.5q-127 0 -236 -103l-33 37q129 141 316 141q111 0 181.5 -64.5t70.5 -205.5v-471l22 -151l152 -23v-43l-262 -33l22 223q-125 -233 -315 -233q-100 0 -167 66.5t-67 179.5zM190 215 q0 -76 44.5 -126t114 -50t144 50t128.5 140v224q-223 0 -328 -62q-103 -59 -103 -176z" />
<glyph unicode="b" horiz-adv-x="1032" d="M14 1384v43l303 33l-20 -252v-417q61 78 148 122.5t176 44.5q131 0 219 -123.5t88 -312.5q0 -248 -135.5 -406.5t-356.5 -158.5q-117 0 -227 43v1208l-21 154zM297 217l20 -168q92 -27 152 -26q184 0 274.5 139t90.5 338q0 166 -68 269t-172 103q-174 0 -297 -159v-496z " />
<glyph unicode="c" horiz-adv-x="886" d="M104 442q0 227 110 371.5t284 144.5q121 0 264 -43l22 -219h-59l-45 156q-106 45 -186 45q-141 0 -221 -110.5t-80 -313.5q0 -197 84.5 -315.5t232.5 -118.5q131 0 260 86l27 -45q-168 -123 -320 -123q-166 0 -269.5 132t-103.5 353z" />
<glyph unicode="d" horiz-adv-x="1032" d="M104 399q0 252 133.5 405.5t350.5 153.5q78 0 147 -16v266l-22 154l-174 22v43l303 33l-21 -252v-991l23 -151l151 -23v-43l-260 -43l21 184q-76 -98 -148.5 -141t-171.5 -43q-154 0 -243 117.5t-89 324.5zM197 438q0 -193 68.5 -296t201.5 -103q137 0 268 158v659 q-98 35 -178 35q-174 0 -267 -123t-93 -330z" />
<glyph unicode="e" horiz-adv-x="905" d="M104 451q0 242 96.5 374.5t276.5 132.5q164 0 246 -98t84 -313h-617q-2 -45 -2 -76q0 -205 91.5 -322.5t255.5 -117.5q117 0 217 73l26 -38q-74 -59 -136 -84t-153 -25q-178 0 -281.5 128t-103.5 366zM197 608h348l164 21q0 125 -64.5 198.5t-173.5 73.5 q-223 0 -274 -293z" />
<glyph unicode="f" horiz-adv-x="598" d="M68 0v43l151 23l23 151v639h-174v47l174 33v190q0 168 86 256t229 88q68 0 139 -28l-43 -90q-82 37 -149 37q-84 0 -130 -45.5t-46 -157.5v-271h241v-59h-241v-639l22 -151l174 -23v-43h-456z" />
<glyph unicode="g" horiz-adv-x="972" d="M100 -272q0 82 62.5 153.5t156.5 118.5q-168 37 -167 137q0 51 39.5 92t125.5 93q-84 35 -132 118.5t-48 196.5q0 141 92.5 231t243.5 90q113 0 207 -63l244 63v-96h-209q47 -66 65.5 -114t18.5 -123q0 -143 -92.5 -241.5t-235.5 -98.5q-49 0 -96 16q-127 -72 -127 -131 q0 -25 21.5 -45.5t65.5 -33.5t74.5 -20.5t84.5 -17.5q23 -4 80 -13t79.5 -13t67.5 -15.5t64.5 -21.5t49 -28.5t42 -40t22.5 -52.5t10 -70q0 -141 -129 -233t-319 -92q-158 0 -259.5 69.5t-101.5 184.5zM190 -244q0 -92 89.5 -150.5t228.5 -58.5q141 0 239.5 62.5t98.5 154.5 q0 70 -52.5 112t-226.5 75l-186 35q-72 -41 -131.5 -101.5t-59.5 -128.5zM233 629q0 -133 64.5 -209t183.5 -76q104 0 162.5 68.5t58.5 189.5q0 135 -64.5 219t-172.5 84q-104 0 -168 -71.5t-64 -204.5z" />
<glyph unicode="h" horiz-adv-x="1140" d="M61 1384v43l304 33l-21 -252v-413q113 164 297 163q131 0 209 -80.5t78 -224.5v-436l22 -151l152 -23v-43h-424v43l141 23l21 151v401q0 121 -56.5 190t-167.5 69q-61 0 -121.5 -32t-81 -53.5t-69.5 -72.5v-502l23 -151l141 -23v-43h-424v43l152 23l22 151v991l-22 154z " />
<glyph unicode="i" horiz-adv-x="579" d="M61 872v43l304 33l-21 -252v-479l21 -151l153 -23v-43h-436v43l154 23l20 151v479l-20 154zM190 1317q0 37 26 62.5t63 25.5q35 0 61.5 -26.5t26.5 -65.5q0 -33 -26 -58.5t-62.5 -25.5t-62.5 23.5t-26 64.5z" />
<glyph unicode="j" horiz-adv-x="505" d="M47 -426q199 164 199 440v682l-23 154l-174 22v43l309 33l-20 -252v-663q0 -330 -262 -504zM184 1317q0 37 26 62.5t62 25.5q35 0 61.5 -26.5t26.5 -65.5q0 -33 -25.5 -58.5t-62 -25.5t-62.5 23.5t-26 64.5z" />
<glyph unicode="k" horiz-adv-x="1026" d="M51 1384v43l303 33l-20 -252v-991l22 -151l131 -23v-43h-413v43l151 23l23 151v991l-23 154zM350 485l158 152l55 59l131 154l-137 22v43h383v-43l-121 -22l-174 -154l-196 -194l278 -285l168 -151l88 -23v-43h-360v43l108 23l-125 151l-102 115z" />
<glyph unicode="l" horiz-adv-x="579" d="M61 1384v43l304 33l-21 -252v-991l23 -151l151 -23v-43h-434v43l152 23l22 151v991l-22 154z" />
<glyph unicode="m" horiz-adv-x="1691" d="M61 872v43l283 33l-20 -176q135 186 311 186q193 0 260 -180q123 180 305 180q123 0 201 -83.5t78 -221.5v-436l20 -151l154 -23v-43h-426v43l141 23l23 151v401q0 119 -56.5 189t-163.5 70q-127 0 -260 -154v-506l23 -151l141 -23v-43h-413v43l141 23l20 151v401 q0 119 -57 189t-160 70q-74 0 -132 -39t-130 -115v-506l23 -151l141 -23v-43h-424v43l152 23l22 151v479l-22 154z" />
<glyph unicode="n" horiz-adv-x="1130" d="M61 872v43l283 33l-20 -176q133 186 313 186q125 0 203 -82.5t78 -222.5v-436l20 -151l154 -23v-43h-426v43l141 23l22 151v401q0 117 -58 188t-163 71q-74 0 -125 -30t-139 -124v-506l23 -151l141 -23v-43h-424v43l152 23l22 151v479l-22 154z" />
<glyph unicode="o" horiz-adv-x="1042" d="M104 438q0 242 115 381t318 139q190 0 295.5 -129t105.5 -374q0 -225 -116.5 -361.5t-309.5 -136.5q-188 0 -298 128t-110 353zM199 463q0 -205 85 -329t230 -124q147 0 239.5 123t92.5 328q0 199 -87 321.5t-229 122.5q-152 0 -241.5 -117.5t-89.5 -324.5z" />
<glyph unicode="p" horiz-adv-x="1081" d="M63 872v43l285 33l-22 -180q66 86 160 138t186 52q135 0 220 -121.5t85 -316.5q0 -246 -135 -404.5t-353 -158.5q-70 0 -141 16v-245l21 -152l174 -22v-43h-457v36l152 29l22 152v968l-22 154zM348 55q92 -33 174 -32q166 0 264.5 125.5t98.5 338.5q0 180 -63.5 282.5 t-178.5 102.5q-170 0 -295 -159v-658z" />
<glyph unicode="q" horiz-adv-x="985" d="M104 410q0 256 131.5 402t348.5 146q152 0 262 -43l-21 -219v-968l23 -152l141 -22v-43h-424v36l152 29l22 152v397q-76 -86 -150.5 -127t-172.5 -41q-135 0 -223.5 127t-88.5 326zM199 432q0 -172 66.5 -281.5t176.5 -109.5q166 0 297 160v495l-22 168q-92 25 -158 25 q-96 0 -169 -37t-112.5 -102.5t-59 -144.5t-19.5 -173z" />
<glyph unicode="r" horiz-adv-x="712" d="M61 872v43l283 33l-20 -186q109 197 286 196q41 0 95 -14l-33 -110q-45 16 -94 16q-137 0 -234 -137v-496l23 -151l174 -23v-43h-457v43l152 23l22 151v479l-22 154z" />
<glyph unicode="s" horiz-adv-x="749" d="M90 698q0 119 80 193t213 74q131 0 254 -56l20 -207h-59l-43 154q-100 37 -190 37q-195 0 -195 -170q0 -45 13.5 -77t49 -55.5t53 -30.5t72.5 -25q10 -4 17 -7q61 -20 86.5 -29.5t74 -34t69 -49t39 -68.5t18.5 -99q0 -119 -86.5 -203t-215.5 -84q-115 0 -247 55l-21 207 h60l43 -147q86 -41 167 -41q104 0 164 49t60 139q0 23 -4 42.5t-9.5 33.5t-18.5 29.5t-19.5 24.5t-28 21.5t-28.5 17.5t-34.5 15.5t-32.5 13.5t-38 13t-37 12q-129 45 -174 82q-72 61 -72 170z" />
<glyph unicode="t" horiz-adv-x="651" d="M70 856v47l170 33v235l90 17v-273h239v-59h-239v-659q0 -88 28.5 -120t87.5 -32q74 0 144 45l26 -43q-43 -33 -66.5 -48t-60 -28.5t-75.5 -13.5q-174 0 -174 201v698h-170z" />
<glyph unicode="u" horiz-adv-x="1130" d="M63 872v43l306 33l-21 -252v-399q0 -121 57.5 -189.5t161.5 -68.5q131 0 264 154v503l-20 154l-176 22v43l305 33l-20 -252v-479l20 -151l154 -23v-43l-263 -33l23 176q-82 -102 -151.5 -144t-161.5 -42q-129 0 -205 82t-76 223v434l-22 154z" />
<glyph unicode="v" horiz-adv-x="1007" d="M27 872v43h364v-43l-147 -22l49 -154l233 -587l213 587l39 154l-147 22v43h342v-43l-96 -22l-72 -154l-180 -479l-82 -260h-54l-96 260l-192 479l-88 154z" />
<glyph unicode="w" horiz-adv-x="1501" d="M27 872v43h364v-43l-147 -22l49 -154l229 -587l195 583l-78 158l-121 22v43h391v-43l-147 -22l49 -154l227 -587l207 587l39 154l-147 22v43h338v-43l-99 -22l-69 -154l-170 -479l-76 -260h-60l-96 260l-155 395l-129 -395l-78 -260h-60l-94 260l-188 479l-80 154z" />
<glyph unicode="x" horiz-adv-x="1001" d="M55 0v43l99 23l125 151q10 16 28.5 42t56 81t62.5 92l25 37l-152 227l-119 154l-108 22v43h377v-43l-132 -22l89 -154l102 -153l104 153l93 154l-125 22v43h338v-43l-127 -22l-113 -154q-139 -197 -141 -198l190 -281l119 -151l104 -23v-43h-379v43l131 23l-81 151 l-140 207l-133 -207l-92 -151l121 -23v-43h-322z" />
<glyph unicode="y" horiz-adv-x="1007" d="M31 872v43h364v-43l-147 -22l49 -154l233 -579l207 579l41 154l-143 22v43h342v-43l-98 -22l-70 -154l-447 -1208l-258 23v45l179 28l84 144l118 278l-280 690l-86 154z" />
<glyph unicode="z" horiz-adv-x="858" d="M90 0v55l115 162l303 479l92 164h-262l-148 -20l-36 -144h-62l23 219h608v-55l-111 -164l-301 -479l-88 -162h305l142 21l39 141h59l-20 -217h-658z" />
<glyph unicode="{" horiz-adv-x="550" d="M35 496v65l82 23q76 20 76 137v436q0 127 64.5 201t162.5 74h78v-52l-72 -10q-141 -23 -141 -172v-500q0 -63 -22.5 -101t-53.5 -46l-86 -23l80 -20q82 -20 82 -160v-491q0 -152 141 -170l72 -11v-53h-78q-98 0 -162.5 74t-64.5 201v438q0 115 -76 137z" />
<glyph unicode="|" horiz-adv-x="204" d="M66 0v1444h73v-1444h-73z" />
<glyph unicode="}" horiz-adv-x="550" d="M53 -324l72 11q141 23 141 172v499q0 63 22.5 101.5t53.5 46.5l86 22l-80 21q-82 20 -82 160v491q0 152 -141 170l-72 10v54h78q98 0 162.5 -74t64.5 -201v-438q0 -115 76 -137l82 -23v-65l-82 -23q-76 -20 -76 -137v-436q0 -127 -64.5 -201t-162.5 -74h-78v51z" />
<glyph unicode="~" d="M152 465q25 78 79 122t117 44q53 0 89 -19.5t91 -64.5q6 -4 20.5 -16.5t20.5 -17.5t19.5 -15.5t23 -15.5t22.5 -11t25.5 -8t24.5 -2q41 0 77 29.5t54 80.5l57 -28q-59 -164 -198 -164q-84 0 -187 92q-84 76 -149 76q-86 0 -129 -109z" />
<glyph unicode="&#xa1;" horiz-adv-x="409" d="M109 1309q0 37 25.5 65.5t68.5 28.5q39 0 67.5 -24.5t28.5 -69.5q0 -37 -26.5 -67t-69.5 -30q-37 0 -65.5 28t-28.5 69zM147 -39v371l33 686h43l33 -686v-371h-109z" />
<glyph unicode="&#xa2;" horiz-adv-x="886" d="M104 442q0 213 96.5 354.5t254.5 159.5v177h61v-175q113 -2 246 -43l22 -219h-59l-45 156q-94 41 -164 45v-858q129 4 254 86l27 -45q-141 -106 -281 -121v-166h-61v164q-158 10 -254.5 140t-96.5 345zM193 473q0 -178 69.5 -292.5t192.5 -137.5v852 q-125 -16 -193.5 -125t-68.5 -297z" />
<glyph unicode="&#xa3;" d="M70 0v43l141 33l22 207v376h-163v43l163 27v184q0 209 110 340t292 131q145 0 295 -120l-66 -82q-127 115 -268 114q-121 0 -192.5 -63.5t-71.5 -202.5v-311h289v-60h-289v-376l-23 -217h332l186 32l43 207h66l-23 -305h-843z" />
<glyph unicode="&#xa4;" horiz-adv-x="993" d="M27 336v43l123 24q-2 23 -3 68q0 37 3 55h-123v43l127 27h4q33 166 152.5 264t324.5 98q137 0 274 -30l17 -232h-68l-31 181q-104 29 -206 28q-156 0 -252.5 -81t-118.5 -238h397l-12 -60h-391v-41q0 -47 6 -90h397l-12 -59h-375q31 -152 129 -239t244 -87q113 0 211 41 l30 168h68l-16 -231q-160 -31 -303 -31q-197 0 -315 100.5t-148 278.5h-133z" />
<glyph unicode="&#xa5;" horiz-adv-x="849" d="M12 915v43h328v-43l-109 -22l70 -139l145 -252l136 252l63 139l-106 22v43h299v-43l-99 -24l-94 -143l-108 -199h262v-68h-299l-19 -32v-173h318v-67h-318l15 -141l122 -25v-43h-362v43l123 25l14 141h-356v67h356v144l-35 61h-321v68h280l-114 199l-99 143z" />
<glyph unicode="&#xa6;" horiz-adv-x="2048" d="M0 438q41 -10 90 -13t66 -5q-2 -20 7 -93t9 -184q0 -197 12.5 -263t48.5 -66q45 0 57.5 28.5t2.5 57.5l-10 28q0 248 -5.5 294t-5.5 206q113 16 209 70q74 41 154 145q-2 -25 12.5 -98.5t18.5 -112.5q8 -98 32 -217q27 -131 95 -174q12 -6 65 -18.5t62 -12.5h8q23 0 36 1 t31.5 5t26.5 16.5t8 30.5q0 29 -19.5 44.5t-41 17.5t-55 3t-46.5 3q-25 4 -45 51t-27.5 85t-7.5 46q-4 18 -13 67.5t-13 74t-12.5 67.5t-10.5 66.5t-5 51.5t-1 42t8 18q25 18 72 19q37 0 91 -57.5t54 -94.5q0 -31 -18 -53t-39.5 -31.5t-40 -25t-18.5 -35.5q0 -27 17.5 -42 t35.5 -11q20 2 30.5 8t30 24.5t40 33t59.5 73.5t67 78q84 55 148 61q18 -211 28 -360l-12 -121q0 -35 42 -78t106 -43q82 0 82 47q0 39 -17.5 47t-37 1t-37 18.5t-17.5 93.5q0 23 -9 104.5t-12 128.5l-6 197h45q2 -2 40 -19.5t55.5 -36t29.5 -51.5q6 -18 19.5 -116.5 t28 -224t24.5 -181.5q10 -25 80 -24q18 0 21 23.5t6.5 98t17.5 154.5q41 209 182 268l33 11q55 0 86 -9v-1087h-2048v950zM0 537v999h2048v-854l-86 8q-111 0 -190 -90q-47 -53 -91 -176q-6 12 -21 110.5t-52 149.5q-59 78 -164 96q-49 12 -55 21q-4 27 -4.5 73t-2.5 81.5 t-7 72.5t-21.5 56.5t-44.5 19.5q-23 0 -38.5 -14.5t-15.5 -38.5q0 -20 12.5 -63.5t12.5 -117.5q0 -80 -8 -92q-6 -12 -27.5 -16t-78 -25.5t-126.5 -70.5q-6 6 -21 22.5t-23 23.5l-21 21q-14 14 -23.5 22.5t-23 19.5t-23.5 17.5t-21.5 12.5t-21.5 9t-20 3q-131 0 -172 -51 q2 16 2 33q0 80 -47 154.5t-117 115.5q-143 88 -246 88q-37 0 -45 -16q0 2 -2 7t-2 8t-2 8t-4 8.5t-4 7.5t-5 6t-7.5 4t-8.5 3t-10 1q-47 0 -57 -27q-10 -23 0 -84q45 -342 47 -446q0 -14 2 -33.5t3 -28t-3 -17.5t-12 -15q-105 2 -152 -6zM240 1036q20 -10 39 -12 q78 -8 127 -37q59 -33 108 -83t49 -87q0 -113 -94 -188q-74 -59 -164 -72h-26q0 47 -12.5 240.5t-26.5 238.5z" />
<glyph unicode="&#xa7;" d="M225 0h60l39 -145q90 -43 170 -43q104 0 164.5 48t60.5 140q0 25 -4 47.5t-15.5 39.5t-19.5 30.5t-29.5 28t-31 21.5t-38 18.5t-36.5 14.5t-42 13t-38 12q-55 18 -90 34.5t-74 45.5t-57.5 71t-18.5 99q0 74 29 125t96 100q-115 63 -114 199q0 121 78.5 194.5t213.5 73.5 q123 0 242 -55l23 -217h-62l-37 162q-92 35 -180 37q-201 4 -201 -168q0 -25 6.5 -45.5t11.5 -35t22.5 -28.5t24.5 -22.5t32.5 -20.5t34 -15t40 -15.5t37.5 -14.5t48 -18.5t51.5 -20.5t44 -21.5t44 -27.5t32 -31.5t30.5 -43t15.5 -51.5t7.5 -64q0 -133 -101 -222 q100 -63 101 -202q0 -123 -85 -205t-221 -82q-117 0 -241 53zM303 502q0 -68 34 -108t130 -75l182 -65q72 78 72 170q0 74 -42 119t-157 88l-123 45q-96 -78 -96 -174z" />
<glyph unicode="&#xa8;" horiz-adv-x="0" d="M-240 1274q0 31 20.5 54.5t55.5 23.5q33 0 54.5 -20.5t21.5 -57.5q0 -31 -19.5 -53.5t-56.5 -22.5q-31 0 -53.5 22.5t-22.5 53.5zM86 1274q0 31 20.5 54.5t55.5 23.5q33 0 54.5 -20.5t21.5 -57.5q0 -31 -19.5 -53.5t-56.5 -22.5q-31 0 -53.5 22.5t-22.5 53.5z" />
<glyph unicode="&#xa9;" horiz-adv-x="1638" d="M113 510q0 295 207.5 501t498.5 206q297 0 502 -206t205 -501q0 -289 -208 -497t-499 -208t-498.5 205t-207.5 500zM193 510q0 -258 184 -442.5t442 -184.5t442.5 184.5t184.5 442.5t-184.5 443.5t-442.5 185.5q-260 0 -443 -182.5t-183 -446.5zM459 516q-2 180 92 295 t280 115q106 0 216 -37l18 -170h-61l-29 117q-94 29 -156 28q-135 0 -202.5 -89t-67.5 -244.5t74.5 -252t203.5 -96.5q96 0 177 33l32 121h62l-19 -170q-145 -43 -258 -43q-170 0 -265 103.5t-97 289.5z" />
<glyph unicode="&#xaa;" horiz-adv-x="786" d="M125 807q0 117 96 176t297 59v97q0 168 -149 168q-92 0 -179 -80l-34 41q102 113 250 112q82 0 138 -50t56 -156v-357l16 -106l115 -17v-47l-213 -26l14 145q-84 -152 -225 -152q-80 0 -131 53.5t-51 139.5zM213 817q0 -51 29.5 -88t79.5 -37q53 0 106 37t90 98v158 q-152 0 -231 -43q-74 -43 -74 -125z" />
<glyph unicode="&#xab;" d="M70 463l428 422l39 -41l-326 -381l326 -381l-39 -41zM463 463l428 422l39 -41l-326 -381l326 -381l-39 -41z" />
<glyph unicode="&#xac;" horiz-adv-x="696" d="M86 991q0 276 129 451.5t369 206.5l6 -60q-141 -25 -258 -124t-152 -302q78 90 213 90q111 0 183.5 -87t72.5 -220q0 -145 -82 -243.5t-211 -98.5q-117 0 -193.5 100.5t-76.5 286.5zM172 1006q0 -158 53.5 -245t153.5 -87q82 0 133 65.5t53 171.5q2 115 -52 191t-144 76 q-94 0 -191 -82q-6 -61 -6 -90z" />
<glyph unicode="&#xad;" horiz-adv-x="512" d="M45 451v67h422v-67h-422z" />
<glyph unicode="&#xae;" horiz-adv-x="1638" d="M113 510q0 295 207.5 501t498.5 206q297 0 502 -206t205 -501q0 -289 -208 -497t-499 -208t-498.5 205t-207.5 500zM193 510q0 -258 184 -442.5t442 -184.5t442.5 184.5t184.5 442.5t-184.5 443.5t-442.5 185.5q-260 0 -443 -182.5t-183 -446.5zM514 848v45h307 q104 0 150.5 -44t46.5 -134q0 -131 -137 -187l112 -192l76 -111l94 -22v-43h-174l-82 168l-102 184h-76v-180l16 -109l107 -20v-43h-322v43l103 20l14 109v389l-14 106zM729 563h16q186 0 187 142q0 135 -170 135h-33v-277z" />
<glyph unicode="&#xaf;" horiz-adv-x="0" d="M-272 1190v67h544v-67h-544z" />
<glyph unicode="&#x2c9;" horiz-adv-x="0" d="M-272 1190v67h544v-67h-544z" />
<glyph unicode="&#xb0;" horiz-adv-x="600" d="M125 1208q0 68 52 122t124 54t123 -50t51 -126q0 -70 -50 -122t-124 -52q-70 0 -123 51t-53 123zM197 1208q0 -45 28.5 -78.5t75.5 -33.5q43 0 72.5 32.5t29.5 79.5t-29.5 81t-72.5 34q-41 0 -72.5 -34t-31.5 -81z" />
<glyph unicode="&#xb1;" horiz-adv-x="1751" d="M68 0v43l151 23l23 151v639h-174v47l174 33v164q0 154 97 259t271 105q168 0 308 -121q104 123 280 123q127 0 338 -51l-20 -207v-991l22 -151l152 -23v-43h-414v43l131 23l20 151v991l-16 144q-133 43 -235 43q-121 0 -187.5 -63.5t-66.5 -180.5v-236h241v-59h-241v-639 l22 -151l131 -23v-43h-413v43l151 23l23 151v639h-508v-639l22 -151l131 -23v-43h-413zM328 915h508v177q0 109 34 174q-117 129 -290 129q-113 0 -182.5 -61.5t-69.5 -194.5v-224z" />
<glyph unicode="&#xb2;" horiz-adv-x="2035" d="M14 436v23h183v-23l-74 -10l24 -78l117 -293l107 293l18 78l-74 10v23h172v-23l-49 -10l-35 -78l-90 -239l-41 -132h-26l-49 132l-97 239l-43 78zM483 41q0 47 47 47q18 0 33 -13.5t15 -33.5q0 -18 -12.5 -33.5t-35.5 -15.5q-47 0 -47 49zM934 0v23l115 16l12 70v239 l-12 72l-115 16v23h295v-23l-115 -16l-10 -72v-239l10 -70l115 -16v-23h-295zM1384 41q0 47 48 47q18 0 32.5 -13.5t14.5 -33.5q0 -18 -12.5 -33.5t-34.5 -15.5q-48 0 -48 49zM1616 412q78 68 156 67q63 0 104 -38t41 -101q0 -119 -145 -168q72 -8 114.5 -54t42.5 -116 q0 -88 -73.5 -147.5t-188.5 -59.5h-49v41q29 -6 63 -6q84 0 141.5 46t57.5 120q0 147 -221 149v31q90 6 149.5 47t59.5 117q0 45 -31 74.5t-78 29.5q-57 0 -123 -53z" />
<glyph unicode="&#xb3;" d="M184 821q154 137 310 137q129 0 210.5 -76.5t81.5 -203.5q0 -109 -74.5 -198t-215.5 -136q141 -16 227 -108.5t86 -231.5q0 -176 -148.5 -294t-375.5 -118h-97v80q74 -12 127 -12q166 0 282 93t116 239q0 293 -443 299v59q176 12 297 94t121 234q0 92 -62.5 150.5 t-156.5 58.5q-113 0 -246 -107z" />
<glyph unicode="&#xb4;" horiz-adv-x="0" d="M-33 1145l338 338l64 -64l-369 -307z" />
<glyph unicode="&#xb5;" horiz-adv-x="655" d="M82 1268q106 113 254 112q98 0 154.5 -54t58.5 -157q2 -90 -78 -194.5t-260 -247.5h217l162 27l-21 -109h-479v62q190 158 277.5 259t87.5 193q0 66 -35 107t-105 41q-94 0 -198 -80z" />
<glyph unicode="&#x3bc;" horiz-adv-x="655" d="M82 1268q106 113 254 112q98 0 154.5 -54t58.5 -157q2 -90 -78 -194.5t-260 -247.5h217l162 27l-21 -109h-479v62q190 158 277.5 259t87.5 193q0 66 -35 107t-105 41q-94 0 -198 -80z" />
<glyph unicode="&#xb6;" d="M109 1122q0 88 62 152.5t155 64.5h610v-43l-174 -32l-23 -207v-1057h-98v1274h-199v-1274h-98v903q-106 0 -170.5 61.5t-64.5 157.5z" />
<glyph unicode="&#xb7;" horiz-adv-x="368" d="M88 475q0 37 26.5 66.5t69.5 29.5q37 0 66 -27.5t29 -68.5q0 -37 -26 -65.5t-69 -28.5q-39 0 -67.5 24.5t-28.5 69.5z" />
<glyph unicode="&#x2219;" horiz-adv-x="368" d="M88 475q0 37 26.5 66.5t69.5 29.5q37 0 66 -27.5t29 -68.5q0 -37 -26 -65.5t-69 -28.5q-39 0 -67.5 24.5t-28.5 69.5z" />
<glyph unicode="&#xb8;" horiz-adv-x="0" d="M-76 -412q61 -16 92 -16q59 0 98.5 35t39.5 90q0 59 -47.5 93t-133.5 34h-6v188h66v-106h6q90 0 152.5 -54.5t62.5 -134.5q0 -86 -69.5 -140t-200.5 -54h-60v65z" />
<glyph unicode="&#xb9;" horiz-adv-x="1075" d="M68 0v43l151 23l23 151v639h-174v47l174 33v164q0 156 95 260t269 104q160 0 307 -135l-65 -65q-117 131 -273 131q-111 0 -179 -61.5t-68 -194.5v-224h293l299 33l-21 -252v-663q0 -328 -262 -504l-29 41q199 154 199 444v682l-21 144l-165 16h-293v-639l22 -151 l131 -23v-43h-413z" />
<glyph unicode="&#xba;" horiz-adv-x="868" d="M113 981q0 186 88 292.5t245 106.5q145 0 228.5 -99t83.5 -288q0 -168 -89 -274.5t-241 -106.5q-145 0 -230 97.5t-85 271.5zM203 1001q-2 -147 58.5 -239t166.5 -92q104 0 172 91t68 238q0 145 -62.5 235.5t-165.5 90.5q-109 0 -172 -85t-65 -239z" />
<glyph unicode="&#xbb;" d="M94 82l326 381l-326 381l39 41l428 -422l-428 -422zM485 82l326 381l-326 381l39 41l428 -422l-428 -422z" />
<glyph unicode="&#xbc;" horiz-adv-x="2048" d="M0 438q41 -10 90 -13t66 -5q-2 -20 7 -93t9 -184q0 -197 12.5 -263t48.5 -66q45 0 57.5 28.5t2.5 57.5l-10 28q0 248 -5.5 294t-5.5 206q113 16 209 70q74 41 154 145q-2 -25 12.5 -98.5t18.5 -112.5q8 -98 32 -217q27 -131 95 -174q12 -6 65 -18.5t62 -12.5h8q23 0 36 1 t31.5 5t26.5 16.5t8 30.5q0 29 -19.5 44.5t-41 17.5t-55 3t-46.5 3q-25 4 -45 51t-27.5 85t-7.5 46q-4 18 -13 67.5t-13 74t-12.5 67.5t-10.5 66.5t-5 51.5t-1 42t8 18q25 18 72 19q37 0 91 -57.5t54 -94.5q0 -31 -18 -53t-39.5 -31.5t-40 -25t-18.5 -35.5q0 -27 17.5 -42 t35.5 -11q20 2 30.5 8t30 24.5t40 33t59.5 73.5t67 78q84 55 148 61q18 -211 28 -360l-12 -121q0 -35 42 -78t106 -43q82 0 82 47q0 39 -17.5 47t-37 1t-37 18.5t-17.5 93.5q0 23 -9 104.5t-12 128.5l-6 197h45q2 -2 40 -19.5t55.5 -36t29.5 -51.5q6 -18 19.5 -116.5 t28 -224t24.5 -181.5q10 -25 80 -24q18 0 21 23.5t6.5 98t17.5 154.5q41 209 182 268l33 11q55 0 86 -9v-1087h-2048v950zM0 537v999h2048v-854l-86 8q-111 0 -190 -90q-47 -53 -91 -176q-6 12 -21 110.5t-52 149.5q-59 78 -164 96q-49 12 -55 21q-4 27 -4.5 73t-2.5 81.5 t-7 72.5t-21.5 56.5t-44.5 19.5q-23 0 -38.5 -14.5t-15.5 -38.5q0 -20 12.5 -63.5t12.5 -117.5q0 -80 -8 -92q-6 -12 -27.5 -16t-78 -25.5t-126.5 -70.5q-6 6 -21 22.5t-23 23.5l-21 21q-14 14 -23.5 22.5t-23 19.5t-23.5 17.5t-21.5 12.5t-21.5 9t-20 3q-131 0 -172 -51 q2 16 2 33q0 80 -47 154.5t-117 115.5q-143 88 -246 88q-37 0 -45 -16q0 2 -2 7t-2 8t-2 8t-4 8.5t-4 7.5t-5 6t-7.5 4t-8.5 3t-10 1q-47 0 -57 -27q-10 -23 0 -84q45 -342 47 -446q0 -14 2 -33.5t3 -28t-3 -17.5t-12 -15q-105 2 -152 -6zM240 1036q20 -10 39 -12 q78 -8 127 -37q59 -33 108 -83t49 -87q0 -113 -94 -188q-74 -59 -164 -72h-26q0 47 -12.5 240.5t-26.5 238.5z" />
<glyph unicode="&#xbd;" horiz-adv-x="2048" d="M0 438q41 -10 90 -13t66 -5q-2 -20 7 -93t9 -184q0 -197 12.5 -263t48.5 -66q45 0 57.5 28.5t2.5 57.5l-10 28q0 248 -5.5 294t-5.5 206q113 16 209 70q74 41 154 145q-2 -25 12.5 -98.5t18.5 -112.5q8 -98 32 -217q27 -131 95 -174q12 -6 65 -18.5t62 -12.5h8q23 0 36 1 t31.5 5t26.5 16.5t8 30.5q0 29 -19.5 44.5t-41 17.5t-55 3t-46.5 3q-25 4 -45 51t-27.5 85t-7.5 46q-4 18 -13 67.5t-13 74t-12.5 67.5t-10.5 66.5t-5 51.5t-1 42t8 18q25 18 72 19q37 0 91 -57.5t54 -94.5q0 -31 -18 -53t-39.5 -31.5t-40 -25t-18.5 -35.5q0 -27 17.5 -42 t35.5 -11q20 2 30.5 8t30 24.5t40 33t59.5 73.5t67 78q84 55 148 61q18 -211 28 -360l-12 -121q0 -35 42 -78t106 -43q82 0 82 47q0 39 -17.5 47t-37 1t-37 18.5t-17.5 93.5q0 23 -9 104.5t-12 128.5l-6 197h45q2 -2 40 -19.5t55.5 -36t29.5 -51.5q6 -18 19.5 -116.5 t28 -224t24.5 -181.5q10 -25 80 -24q18 0 21 23.5t6.5 98t17.5 154.5q41 209 182 268l33 11q55 0 86 -9v-1087h-2048v950zM0 537v999h2048v-854l-86 8q-111 0 -190 -90q-47 -53 -91 -176q-6 12 -21 110.5t-52 149.5q-59 78 -164 96q-49 12 -55 21q-4 27 -4.5 73t-2.5 81.5 t-7 72.5t-21.5 56.5t-44.5 19.5q-23 0 -38.5 -14.5t-15.5 -38.5q0 -20 12.5 -63.5t12.5 -117.5q0 -80 -8 -92q-6 -12 -27.5 -16t-78 -25.5t-126.5 -70.5q-6 6 -21 22.5t-23 23.5l-21 21q-14 14 -23.5 22.5t-23 19.5t-23.5 17.5t-21.5 12.5t-21.5 9t-20 3q-131 0 -172 -51 q2 16 2 33q0 80 -47 154.5t-117 115.5q-143 88 -246 88q-37 0 -45 -16q0 2 -2 7t-2 8t-2 8t-4 8.5t-4 7.5t-5 6t-7.5 4t-8.5 3t-10 1q-47 0 -57 -27q-10 -23 0 -84q45 -342 47 -446q0 -14 2 -33.5t3 -28t-3 -17.5t-12 -15q-105 2 -152 -6zM240 1036q20 -10 39 -12 q78 -8 127 -37q59 -33 108 -83t49 -87q0 -113 -94 -188q-74 -59 -164 -72h-26q0 47 -12.5 240.5t-26.5 238.5z" />
<glyph unicode="&#xbe;" horiz-adv-x="2048" d="M0 438q41 -10 90 -13t66 -5q-2 -20 7 -93t9 -184q0 -197 12.5 -263t48.5 -66q45 0 57.5 28.5t2.5 57.5l-10 28q0 248 -5.5 294t-5.5 206q113 16 209 70q74 41 154 145q-2 -25 12.5 -98.5t18.5 -112.5q8 -98 32 -217q27 -131 95 -174q12 -6 65 -18.5t62 -12.5h8q23 0 36 1 t31.5 5t26.5 16.5t8 30.5q0 29 -19.5 44.5t-41 17.5t-55 3t-46.5 3q-25 4 -45 51t-27.5 85t-7.5 46q-4 18 -13 67.5t-13 74t-12.5 67.5t-10.5 66.5t-5 51.5t-1 42t8 18q25 18 72 19q37 0 91 -57.5t54 -94.5q0 -31 -18 -53t-39.5 -31.5t-40 -25t-18.5 -35.5q0 -27 17.5 -42 t35.5 -11q20 2 30.5 8t30 24.5t40 33t59.5 73.5t67 78q84 55 148 61q18 -211 28 -360l-12 -121q0 -35 42 -78t106 -43q82 0 82 47q0 39 -17.5 47t-37 1t-37 18.5t-17.5 93.5q0 23 -9 104.5t-12 128.5l-6 197h45q2 -2 40 -19.5t55.5 -36t29.5 -51.5q6 -18 19.5 -116.5 t28 -224t24.5 -181.5q10 -25 80 -24q18 0 21 23.5t6.5 98t17.5 154.5q41 209 182 268l33 11q55 0 86 -9v-1087h-2048v950zM0 537v999h2048v-854l-86 8q-111 0 -190 -90q-47 -53 -91 -176q-6 12 -21 110.5t-52 149.5q-59 78 -164 96q-49 12 -55 21q-4 27 -4.5 73t-2.5 81.5 t-7 72.5t-21.5 56.5t-44.5 19.5q-23 0 -38.5 -14.5t-15.5 -38.5q0 -20 12.5 -63.5t12.5 -117.5q0 -80 -8 -92q-6 -12 -27.5 -16t-78 -25.5t-126.5 -70.5q-6 6 -21 22.5t-23 23.5l-21 21q-14 14 -23.5 22.5t-23 19.5t-23.5 17.5t-21.5 12.5t-21.5 9t-20 3q-131 0 -172 -51 q2 16 2 33q0 80 -47 154.5t-117 115.5q-143 88 -246 88q-37 0 -45 -16q0 2 -2 7t-2 8t-2 8t-4 8.5t-4 7.5t-5 6t-7.5 4t-8.5 3t-10 1q-47 0 -57 -27q-10 -23 0 -84q45 -342 47 -446q0 -14 2 -33.5t3 -28t-3 -17.5t-12 -15q-105 2 -152 -6zM240 1036q20 -10 39 -12 q78 -8 127 -37q59 -33 108 -83t49 -87q0 -113 -94 -188q-74 -59 -164 -72h-26q0 47 -12.5 240.5t-26.5 238.5z" />
<glyph unicode="&#xbf;" horiz-adv-x="819" d="M66 270q0 215 174 373q150 137 149 375h68q0 -258 -156 -414q-158 -158 -158 -299q0 -119 76 -190.5t205 -71.5q154 0 274 121l39 -39q-66 -76 -159 -120t-183 -44q-141 0 -235 86t-94 223zM326 1309q0 37 25.5 65.5t68.5 28.5q39 0 67.5 -24.5t28.5 -69.5 q0 -37 -26.5 -67t-69.5 -30q-37 0 -65.5 28t-28.5 69z" />
<glyph unicode="&#xc0;" horiz-adv-x="1370" d="M16 0v43l174 33l91 207l397 1095h37l387 -1095l88 -207l164 -33v-43h-469v43l164 33l-56 207l-94 272h-446l-103 -272l-53 -207l174 -33v-43h-455zM315 1845l64 64l338 -338l-33 -33zM475 621h402l-199 569z" />
<glyph unicode="&#xc1;" horiz-adv-x="1370" d="M16 0v43l174 33l91 207l397 1095h37l387 -1095l88 -207l164 -33v-43h-469v43l164 33l-56 207l-94 272h-446l-103 -272l-53 -207l174 -33v-43h-455zM475 621h402l-199 569zM651 1571l338 338l64 -64l-369 -307z" />
<glyph unicode="&#xc2;" horiz-adv-x="1370" d="M16 0v43l174 33l91 207l397 1095h37l387 -1095l88 -207l164 -33v-43h-469v43l164 33l-56 207l-94 272h-446l-103 -272l-53 -207l174 -33v-43h-455zM430 1571l262 260l260 -260l-32 -33l-228 184l-229 -184zM475 621h402l-199 569z" />
<glyph unicode="&#xc3;" horiz-adv-x="1370" d="M16 0v43l174 33l91 207l397 1095h37l387 -1095l88 -207l164 -33v-43h-469v43l164 33l-56 207l-94 272h-446l-103 -272l-53 -207l174 -33v-43h-455zM385 1632q18 63 61 101.5t103 38.5q29 0 59.5 -13.5t46 -25t52.5 -41.5q6 -4 22 -18.5t23.5 -18.5t20.5 -12.5t26.5 -11.5 t27.5 -3q35 0 66 23.5t45 66.5l47 -22q-49 -139 -166 -140q-63 0 -157 80q-76 63 -121 64q-78 0 -109 -90zM475 621h402l-199 569z" />
<glyph unicode="&#xc4;" horiz-adv-x="1370" d="M16 0v43l174 33l91 207l397 1095h37l387 -1095l88 -207l164 -33v-43h-469v43l164 33l-56 207l-94 272h-446l-103 -272l-53 -207l174 -33v-43h-455zM444 1700q0 31 20.5 54.5t55.5 23.5q33 0 54.5 -20.5t21.5 -57.5q0 -31 -19.5 -53.5t-56.5 -22.5q-31 0 -53.5 22.5 t-22.5 53.5zM475 621h402l-199 569zM770 1700q0 31 20.5 54.5t55.5 23.5q33 0 54.5 -20.5t21.5 -57.5q0 -31 -19.5 -53.5t-56.5 -22.5q-31 0 -53.5 22.5t-22.5 53.5z" />
<glyph unicode="&#xc5;" horiz-adv-x="1370" d="M16 0v43l174 33l91 207l397 1095h37l387 -1095l88 -207l164 -33v-43h-469v43l164 33l-56 207l-94 272h-446l-103 -272l-53 -207l174 -33v-43h-455zM475 621h402l-199 569zM535 1656.5q0 61.5 43 101.5t106 40q61 0 105.5 -39t44.5 -102q0 -61 -42 -101t-108 -40 q-63 0 -106 39.5t-43 101zM614 1657q0 -88 70 -88q68 0 68 88q0 90 -68 90q-70 0 -70 -90z" />
<glyph unicode="&#xc6;" horiz-adv-x="1785" d="M16 0v43l158 33l135 207l584 981l-131 32v43h899l20 -305h-63l-45 207l-197 33h-319v-555h184l174 22l23 174h53v-458h-53l-23 176l-174 20h-184v-370l20 -185l174 -32h174l187 32l43 207h65l-22 -305h-936v43l174 33l22 207v272h-409l-152 -266l-108 -213l168 -33v-43 h-441zM588 621h370v626z" />
<glyph unicode="&#xc7;" horiz-adv-x="1288" d="M104 686q0 307 171 495.5t507 188.5q182 0 379 -43l23 -295h-76l-45 238q-139 43 -303 43q-260 0 -402.5 -157t-142.5 -449q0 -305 153.5 -494.5t409.5 -189.5q178 0 307 59l43 221h76l-20 -295q-258 -43 -418 -43v-71h6q90 0 152.5 -54.5t62.5 -134.5q0 -86 -69.5 -140 t-200.5 -54h-60v65q61 -16 93 -16q59 0 98 34.5t39 90.5q0 59 -47 93t-133 34h-7v155q-287 20 -441.5 211t-154.5 508z" />
<glyph unicode="&#xc8;" horiz-adv-x="1089" d="M63 0v43l177 33l20 207v774l-20 207l-177 32v43h900l22 -338h-65l-43 240l-197 33h-322v-555h185l176 22l20 174h56v-458h-56l-20 176l-176 20h-185v-370l23 -185l174 -32h174l184 32l45 207h66l-23 -305h-938zM176 1845l64 64l338 -338l-33 -33z" />
<glyph unicode="&#xc9;" horiz-adv-x="1089" d="M63 0v43l177 33l20 207v774l-20 207l-177 32v43h900l22 -338h-65l-43 240l-197 33h-322v-555h185l176 22l20 174h56v-458h-56l-20 176l-176 20h-185v-370l23 -185l174 -32h174l184 32l45 207h66l-23 -305h-938zM512 1571l338 338l63 -64l-368 -307z" />
<glyph unicode="&#xca;" horiz-adv-x="1089" d="M63 0v43l177 33l20 207v774l-20 207l-177 32v43h900l22 -338h-65l-43 240l-197 33h-322v-555h185l176 22l20 174h56v-458h-56l-20 176l-176 20h-185v-370l23 -185l174 -32h174l184 32l45 207h66l-23 -305h-938zM291 1571l262 260l260 -260l-33 -33l-227 184l-229 -184z " />
<glyph unicode="&#xcb;" horiz-adv-x="1089" d="M63 0v43l177 33l20 207v774l-20 207l-177 32v43h900l22 -338h-65l-43 240l-197 33h-322v-555h185l176 22l20 174h56v-458h-56l-20 176l-176 20h-185v-370l23 -185l174 -32h174l184 32l45 207h66l-23 -305h-938zM305 1700q0 31 20.5 54.5t55.5 23.5q33 0 54.5 -20.5 t21.5 -57.5q0 -31 -19.5 -53.5t-56.5 -22.5q-31 0 -53.5 22.5t-22.5 53.5zM631 1700q0 31 20.5 54.5t55.5 23.5q33 0 54 -20.5t21 -57.5q0 -31 -19.5 -53.5t-55.5 -22.5q-31 0 -53.5 22.5t-22.5 53.5z" />
<glyph unicode="&#xcc;" horiz-adv-x="618" d="M-59 1845l63 64l338 -338l-33 -33zM63 0v43l177 33l20 207v774l-20 207l-177 32v43h492v-43l-174 -32l-23 -207v-774l23 -207l174 -33v-43h-492z" />
<glyph unicode="&#xcd;" horiz-adv-x="618" d="M63 0v43l177 33l20 207v774l-20 207l-177 32v43h492v-43l-174 -32l-23 -207v-774l23 -207l174 -33v-43h-492zM276 1571l338 338l64 -64l-369 -307z" />
<glyph unicode="&#xce;" horiz-adv-x="618" d="M55 1571l262 260l261 -260l-33 -33l-228 184l-229 -184zM63 0v43l177 33l20 207v774l-20 207l-177 32v43h492v-43l-174 -32l-23 -207v-774l23 -207l174 -33v-43h-492z" />
<glyph unicode="&#xcf;" horiz-adv-x="618" d="M63 0v43l177 33l20 207v774l-20 207l-177 32v43h492v-43l-174 -32l-23 -207v-774l23 -207l174 -33v-43h-492zM70 1700q0 31 20.5 54.5t54.5 23.5q33 0 54.5 -20.5t21.5 -57.5q0 -31 -19.5 -53.5t-56.5 -22.5q-31 0 -53 22.5t-22 53.5zM395 1700q0 31 20.5 54.5t55.5 23.5 q33 0 54.5 -20.5t21.5 -57.5q0 -31 -19.5 -53.5t-56.5 -22.5q-31 0 -53.5 22.5t-22.5 53.5z" />
<glyph unicode="&#xd0;" horiz-adv-x="1411" d="M45 647v68h215v342l-20 207l-177 32v43h668q283 0 429.5 -162.5t146.5 -439.5q0 -336 -181.5 -536.5t-539.5 -200.5h-523v43l177 33l20 207v364h-215zM358 283l17 -179q137 -35 272 -34q264 0 411.5 177t147.5 443q0 584 -616 584h-232v-559h226v-68h-226v-364z" />
<glyph unicode="&#xd1;" horiz-adv-x="1439" d="M63 0v43l177 33l20 207v774l-20 207l-177 32v43h291l170 -282l592 -883v883l-22 207l-174 32v43h456v-43l-174 -32l-20 -207v-1096h-56l-194 322l-606 905v-905l22 -207l174 -33v-43h-459zM420 1632q18 63 61 101.5t103 38.5q29 0 59.5 -13.5t46 -25t51.5 -41.5 q6 -4 22.5 -18.5t24 -18.5t20.5 -12.5t26.5 -11.5t27.5 -3q35 0 65.5 23.5t45.5 66.5l47 -22q-49 -139 -166 -140q-63 0 -158 80q-76 63 -121 64q-78 0 -108 -90z" />
<glyph unicode="&#xd2;" horiz-adv-x="1400" d="M104 674q0 330 160 520t461 190q270 0 420.5 -188t150.5 -514q0 -332 -157.5 -528.5t-460.5 -196.5q-291 0 -432.5 188.5t-141.5 528.5zM213 684q0 -309 121 -491.5t375 -182.5q207 0 342 174t135 473q0 309 -121 490.5t-348 181.5q-233 0 -368.5 -171t-135.5 -474z M332 1845l63 64l338 -338l-33 -33z" />
<glyph unicode="&#xd3;" horiz-adv-x="1400" d="M104 674q0 330 160 520t461 190q270 0 420.5 -188t150.5 -514q0 -332 -157.5 -528.5t-460.5 -196.5q-291 0 -432.5 188.5t-141.5 528.5zM213 684q0 -309 121 -491.5t375 -182.5q207 0 342 174t135 473q0 309 -121 490.5t-348 181.5q-233 0 -368.5 -171t-135.5 -474z M668 1571l338 338l63 -64l-369 -307z" />
<glyph unicode="&#xd4;" horiz-adv-x="1400" d="M104 674q0 330 160 520t461 190q270 0 420.5 -188t150.5 -514q0 -332 -157.5 -528.5t-460.5 -196.5q-291 0 -432.5 188.5t-141.5 528.5zM213 684q0 -309 121 -491.5t375 -182.5q207 0 342 174t135 473q0 309 -121 490.5t-348 181.5q-233 0 -368.5 -171t-135.5 -474z M446 1571l263 260l260 -260l-33 -33l-227 184l-230 -184z" />
<glyph unicode="&#xd5;" horiz-adv-x="1400" d="M104 674q0 330 160 520t461 190q270 0 420.5 -188t150.5 -514q0 -332 -157.5 -528.5t-460.5 -196.5q-291 0 -432.5 188.5t-141.5 528.5zM213 684q0 -309 121 -491.5t375 -182.5q207 0 342 174t135 473q0 309 -121 490.5t-348 181.5q-233 0 -368.5 -171t-135.5 -474z M401 1632q18 63 61.5 101.5t102.5 38.5q29 0 59.5 -13.5t46 -25t52.5 -41.5q6 -4 22.5 -18.5t23.5 -18.5t20.5 -12.5t26.5 -11.5t28 -3q35 0 65.5 23.5t44.5 66.5l47 -22q-49 -139 -165 -140q-63 0 -158 80q-76 63 -121 64q-78 0 -108 -90z" />
<glyph unicode="&#xd6;" horiz-adv-x="1400" d="M104 674q0 330 160 520t461 190q270 0 420.5 -188t150.5 -514q0 -332 -157.5 -528.5t-460.5 -196.5q-291 0 -432.5 188.5t-141.5 528.5zM213 684q0 -309 121 -491.5t375 -182.5q207 0 342 174t135 473q0 309 -121 490.5t-348 181.5q-233 0 -368.5 -171t-135.5 -474z M461 1700q0 31 20.5 54.5t55.5 23.5q33 0 54 -20.5t21 -57.5q0 -31 -19.5 -53.5t-55.5 -22.5q-31 0 -53.5 22.5t-22.5 53.5zM786 1700q0 31 20.5 54.5t55.5 23.5q33 0 54.5 -20.5t21.5 -57.5q0 -31 -19.5 -53.5t-56.5 -22.5q-31 0 -53.5 22.5t-22.5 53.5z" />
<glyph unicode="&#xd7;" horiz-adv-x="2048" d="M0 438q41 -10 90 -13t66 -5q-2 -20 7 -93t9 -184q0 -197 12.5 -263t48.5 -66q45 0 57.5 28.5t2.5 57.5l-10 28q0 248 -5.5 294t-5.5 206q113 16 209 70q74 41 154 145q-2 -25 12.5 -98.5t18.5 -112.5q8 -98 32 -217q27 -131 95 -174q12 -6 65 -18.5t62 -12.5h8q23 0 36 1 t31.5 5t26.5 16.5t8 30.5q0 29 -19.5 44.5t-41 17.5t-55 3t-46.5 3q-25 4 -45 51t-27.5 85t-7.5 46q-4 18 -13 67.5t-13 74t-12.5 67.5t-10.5 66.5t-5 51.5t-1 42t8 18q25 18 72 19q37 0 91 -57.5t54 -94.5q0 -31 -18 -53t-39.5 -31.5t-40 -25t-18.5 -35.5q0 -27 17.5 -42 t35.5 -11q20 2 30.5 8t30 24.5t40 33t59.5 73.5t67 78q84 55 148 61q18 -211 28 -360l-12 -121q0 -35 42 -78t106 -43q82 0 82 47q0 39 -17.5 47t-37 1t-37 18.5t-17.5 93.5q0 23 -9 104.5t-12 128.5l-6 197h45q2 -2 40 -19.5t55.5 -36t29.5 -51.5q6 -18 19.5 -116.5 t28 -224t24.5 -181.5q10 -25 80 -24q18 0 21 23.5t6.5 98t17.5 154.5q41 209 182 268l33 11q55 0 86 -9v-1087h-2048v950zM0 537v999h2048v-854l-86 8q-111 0 -190 -90q-47 -53 -91 -176q-6 12 -21 110.5t-52 149.5q-59 78 -164 96q-49 12 -55 21q-4 27 -4.5 73t-2.5 81.5 t-7 72.5t-21.5 56.5t-44.5 19.5q-23 0 -38.5 -14.5t-15.5 -38.5q0 -20 12.5 -63.5t12.5 -117.5q0 -80 -8 -92q-6 -12 -27.5 -16t-78 -25.5t-126.5 -70.5q-6 6 -21 22.5t-23 23.5l-21 21q-14 14 -23.5 22.5t-23 19.5t-23.5 17.5t-21.5 12.5t-21.5 9t-20 3q-131 0 -172 -51 q2 16 2 33q0 80 -47 154.5t-117 115.5q-143 88 -246 88q-37 0 -45 -16q0 2 -2 7t-2 8t-2 8t-4 8.5t-4 7.5t-5 6t-7.5 4t-8.5 3t-10 1q-47 0 -57 -27q-10 -23 0 -84q45 -342 47 -446q0 -14 2 -33.5t3 -28t-3 -17.5t-12 -15q-105 2 -152 -6zM240 1036q20 -10 39 -12 q78 -8 127 -37q59 -33 108 -83t49 -87q0 -113 -94 -188q-74 -59 -164 -72h-26q0 47 -12.5 240.5t-26.5 238.5z" />
<glyph unicode="&#xd8;" horiz-adv-x="1400" d="M104 674q0 330 160 520t461 190q115 0 201 -32l86 227l65 -20l-88 -234q150 -76 228.5 -243t78.5 -400q0 -332 -157.5 -528.5t-460.5 -196.5q-106 0 -197 29l-80 -209l-63 22l80 209q-314 150 -314 666zM213 684q0 -446 231 -602l459 1208q-88 39 -186 39 q-233 0 -368.5 -171t-135.5 -474zM506 49q90 -39 203 -39q207 0 342 174t135 473q0 436 -223 598q-457 -1204 -457 -1206z" />
<glyph unicode="&#xd9;" horiz-adv-x="1437" d="M41 1296v43h489v-43l-174 -32l-22 -207v-664q0 -176 98 -277.5t283 -101.5q186 0 298.5 105.5t112.5 349.5v588l-20 207l-176 32v43h467v-43l-174 -32l-23 -207v-572q0 -532 -500 -532q-465 0 -464 457v647l-21 207zM350 1845l64 64l338 -338l-33 -33z" />
<glyph unicode="&#xda;" horiz-adv-x="1437" d="M41 1296v43h489v-43l-174 -32l-22 -207v-664q0 -176 98 -277.5t283 -101.5q186 0 298.5 105.5t112.5 349.5v588l-20 207l-176 32v43h467v-43l-174 -32l-23 -207v-572q0 -532 -500 -532q-465 0 -464 457v647l-21 207zM686 1571l338 338l63 -64l-368 -307z" />
<glyph unicode="&#xdb;" horiz-adv-x="1437" d="M41 1296v43h489v-43l-174 -32l-22 -207v-664q0 -176 98 -277.5t283 -101.5q186 0 298.5 105.5t112.5 349.5v588l-20 207l-176 32v43h467v-43l-174 -32l-23 -207v-572q0 -532 -500 -532q-465 0 -464 457v647l-21 207zM465 1571l262 260l260 -260l-33 -33l-227 184 l-229 -184z" />
<glyph unicode="&#xdc;" horiz-adv-x="1437" d="M41 1296v43h489v-43l-174 -32l-22 -207v-664q0 -176 98 -277.5t283 -101.5q186 0 298.5 105.5t112.5 349.5v588l-20 207l-176 32v43h467v-43l-174 -32l-23 -207v-572q0 -532 -500 -532q-465 0 -464 457v647l-21 207zM479 1700q0 31 20.5 54.5t55.5 23.5q33 0 54.5 -20.5 t21.5 -57.5q0 -31 -19.5 -53.5t-56.5 -22.5q-31 0 -53.5 22.5t-22.5 53.5zM805 1700q0 31 20.5 54.5t55.5 23.5q33 0 54 -20.5t21 -57.5q0 -31 -19 -53.5t-56 -22.5q-31 0 -53.5 22.5t-22.5 53.5z" />
<glyph unicode="&#xdd;" horiz-adv-x="1175" d="M16 1296v43h435v-43l-158 -32l104 -207l217 -377l203 377l92 207l-153 32v43h403v-43l-135 -32l-137 -207l-234 -430v-344l21 -207l176 -33v-43h-492v43l174 33l23 207v305l-272 469l-142 207zM555 1571l338 338l63 -64l-368 -307z" />
<glyph unicode="&#xde;" horiz-adv-x="1028" d="M63 0v43l177 33l20 207v774l-20 207l-177 32v43h316l-21 -217h224q164 0 253 -84t89 -231q0 -164 -120 -277.5t-372 -113.5h-74v-133l23 -207l194 -33v-43h-512zM358 496q76 -14 134 -15q152 -4 240.5 80t88.5 230q0 266 -350 266h-113v-561z" />
<glyph unicode="&#xdf;" horiz-adv-x="1073" d="M68 0v43l151 23l23 151v639h-174v47l174 33v192q0 162 100 246t246 84q113 0 187.5 -64.5t74.5 -168.5q0 -125 -139 -258q-129 -123 -129 -222q0 -23 5 -44t11 -36.5t21.5 -34t24.5 -27.5t33.5 -26.5t34 -24.5t40 -25.5t39.5 -24.5q61 -39 85.5 -56.5t62.5 -54.5 t53.5 -76t15.5 -90q0 -111 -86 -186.5t-215 -75.5q-113 0 -218 60l-14 194h62l28 -141q84 -41 172 -41q86 0 135.5 44t49.5 126q0 25 -6.5 47t-22.5 43l-29 36q-12 15 -39.5 35.5t-41 30t-48.5 32t-45 28.5q-100 66 -150.5 128t-50.5 140q0 55 25 104.5t50.5 77t78.5 76.5 q113 106 113 217q0 80 -57.5 131t-153.5 51q-217 0 -217 -229v-1153h-260z" />
<glyph unicode="&#xe0;" horiz-adv-x="919" d="M90 1419l64 64l338 -338l-33 -33zM94 203q0 125 111 215q113 88 416 88v162q0 102 -56.5 158.5t-154.5 56.5q-127 0 -236 -103l-33 37q129 141 316 141q111 0 181.5 -64.5t70.5 -205.5v-471l22 -151l152 -23v-43l-262 -33l22 223q-125 -233 -315 -233q-100 0 -167 66.5 t-67 179.5zM190 215q0 -76 44.5 -126t114 -50t144 50t128.5 140v224q-223 0 -328 -62q-103 -59 -103 -176z" />
<glyph unicode="&#xe1;" horiz-adv-x="919" d="M94 203q0 125 111 215q113 88 416 88v162q0 102 -56.5 158.5t-154.5 56.5q-127 0 -236 -103l-33 37q129 141 316 141q111 0 181.5 -64.5t70.5 -205.5v-471l22 -151l152 -23v-43l-262 -33l22 223q-125 -233 -315 -233q-100 0 -167 66.5t-67 179.5zM190 215 q0 -76 44.5 -126t114 -50t144 50t128.5 140v224q-223 0 -328 -62q-103 -59 -103 -176zM426 1145l338 338l63 -64l-368 -307z" />
<glyph unicode="&#xe2;" horiz-adv-x="919" d="M94 203q0 125 111 215q113 88 416 88v162q0 102 -56.5 158.5t-154.5 56.5q-127 0 -236 -103l-33 37q129 141 316 141q111 0 181.5 -64.5t70.5 -205.5v-471l22 -151l152 -23v-43l-262 -33l22 223q-125 -233 -315 -233q-100 0 -167 66.5t-67 179.5zM190 215 q0 -76 44.5 -126t114 -50t144 50t128.5 140v224q-223 0 -328 -62q-103 -59 -103 -176zM205 1145l262 260l260 -260l-33 -33l-227 184l-229 -184z" />
<glyph unicode="&#xe3;" horiz-adv-x="919" d="M94 203q0 125 111 215q113 88 416 88v162q0 102 -56.5 158.5t-154.5 56.5q-127 0 -236 -103l-33 37q129 141 316 141q111 0 181.5 -64.5t70.5 -205.5v-471l22 -151l152 -23v-43l-262 -33l22 223q-125 -233 -315 -233q-100 0 -167 66.5t-67 179.5zM160 1206 q18 63 61 101.5t103 38.5q29 0 59.5 -13.5t45.5 -25t52 -41.5q6 -4 22.5 -18.5t24 -18.5t20.5 -12.5t26.5 -11.5t27.5 -3q35 0 65.5 23.5t45.5 66.5l47 -22q-49 -139 -166 -140q-63 0 -158 80q-76 63 -121 64q-78 0 -108 -90zM190 215q0 -76 44.5 -126t114 -50t144 50 t128.5 140v224q-223 0 -328 -62q-103 -59 -103 -176z" />
<glyph unicode="&#xe4;" horiz-adv-x="919" d="M94 203q0 125 111 215q113 88 416 88v162q0 102 -56.5 158.5t-154.5 56.5q-127 0 -236 -103l-33 37q129 141 316 141q111 0 181.5 -64.5t70.5 -205.5v-471l22 -151l152 -23v-43l-262 -33l22 223q-125 -233 -315 -233q-100 0 -167 66.5t-67 179.5zM190 215 q0 -76 44.5 -126t114 -50t144 50t128.5 140v224q-223 0 -328 -62q-103 -59 -103 -176zM219 1274q0 31 20.5 54.5t55.5 23.5q33 0 54.5 -20.5t21.5 -57.5q0 -31 -19.5 -53.5t-56.5 -22.5q-31 0 -53.5 22.5t-22.5 53.5zM545 1274q0 31 20.5 54.5t55.5 23.5q33 0 54 -20.5 t21 -57.5q0 -31 -19.5 -53.5t-55.5 -22.5q-31 0 -53.5 22.5t-22.5 53.5z" />
<glyph unicode="&#xe5;" horiz-adv-x="919" d="M94 203q0 125 111 215q113 88 416 88v162q0 102 -56.5 158.5t-154.5 56.5q-127 0 -236 -103l-33 37q129 141 316 141q111 0 181.5 -64.5t70.5 -205.5v-471l22 -151l152 -23v-43l-262 -33l22 223q-125 -233 -315 -233q-100 0 -167 66.5t-67 179.5zM190 215 q0 -76 44.5 -126t114 -50t144 50t128.5 140v224q-223 0 -328 -62q-103 -59 -103 -176zM309 1230.5q0 61.5 43 101.5t107 40q61 0 105 -39t44 -102q0 -61 -42 -101t-107 -40q-63 0 -106.5 39.5t-43.5 101zM389 1231q0 -88 70 -88q68 0 67 88q0 90 -67 90q-70 0 -70 -90z" />
<glyph unicode="&#xe6;" horiz-adv-x="1417" d="M94 205q0 125 109 213q113 88 418 88v156q0 115 -59.5 168t-151.5 53q-127 0 -236 -103l-33 37q129 141 316 141q184 0 237 -163q39 76 118 119.5t179 43.5q174 0 249 -106.5t79 -300.5h-617q0 -16 -1 -39t-1 -43q0 -205 91.5 -320.5t255.5 -115.5q117 0 217 73l26 -38 q-133 -109 -286 -109q-238 0 -351 238q-131 -238 -325 -238q-102 0 -168 67.5t-66 178.5zM190 217q0 -74 44.5 -125t113.5 -51q68 0 140.5 47t132.5 141v224q-223 0 -328 -62q-103 -59 -103 -174zM709 610h348l164 23q0 123 -64.5 196.5t-173.5 73.5q-223 0 -274 -293z" />
<glyph unicode="&#xe7;" horiz-adv-x="886" d="M104 442q0 227 110 371.5t284 144.5q121 0 264 -43l22 -219h-59l-45 156q-106 45 -186 45q-141 0 -221 -110.5t-80 -313.5q0 -197 84.5 -315.5t232.5 -118.5q131 0 260 86l27 -45q-152 -111 -293 -123v-51h6q90 0 152.5 -54.5t62.5 -134.5q0 -86 -69.5 -140t-200.5 -54 h-60v65q61 -16 92 -16q59 0 98.5 35t39.5 90q0 59 -47.5 93t-133.5 34h-6v135q-152 16 -243 145t-91 338z" />
<glyph unicode="&#xe8;" horiz-adv-x="905" d="M84 1419l63 64l338 -338l-32 -33zM104 451q0 242 96.5 374.5t276.5 132.5q164 0 246 -98t84 -313h-617q-2 -45 -2 -76q0 -205 91.5 -322.5t255.5 -117.5q117 0 217 73l26 -38q-74 -59 -136 -84t-153 -25q-178 0 -281.5 128t-103.5 366zM197 608h348l164 21 q0 125 -64.5 198.5t-173.5 73.5q-223 0 -274 -293z" />
<glyph unicode="&#xe9;" horiz-adv-x="905" d="M104 451q0 242 96.5 374.5t276.5 132.5q164 0 246 -98t84 -313h-617q-2 -45 -2 -76q0 -205 91.5 -322.5t255.5 -117.5q117 0 217 73l26 -38q-74 -59 -136 -84t-153 -25q-178 0 -281.5 128t-103.5 366zM197 608h348l164 21q0 125 -64.5 198.5t-173.5 73.5 q-223 0 -274 -293zM420 1145l338 338l63 -64l-368 -307z" />
<glyph unicode="&#xea;" horiz-adv-x="905" d="M104 451q0 242 96.5 374.5t276.5 132.5q164 0 246 -98t84 -313h-617q-2 -45 -2 -76q0 -205 91.5 -322.5t255.5 -117.5q117 0 217 73l26 -38q-74 -59 -136 -84t-153 -25q-178 0 -281.5 128t-103.5 366zM197 608h348l164 21q0 125 -64.5 198.5t-173.5 73.5 q-223 0 -274 -293zM199 1145l262 260l260 -260l-33 -33l-227 184l-230 -184z" />
<glyph unicode="&#xeb;" horiz-adv-x="905" d="M104 451q0 242 96.5 374.5t276.5 132.5q164 0 246 -98t84 -313h-617q-2 -45 -2 -76q0 -205 91.5 -322.5t255.5 -117.5q117 0 217 73l26 -38q-74 -59 -136 -84t-153 -25q-178 0 -281.5 128t-103.5 366zM197 608h348l164 21q0 125 -64.5 198.5t-173.5 73.5 q-223 0 -274 -293zM213 1274q0 31 20.5 54.5t55.5 23.5q33 0 54.5 -20.5t21.5 -57.5q0 -31 -19.5 -53.5t-56.5 -22.5q-31 0 -53.5 22.5t-22.5 53.5zM539 1274q0 31 20.5 54.5t54.5 23.5q33 0 54.5 -20.5t21.5 -57.5q0 -31 -19.5 -53.5t-56.5 -22.5q-31 0 -53 22.5t-22 53.5z " />
<glyph unicode="&#xec;" horiz-adv-x="579" d="M-80 1419l64 64l338 -338l-33 -33zM61 872v43l304 33l-21 -252v-479l21 -151l153 -23v-43h-436v43l154 23l20 151v479l-20 154z" />
<glyph unicode="&#xed;" horiz-adv-x="579" d="M61 872v43l304 33l-21 -252v-479l21 -151l153 -23v-43h-436v43l154 23l20 151v479l-20 154zM256 1145l338 338l63 -64l-368 -307z" />
<glyph unicode="&#xee;" horiz-adv-x="579" d="M35 1145l262 260l260 -260l-33 -33l-227 184l-229 -184zM61 872v43l304 33l-21 -252v-479l21 -151l153 -23v-43h-436v43l154 23l20 151v479l-20 154z" />
<glyph unicode="&#xef;" horiz-adv-x="579" d="M49 1274q0 31 20.5 54.5t55.5 23.5q33 0 54.5 -20.5t21.5 -57.5q0 -31 -19.5 -53.5t-56.5 -22.5q-31 0 -53.5 22.5t-22.5 53.5zM61 872v43l304 33l-21 -252v-479l21 -151l153 -23v-43h-436v43l154 23l20 151v479l-20 154zM375 1274q0 31 20.5 54.5t55.5 23.5 q33 0 54 -20.5t21 -57.5q0 -31 -19.5 -53.5t-55.5 -22.5q-31 0 -53.5 22.5t-22.5 53.5z" />
<glyph unicode="&#xf0;" horiz-adv-x="1032" d="M104 399q0 248 134.5 403.5t349.5 155.5q86 0 147 -16v199h-200v67h200l-22 154l-174 22v43l303 33l-21 -252h158v-67h-158v-924l23 -151l151 -23v-43l-260 -43l21 184q-76 -98 -148.5 -141t-171.5 -43q-154 0 -243 117.5t-89 324.5zM197 438q0 -399 270 -399 q133 0 268 158v659q-98 35 -178 35q-174 0 -267 -125t-93 -328z" />
<glyph unicode="&#xf1;" horiz-adv-x="1130" d="M61 872v43l283 33l-20 -176q133 186 313 186q125 0 203 -82.5t78 -222.5v-436l20 -151l154 -23v-43h-426v43l141 23l22 151v401q0 117 -58 188t-163 71q-74 0 -125 -30t-139 -124v-506l23 -151l141 -23v-43h-424v43l152 23l22 151v479l-22 154zM266 1206 q18 63 61.5 101.5t102.5 38.5q29 0 59.5 -13.5t46 -25t52.5 -41.5q6 -4 22.5 -18.5t23.5 -18.5t20.5 -12.5t26.5 -11.5t28 -3q35 0 65.5 23.5t44.5 66.5l47 -22q-49 -139 -166 -140q-63 0 -157 80q-76 63 -121 64q-78 0 -109 -90z" />
<glyph unicode="&#xf2;" horiz-adv-x="1042" d="M104 438q0 242 115 381t318 139q190 0 295.5 -129t105.5 -374q0 -225 -116.5 -361.5t-309.5 -136.5q-188 0 -298 128t-110 353zM152 1419l63 64l338 -338l-33 -33zM199 463q0 -205 85 -329t230 -124q147 0 239.5 123t92.5 328q0 199 -87 321.5t-229 122.5 q-152 0 -241.5 -117.5t-89.5 -324.5z" />
<glyph unicode="&#xf3;" horiz-adv-x="1042" d="M104 438q0 242 115 381t318 139q190 0 295.5 -129t105.5 -374q0 -225 -116.5 -361.5t-309.5 -136.5q-188 0 -298 128t-110 353zM199 463q0 -205 85 -329t230 -124q147 0 239.5 123t92.5 328q0 199 -87 321.5t-229 122.5q-152 0 -241.5 -117.5t-89.5 -324.5zM487 1145 l338 338l64 -64l-369 -307z" />
<glyph unicode="&#xf4;" horiz-adv-x="1042" d="M104 438q0 242 115 381t318 139q190 0 295.5 -129t105.5 -374q0 -225 -116.5 -361.5t-309.5 -136.5q-188 0 -298 128t-110 353zM199 463q0 -205 85 -329t230 -124q147 0 239.5 123t92.5 328q0 199 -87 321.5t-229 122.5q-152 0 -241.5 -117.5t-89.5 -324.5zM266 1145 l262 260l260 -260l-32 -33l-228 184l-229 -184z" />
<glyph unicode="&#xf5;" horiz-adv-x="1042" d="M104 438q0 242 115 381t318 139q190 0 295.5 -129t105.5 -374q0 -225 -116.5 -361.5t-309.5 -136.5q-188 0 -298 128t-110 353zM199 463q0 -205 85 -329t230 -124q147 0 239.5 123t92.5 328q0 199 -87 321.5t-229 122.5q-152 0 -241.5 -117.5t-89.5 -324.5zM221 1206 q18 63 61.5 101.5t102.5 38.5q29 0 59.5 -13.5t46 -25t52.5 -41.5q6 -4 22.5 -18.5t23.5 -18.5t20.5 -12.5t26.5 -11.5t28 -3q35 0 65.5 23.5t44.5 66.5l47 -22q-49 -139 -166 -140q-63 0 -157 80q-76 63 -121 64q-78 0 -109 -90z" />
<glyph unicode="&#xf6;" horiz-adv-x="1042" d="M104 438q0 242 115 381t318 139q190 0 295.5 -129t105.5 -374q0 -225 -116.5 -361.5t-309.5 -136.5q-188 0 -298 128t-110 353zM199 463q0 -205 85 -329t230 -124q147 0 239.5 123t92.5 328q0 199 -87 321.5t-229 122.5q-152 0 -241.5 -117.5t-89.5 -324.5zM281 1274 q0 31 20.5 54.5t54.5 23.5q33 0 54.5 -20.5t21.5 -57.5q0 -31 -19.5 -53.5t-56.5 -22.5q-31 0 -53 22.5t-22 53.5zM606 1274q0 31 20.5 54.5t55.5 23.5q33 0 54.5 -20.5t21.5 -57.5q0 -31 -19.5 -53.5t-56.5 -22.5q-31 0 -53.5 22.5t-22.5 53.5z" />
<glyph unicode="&#xf7;" d="M115 6h794v-69h-794v69zM115 516v68h362v385h70v-385h362v-68h-362v-385h-70v385h-362z" />
<glyph unicode="&#xf8;" horiz-adv-x="1042" d="M104 438q0 242 115 381t318 139q72 0 133 -18l61 166l60 -23l-62 -168q209 -109 209 -460q0 -225 -116.5 -361.5t-309.5 -136.5q-70 0 -131 18l-53 -143l-60 21l54 147q-218 112 -218 438zM199 463q0 -283 147 -397l301 813q-57 27 -117 26q-152 0 -241.5 -117.5 t-89.5 -324.5zM401 33q55 -23 113 -23q147 0 239.5 123t92.5 328q0 266 -144 383z" />
<glyph unicode="&#xf9;" horiz-adv-x="1130" d="M63 872v43l306 33l-21 -252v-399q0 -121 57.5 -189.5t161.5 -68.5q131 0 264 154v503l-20 154l-176 22v43l305 33l-20 -252v-479l20 -151l154 -23v-43l-263 -33l23 176q-82 -102 -151.5 -144t-161.5 -42q-129 0 -205 82t-76 223v434l-22 154zM197 1419l63 64l338 -338 l-33 -33z" />
<glyph unicode="&#xfa;" horiz-adv-x="1130" d="M63 872v43l306 33l-21 -252v-399q0 -121 57.5 -189.5t161.5 -68.5q131 0 264 154v503l-20 154l-176 22v43l305 33l-20 -252v-479l20 -151l154 -23v-43l-263 -33l23 176q-82 -102 -151.5 -144t-161.5 -42q-129 0 -205 82t-76 223v434l-22 154zM532 1145l338 338l64 -64 l-369 -307z" />
<glyph unicode="&#xfb;" horiz-adv-x="1130" d="M63 872v43l306 33l-21 -252v-399q0 -121 57.5 -189.5t161.5 -68.5q131 0 264 154v503l-20 154l-176 22v43l305 33l-20 -252v-479l20 -151l154 -23v-43l-263 -33l23 176q-82 -102 -151.5 -144t-161.5 -42q-129 0 -205 82t-76 223v434l-22 154zM311 1145l262 260l261 -260 l-33 -33l-228 184l-229 -184z" />
<glyph unicode="&#xfc;" horiz-adv-x="1130" d="M63 872v43l306 33l-21 -252v-399q0 -121 57.5 -189.5t161.5 -68.5q131 0 264 154v503l-20 154l-176 22v43l305 33l-20 -252v-479l20 -151l154 -23v-43l-263 -33l23 176q-82 -102 -151.5 -144t-161.5 -42q-129 0 -205 82t-76 223v434l-22 154zM326 1274q0 31 20.5 54.5 t54.5 23.5q33 0 54.5 -20.5t21.5 -57.5q0 -31 -19.5 -53.5t-56.5 -22.5q-31 0 -53 22.5t-22 53.5zM651 1274q0 31 20.5 54.5t55.5 23.5q33 0 54.5 -20.5t21.5 -57.5q0 -31 -19.5 -53.5t-56.5 -22.5q-31 0 -53.5 22.5t-22.5 53.5z" />
<glyph unicode="&#xfd;" horiz-adv-x="1007" d="M31 872v43h364v-43l-147 -22l49 -154l233 -579l207 579l41 154l-143 22v43h342v-43l-98 -22l-70 -154l-447 -1208l-258 23v45l179 28l84 144l118 278l-280 690l-86 154zM471 1145l338 338l63 -64l-368 -307z" />
<glyph unicode="&#xfe;" horiz-adv-x="1081" d="M63 1384v43l304 33l-21 -252v-417q61 78 147.5 122.5t178.5 44.5q135 0 220 -121.5t85 -316.5q0 -246 -134 -404.5t-354 -158.5q-76 0 -143 16v-245l23 -152l174 -22v-43h-457v36l152 29l22 152v1480l-22 154zM346 55q98 -33 176 -32q164 0 263.5 125.5t99.5 338.5 q0 182 -62.5 283.5t-179.5 101.5q-174 0 -297 -159v-658z" />
<glyph unicode="&#xff;" horiz-adv-x="1007" d="M31 872v43h364v-43l-147 -22l49 -154l233 -579l207 579l41 154l-143 22v43h342v-43l-98 -22l-70 -154l-447 -1208l-258 23v45l179 28l84 144l118 278l-280 690l-86 154zM264 1274q0 31 20.5 54.5t55.5 23.5q33 0 54.5 -20.5t21.5 -57.5q0 -31 -19.5 -53.5t-56.5 -22.5 q-31 0 -53.5 22.5t-22.5 53.5zM590 1274q0 31 20.5 54.5t55.5 23.5q33 0 54 -20.5t21 -57.5q0 -31 -19.5 -53.5t-55.5 -22.5q-31 0 -53.5 22.5t-22.5 53.5z" />
<glyph unicode="&#x152;" horiz-adv-x="1779" d="M104 672q0 336 162 524t420 188q133 0 277 -45h692l20 -305h-65l-43 207l-197 33h-321v-555h186l174 22l23 174h53v-458h-53l-23 176l-174 20h-186v-370l22 -185l174 -32h174l187 32l43 207h65l-22 -305h-756q-150 -43 -250 -43q-582 0 -582 715zM207 680 q0 -303 133 -486.5t358 -183.5q115 0 232 66l22 207v774l-22 213q-123 59 -234 59q-223 0 -356 -172t-133 -477z" />
<glyph unicode="&#x153;" horiz-adv-x="1648" d="M104 438q0 244 113 381t315 139q131 2 223.5 -59t135.5 -180q84 240 332 239q178 0 249.5 -109.5t77.5 -297.5h-616q-4 -57 -4 -82q0 -203 91 -320.5t255 -117.5q117 0 219 73l27 -38q-125 -109 -287 -109q-248 0 -348 240q-33 -106 -139.5 -173t-237.5 -67 q-188 0 -297 127t-109 354zM199 463q0 -205 85 -329t230 -124q147 0 239.5 123t92.5 328q0 201 -86 322.5t-230 121.5q-152 0 -241.5 -116.5t-89.5 -325.5zM940 610h348l164 23q0 123 -64.5 196.5t-173.5 73.5q-102 0 -175.5 -75t-98.5 -218z" />
<glyph unicode="&#x178;" horiz-adv-x="1175" d="M16 1296v43h435v-43l-158 -32l104 -207l217 -377l203 377l92 207l-153 32v43h403v-43l-135 -32l-137 -207l-234 -430v-344l21 -207l176 -33v-43h-492v43l174 33l23 207v305l-272 469l-142 207zM348 1700q0 31 20.5 54.5t55.5 23.5q33 0 54.5 -20.5t21.5 -57.5 q0 -31 -19.5 -53.5t-56.5 -22.5q-31 0 -53.5 22.5t-22.5 53.5zM674 1700q0 31 20.5 54.5t55.5 23.5q33 0 54 -20.5t21 -57.5q0 -31 -19.5 -53.5t-55.5 -22.5q-31 0 -53.5 22.5t-22.5 53.5z" />
<glyph unicode="&#x2c6;" horiz-adv-x="0" d="M-254 1145l262 260l260 -260l-32 -33l-228 184l-229 -184z" />
<glyph unicode="&#x2dc;" horiz-adv-x="0" d="M-299 1206q18 63 61 101.5t103 38.5q29 0 59.5 -13.5t46 -25t52.5 -41.5q6 -4 22 -18.5t23.5 -18.5t20.5 -12.5t26.5 -11.5t27.5 -3q35 0 66 23.5t45 66.5l47 -22q-49 -139 -166 -140q-63 0 -158 80q-76 63 -120 64q-78 0 -109 -90z" />
<glyph unicode="&#x2013;" d="M-10 451v67h1044v-67h-1044z" />
<glyph unicode="&#x2014;" horiz-adv-x="2048" d="M-10 451v67h2068v-67h-2068z" />
<glyph unicode="&#x2018;" horiz-adv-x="368" d="M76 1077q0 86 47 161t149 99l21 -55q-72 -18 -105.5 -67.5t-21.5 -116.5q51 6 79.5 -19.5t28.5 -70.5q0 -37 -23.5 -63.5t-66.5 -26.5q-49 0 -78.5 42.5t-29.5 116.5z" />
<glyph unicode="&#x2019;" horiz-adv-x="368" d="M76 975q72 18 105.5 67.5t21.5 116.5q-51 -6 -80 19.5t-29 70.5q0 37 23.5 63.5t66.5 26.5q49 0 79 -43t30 -116q0 -86 -47 -161t-150 -99z" />
<glyph unicode="&#x201a;" horiz-adv-x="368" d="M76 -211q72 18 105.5 67.5t21.5 116.5q-51 -6 -80 19.5t-29 70.5q0 37 23.5 64t66.5 27q49 0 79 -43t30 -117q0 -86 -47 -161t-150 -99z" />
<glyph unicode="&#x201c;" horiz-adv-x="655" d="M76 1077q0 86 47 161t149 99l21 -55q-72 -18 -105.5 -67.5t-21.5 -116.5q51 6 79.5 -19.5t28.5 -70.5q0 -37 -23.5 -63.5t-66.5 -26.5q-49 0 -78.5 42.5t-29.5 116.5zM367 1077q0 86 47 161t149 99l21 -55q-72 -18 -106 -67.5t-21 -116.5q51 6 79.5 -19.5t28.5 -70.5 q0 -37 -23.5 -63.5t-66.5 -26.5q-49 0 -78.5 42.5t-29.5 116.5z" />
<glyph unicode="&#x201d;" horiz-adv-x="655" d="M76 975q72 18 105.5 67.5t21.5 116.5q-51 -6 -80 19.5t-29 70.5q0 37 23.5 63.5t66.5 26.5q49 0 79 -43t30 -116q0 -86 -47 -161t-150 -99zM362 975q72 18 106 67.5t21 116.5q-51 -6 -79.5 19.5t-28.5 70.5q0 37 23.5 63.5t66.5 26.5q49 0 79 -43t30 -116 q0 -86 -47.5 -161t-149.5 -99z" />
<glyph unicode="&#x201e;" horiz-adv-x="655" d="M76 -211q72 18 105.5 67.5t21.5 116.5q-51 -6 -80 19.5t-29 70.5q0 37 23.5 64t66.5 27q49 0 79 -43t30 -117q0 -86 -47 -161t-150 -99zM360 -211q72 18 106 67.5t21 116.5q-51 -6 -79.5 19.5t-28.5 70.5q0 37 23.5 64t66.5 27q49 0 79 -43t30 -117q0 -86 -47.5 -161 t-149.5 -99z" />
<glyph unicode="&#x2022;" horiz-adv-x="681" d="M168 436q0 70 51 122t123 52q70 0 122 -50t52 -124q0 -70 -51 -122t-123 -52q-70 0 -122 51t-52 123z" />
<glyph unicode="&#x2026;" horiz-adv-x="1112" d="M88 80q0 37 26.5 66.5t69.5 29.5q37 0 66 -27.5t29 -68.5q0 -37 -26 -65.5t-69 -28.5q-39 0 -67.5 24.5t-28.5 69.5zM461 80q0 37 26.5 66.5t69.5 29.5q37 0 65.5 -27.5t28.5 -68.5q0 -37 -25.5 -65.5t-68.5 -28.5q-39 0 -67.5 24.5t-28.5 69.5zM831 80q0 37 27 66.5 t70 29.5q37 0 65.5 -27.5t28.5 -68.5q0 -37 -25.5 -65.5t-68.5 -28.5q-39 0 -68 24.5t-29 69.5z" />
<glyph unicode="&#x2039;" horiz-adv-x="681" d="M96 463l428 422l39 -41l-325 -381l325 -381l-39 -41z" />
<glyph unicode="&#x203a;" horiz-adv-x="681" d="M121 82l325 381l-325 381l39 41l428 -422l-428 -422z" />
<glyph unicode="&#x20ac;" horiz-adv-x="993" d="M27 336v43l123 24q-2 23 -3 68q0 37 3 55h-123v43l127 27h4q33 166 152.5 264t324.5 98q137 0 274 -30l17 -232h-68l-31 181q-104 29 -206 28q-156 0 -252.5 -81t-118.5 -238h397l-12 -60h-391v-41q0 -47 6 -90h397l-12 -59h-375q31 -152 129 -239t244 -87q113 0 211 41 l30 168h68l-16 -231q-160 -31 -303 -31q-197 0 -315 100.5t-148 278.5h-133z" />
<glyph unicode="&#x2122;" horiz-adv-x="1843" d="M123 1192l14 188h590l14 -188h-59l-25 117l-98 10h-86v-510l10 -98l95 -19v-47h-289v47l92 19l10 98v510h-86l-98 -10l-25 -117h-59zM819 645v47l94 19l11 98v408l-11 100l-94 16v47h217l54 -159l167 -447l181 451l53 155h213v-47l-92 -16l-10 -100v-408l10 -98l92 -19 v-47h-289v47l94 19l11 98v471l-185 -475l-57 -160h-64l-57 160l-172 473v-469l10 -98l92 -19v-47h-268z" />
<glyph unicode="&#xe000;" horiz-adv-x="915" d="M0 915h915v-915h-915v915z" />
<glyph unicode="&#xfb01;" horiz-adv-x="1146" d="M68 0v43l151 23l23 151v639h-174v47l174 33v164q0 156 95 260t273 104q176 0 324 -135l-66 -65q-131 131 -288 131q-252 0 -252 -256v-224h301l303 33l-21 -252v-479l21 -151l153 -23v-43h-413v43l131 23l20 151v479l-20 144l-172 16h-303v-639l22 -151l131 -23v-43h-413 z" />
<glyph unicode="&#xfb02;" horiz-adv-x="1157" d="M68 0v43l151 23l23 151v639h-174v47l174 33v156q0 168 97 271t265 103q143 0 338 -51l-20 -207v-991l22 -151l152 -23v-43h-414v43l131 23l21 151v991l-17 144q-139 43 -235 43q-119 0 -186.5 -61.5t-67.5 -182.5v-236h241v-59h-241v-639l22 -151l131 -23v-43h-413z" />
<glyph unicode="&#xfb03;" horiz-adv-x="1775" d="M1257 872v43l304 33l-21 -252v-479l21 -151l153 -23v-43h-436v43l154 23l20 151v479l-20 154zM1386 1317q0 37 26 62.5t63 25.5q35 0 61.5 -26.5t26.5 -65.5q0 -33 -26 -58.5t-62.5 -25.5t-62.5 23.5t-26 64.5zM666 0v43l151 23l23 151v639h-174v47l174 33v190 q0 168 86 256t229 88q68 0 139 -28l-43 -90q-82 37 -149 37q-84 0 -130 -45.5t-46 -157.5v-271h241v-59h-241v-639l22 -151l174 -23v-43h-456zM68 0v43l151 23l23 151v639h-174v47l174 33v190q0 168 86 256t229 88q68 0 139 -28l-43 -90q-82 37 -149 37q-84 0 -130 -45.5 t-46 -157.5v-271h241v-59h-241v-639l22 -151l174 -23v-43h-456z" />
<glyph unicode="&#xfb04;" horiz-adv-x="1775" d="M1257 1384v43l304 33l-21 -252v-991l23 -151l151 -23v-43h-434v43l152 23l22 151v991l-22 154zM666 0v43l151 23l23 151v639h-174v47l174 33v190q0 168 86 256t229 88q68 0 139 -28l-43 -90q-82 37 -149 37q-84 0 -130 -45.5t-46 -157.5v-271h241v-59h-241v-639l22 -151 l174 -23v-43h-456zM68 0v43l151 23l23 151v639h-174v47l174 33v190q0 168 86 256t229 88q68 0 139 -28l-43 -90q-82 37 -149 37q-84 0 -130 -45.5t-46 -157.5v-271h241v-59h-241v-639l22 -151l174 -23v-43h-456z" />
</font>
</defs>
</svg>
